{"glyphs":{"0":{"ha":921,"x_min":76,"x_max":844,"o":"m 460 -12 q 373 -12 460 -12 q 181 133 286 -12 q 76 505 76 278 q 181 874 76 732 q 460 1015 285 1015 q 740 874 636 1015 q 844 506 844 732 q 740 133 844 279 q 460 -12 635 -12 m 690 517 q 616 807 685 700 q 446 914 547 914 q 283 793 344 914 q 229 529 229 686 q 301 203 229 315 q 476 90 374 90 q 639 211 578 90 q 692 472 692 317 q 690 517 692 494 z "},"1":{"ha":504,"x_min":36,"x_max":385,"o":"m 346 883 l 346 103 q 385 36 346 53 q 296 -12 349 -12 q 200 104 200 -12 l 200 850 q 156 897 200 897 q 58 863 111 897 q 36 897 36 871 q 94 976 36 936 q 217 1015 151 1015 q 315 980 283 1015 q 346 883 346 944 z "},"2":{"ha":804,"x_min":63,"x_max":751,"o":"m 719 175 q 751 101 751 146 q 709 28 751 57 q 581 0 667 0 l 168 0 q 88 27 113 0 q 63 89 63 54 q 65 114 63 101 q 420 440 300 297 q 540 721 540 582 q 493 869 540 817 q 378 921 446 921 q 268 885 311 921 q 225 792 225 849 q 276 707 225 736 q 190 663 243 663 q 101 695 136 663 q 67 782 67 728 q 160 948 67 881 q 389 1015 253 1015 q 611 931 525 1015 q 697 715 697 847 q 217 117 697 436 l 568 133 q 719 175 671 135 z "},"3":{"ha":781,"x_min":60,"x_max":703,"o":"m 407 1015 q 461 1015 407 1015 q 588 958 515 1015 q 660 814 660 900 q 601 666 660 728 q 456 576 543 604 q 632 484 561 561 q 703 296 703 407 q 598 73 703 158 q 343 -12 493 -12 q 149 41 238 -12 q 60 178 60 94 q 86 244 60 219 q 142 272 113 268 q 244 140 175 189 q 396 92 313 92 q 532 139 479 92 q 585 254 585 186 q 504 410 585 349 q 308 472 424 472 q 235 464 268 472 q 217 503 217 476 q 264 559 217 529 q 367 613 311 589 q 471 681 424 636 q 518 781 518 725 q 475 870 518 838 q 367 903 432 903 q 156 826 251 903 q 125 868 125 836 q 212 965 125 914 q 407 1015 299 1015 z "},"4":{"ha":842,"x_min":72,"x_max":814,"o":"m 229 343 l 499 343 l 499 819 q 482 843 499 843 q 383 753 456 843 q 249 548 311 663 q 186 375 186 433 q 196 350 186 357 q 229 343 206 343 m 643 343 l 699 343 q 796 368 768 343 q 814 313 814 347 q 778 258 814 279 q 682 236 742 236 l 643 236 l 643 103 q 681 36 643 53 q 593 -12 649 -12 q 499 104 499 -12 l 499 236 l 185 236 q 72 328 72 236 q 160 590 72 424 q 368 885 249 756 q 565 1015 488 1015 q 643 906 643 1015 l 643 343 z "},"5":{"ha":779,"x_min":90,"x_max":700,"o":"m 401 633 q 615 548 529 633 q 700 329 700 463 q 601 92 700 196 q 354 -12 501 -12 q 171 38 251 -12 q 90 171 90 89 q 121 238 90 213 q 183 264 151 264 q 268 147 210 188 q 405 107 326 107 q 534 158 483 107 q 585 288 585 210 q 508 453 585 393 q 322 514 431 514 q 175 488 247 514 q 136 504 153 488 q 119 558 119 521 q 183 890 119 596 q 242 978 196 953 q 367 1004 288 1004 l 521 1004 q 628 1031 593 1004 q 651 971 651 1007 q 483 869 651 869 l 285 869 l 226 596 q 401 633 311 633 z "},"6":{"ha":851,"x_min":86,"x_max":776,"o":"m 86 428 q 240 839 86 663 q 600 1015 393 1015 q 651 1003 629 1015 q 674 965 674 990 q 672 954 674 957 q 363 799 488 936 q 238 444 238 661 q 303 184 238 283 q 479 85 368 85 q 595 132 549 85 q 642 264 642 179 q 566 440 642 372 q 372 507 490 507 q 353 507 363 507 q 392 585 354 557 q 483 614 429 614 q 694 526 613 614 q 776 319 776 438 q 681 77 776 167 q 449 -12 586 -12 q 182 113 278 -12 q 86 428 86 238 z "},"7":{"ha":686,"x_min":31,"x_max":638,"o":"m 189 1004 l 625 1004 q 638 951 638 989 q 587 822 638 914 q 475 633 536 731 q 363 403 414 535 q 313 176 313 272 q 374 61 313 81 q 347 13 369 39 q 274 -12 324 -12 q 192 28 225 -12 q 158 127 158 69 q 178 249 158 185 q 221 367 197 313 q 291 506 244 422 q 365 633 338 589 q 448 766 393 678 q 518 878 503 854 q 403 868 476 868 l 168 868 q 61 829 99 868 q 31 902 31 849 q 78 980 31 956 q 189 1004 125 1004 z "},"8":{"ha":831,"x_min":83,"x_max":747,"o":"m 219 292 q 282 140 219 206 q 449 74 344 74 q 564 113 514 74 q 614 218 614 151 q 544 350 614 296 q 409 435 486 394 q 306 490 332 475 q 219 292 219 407 m 519 533 q 586 707 586 614 q 531 867 586 800 q 390 933 476 933 q 281 894 328 933 q 235 789 235 854 q 328 642 235 703 q 434 579 369 613 q 519 533 499 546 m 722 740 q 582 497 722 586 q 747 257 747 394 q 652 66 747 144 q 429 -12 557 -12 q 192 65 301 -12 q 83 269 83 142 q 129 423 83 354 q 243 529 175 492 q 141 628 176 576 q 106 754 106 681 q 191 935 106 854 q 402 1015 276 1015 q 625 940 528 1015 q 722 740 722 864 z "},"9":{"ha":807,"x_min":51,"x_max":740,"o":"m 740 569 q 676 290 740 424 q 499 72 613 156 q 251 -12 385 -12 q 199 0 221 -12 q 178 38 178 13 q 179 50 178 46 q 475 206 358 68 q 592 544 592 343 q 525 808 592 700 q 343 917 458 917 q 228 872 275 917 q 181 750 181 826 q 264 567 181 636 q 464 497 347 497 q 486 497 475 497 q 447 418 485 447 q 356 389 410 389 q 137 483 222 389 q 51 694 51 578 q 142 928 51 842 q 369 1015 233 1015 q 641 889 542 1015 q 740 569 740 763 z "},"\u0000":{"ha":0,"x_min":0,"x_max":0,"o":""},"\r":{"ha":0,"x_min":0,"x_max":0,"o":""}," ":{"ha":381,"x_min":0,"x_max":0,"o":""},"!":{"ha":501,"x_min":133,"x_max":324,"o":"m 272 440 q 268 363 268 401 q 276 293 268 324 q 235 272 258 272 q 165 375 176 272 l 135 928 q 133 953 133 940 q 156 1043 133 1006 q 223 1081 179 1081 q 289 1044 267 1081 q 311 961 311 1008 q 310 928 311 944 l 272 440 m 243 172 q 262 172 243 172 q 302 151 281 172 q 324 91 324 129 q 291 19 324 53 q 219 -14 258 -14 q 159 8 181 -14 q 138 69 138 31 q 172 140 138 107 q 243 172 206 172 z "},"\"":{"ha":519,"x_min":69,"x_max":450,"o":"m 139 1267 q 213 1157 213 1267 q 190 937 213 1047 q 141 826 167 826 q 92 938 115 826 q 69 1158 69 1049 q 139 1267 69 1267 m 380 826 q 367 826 380 826 q 331 938 354 826 q 307 1158 307 1050 q 378 1267 307 1267 q 450 1156 450 1267 q 428 936 450 1046 q 380 826 406 826 z "},"#":{"ha":1128,"x_min":81,"x_max":1047,"o":"m 639 350 l 728 651 l 478 651 l 388 350 l 639 350 m 914 651 l 863 651 l 775 350 l 921 350 q 929 318 929 331 q 796 246 929 246 l 744 246 l 703 104 q 575 -12 667 -12 q 510 36 529 -12 q 567 103 549 51 l 608 246 l 357 246 l 315 104 q 190 -12 282 -12 q 124 36 146 -12 q 181 103 165 51 l 222 246 l 89 246 q 81 279 81 265 q 214 350 81 350 l 253 350 l 342 651 l 208 651 q 200 685 200 667 q 235 738 200 719 q 332 757 269 757 l 374 757 l 415 900 q 536 1015 449 1015 q 608 967 589 1015 q 551 901 567 950 l 508 757 l 758 757 l 800 900 q 847 988 819 960 q 925 1015 875 1015 q 994 967 975 1015 q 936 901 951 950 l 894 757 l 1039 757 q 1047 724 1047 742 q 914 651 1047 651 z "},"$":{"ha":881,"x_min":99,"x_max":839,"o":"m 553 1094 l 553 1014 q 739 946 669 1000 q 808 821 808 892 q 784 753 808 778 q 724 728 760 728 q 649 747 688 728 q 657 793 657 772 q 607 880 657 840 q 467 919 557 919 q 324 883 378 919 q 269 789 269 846 q 312 690 269 732 q 417 621 354 649 q 554 558 481 593 q 691 488 628 522 q 797 400 754 454 q 839 281 839 346 q 745 84 839 164 q 511 -10 651 4 l 511 -87 q 549 -154 511 -136 q 460 -203 514 -203 q 365 -86 365 -203 l 365 -6 q 172 75 246 14 q 99 221 99 136 q 128 299 99 269 q 205 329 158 329 q 283 293 251 329 q 251 215 251 265 q 308 126 251 164 q 461 89 364 89 q 626 136 558 89 q 693 247 693 183 q 634 356 693 310 q 492 435 575 401 q 324 508 408 469 q 181 610 240 547 q 122 753 122 672 q 204 928 122 857 q 407 1015 286 999 l 407 1094 q 369 1161 407 1144 q 458 1210 403 1210 q 553 1094 553 1210 z "},"%":{"ha":1219,"x_min":104,"x_max":1114,"o":"m 539 751 q 539 695 539 751 q 472 549 539 639 q 307 458 404 458 q 157 533 210 458 q 104 722 104 608 q 168 925 104 835 q 331 1015 232 1015 q 484 940 429 1015 q 539 751 539 864 m 397 862 q 383 888 397 862 q 322 914 369 914 q 245 863 275 914 q 215 737 215 811 q 244 610 215 663 q 318 558 272 558 q 394 610 364 558 q 424 735 424 661 q 397 862 424 810 m 874 958 q 956 1015 918 1015 q 1017 981 993 1015 q 967 926 1001 975 l 346 46 q 264 -14 303 -14 q 204 22 225 -14 q 254 78 226 36 l 874 958 m 1114 281 q 1114 225 1114 281 q 1047 78 1114 168 q 883 -12 981 -12 q 732 63 785 -12 q 679 250 679 138 q 744 454 679 363 q 907 546 808 546 q 1060 470 1006 546 q 1114 281 1114 394 m 999 263 q 999 301 999 263 q 972 391 999 339 q 898 443 944 443 q 821 392 851 443 q 790 266 790 340 q 819 140 790 192 q 894 88 849 88 q 969 138 940 88 q 999 263 999 188 z "},"&":{"ha":1032,"x_min":94,"x_max":1035,"o":"m 989 731 q 1035 637 1035 701 q 979 532 1035 572 q 813 492 924 492 q 851 332 851 422 q 742 88 851 188 q 467 -12 633 -12 q 198 70 301 -12 q 94 283 94 153 q 250 526 94 435 q 128 732 128 581 q 214 936 128 856 q 399 1017 300 1017 q 556 978 499 1017 q 613 888 613 939 q 572 814 613 836 q 526 800 550 800 q 479 807 501 800 q 448 902 475 872 q 369 932 421 932 q 284 892 318 932 q 250 781 250 851 q 301 667 250 711 q 444 622 353 622 q 460 586 460 604 q 447 547 460 568 q 351 507 421 507 q 325 508 333 507 q 232 325 232 440 q 303 174 232 229 q 488 118 374 118 q 682 177 603 118 q 761 331 761 236 q 727 444 761 403 q 622 485 693 485 q 611 520 611 504 q 621 550 611 536 q 703 578 642 578 q 847 617 813 578 q 872 689 872 643 q 868 729 872 708 q 935 746 906 746 q 989 731 965 746 z "},"'":{"ha":281,"x_min":67,"x_max":214,"o":"m 214 1110 q 190 922 214 1018 q 141 826 167 826 q 91 924 115 826 q 67 1090 67 1021 q 139 1224 67 1224 q 214 1110 214 1224 z "},"(":{"ha":658,"x_min":149,"x_max":617,"o":"m 617 1147 q 299 388 299 824 q 617 -365 299 -47 q 566 -394 604 -394 q 476 -356 528 -394 q 368 -244 425 -318 q 262 -78 311 -171 q 181 140 213 15 q 149 388 149 264 q 181 635 149 513 q 261 852 213 758 q 366 1021 310 946 q 474 1135 422 1096 q 565 1175 526 1175 q 617 1147 604 1175 z "},")":{"ha":658,"x_min":54,"x_max":522,"o":"m 360 945 q 393 894 360 945 q 474 692 426 843 q 522 388 522 542 q 474 83 522 235 q 358 -169 425 -68 q 222 -332 290 -269 q 112 -394 154 -394 q 54 -365 69 -394 q 374 390 374 -46 q 267 858 374 661 q 54 1147 178 1024 q 112 1175 69 1175 q 224 1111 154 1175 q 360 945 293 1047 z "},"*":{"ha":806,"x_min":103,"x_max":703,"o":"m 400 1313 q 478 1204 478 1313 q 440 1053 478 1149 q 628 1147 561 1147 q 681 1128 658 1147 q 703 1068 703 1108 q 644 1003 703 1028 q 465 981 553 963 q 570 895 524 944 q 617 811 617 846 q 594 756 617 776 q 543 735 571 735 q 458 797 496 735 q 401 936 421 858 q 346 797 383 860 q 260 733 308 733 q 210 756 231 733 q 190 813 190 779 q 237 895 190 846 q 339 981 283 944 q 267 978 317 976 q 160 1004 218 979 q 103 1069 103 1029 q 126 1126 103 1108 q 182 1144 150 1144 q 267 1117 214 1144 q 363 1056 319 1090 q 329 1203 329 1147 q 400 1313 329 1313 z "},"+":{"ha":958,"x_min":89,"x_max":868,"o":"m 535 511 q 539 300 539 344 q 447 174 539 174 q 419 179 431 174 l 425 511 l 97 506 q 89 539 89 519 q 214 626 89 626 q 422 622 263 626 q 417 824 417 783 q 506 946 417 946 q 539 938 518 946 l 535 622 l 863 626 q 868 597 868 615 q 742 506 868 506 l 535 511 z "},",":{"ha":406,"x_min":101,"x_max":328,"o":"m 196 -53 q 171 40 196 0 q 101 96 146 79 q 135 158 107 132 q 203 185 164 185 q 294 135 260 185 q 328 13 328 85 q 271 -176 328 -94 q 153 -257 214 -257 q 111 -222 119 -257 q 196 -53 196 -162 z "},"-":{"ha":733,"x_min":83,"x_max":650,"o":"m 217 542 l 644 542 q 650 511 650 532 q 517 418 650 418 l 92 418 q 83 451 83 432 q 217 542 83 542 z "},".":{"ha":510,"x_min":153,"x_max":357,"o":"m 268 199 q 289 199 268 199 q 333 174 310 199 q 357 108 357 150 q 321 30 357 67 q 243 -7 285 -7 q 177 18 201 -7 q 153 85 153 43 q 190 163 153 126 q 268 199 226 199 z "},"/":{"ha":808,"x_min":40,"x_max":706,"o":"m 643 1367 q 706 1344 678 1367 q 665 1269 686 1331 l 190 -94 q 99 -187 163 -187 q 40 -164 68 -187 q 79 -87 58 -146 l 554 1274 q 643 1367 586 1367 z "},":":{"ha":474,"x_min":138,"x_max":343,"o":"m 253 722 q 275 722 253 722 q 319 698 296 722 q 343 631 343 674 q 307 553 343 589 q 229 518 271 518 q 163 542 188 518 q 138 608 138 567 q 174 685 138 649 q 253 722 211 722 m 253 203 q 274 203 253 203 q 319 178 294 203 q 343 112 343 154 q 307 34 343 69 q 228 -1 271 -1 q 162 23 186 -1 q 138 88 138 47 q 175 166 138 129 q 253 203 213 203 z "},";":{"ha":474,"x_min":129,"x_max":354,"o":"m 253 722 q 275 722 253 722 q 319 698 296 722 q 343 631 343 674 q 307 553 343 589 q 229 518 271 518 q 163 542 188 518 q 138 608 138 567 q 174 685 138 649 q 253 722 211 722 m 225 -44 q 199 49 225 8 q 129 108 174 90 q 165 172 136 146 q 232 197 193 197 q 323 148 292 197 q 354 32 354 99 q 299 -165 354 -72 q 182 -257 243 -257 q 140 -222 149 -257 q 225 -44 225 -162 z "},"<":{"ha":964,"x_min":63,"x_max":797,"o":"m 235 588 q 442 464 235 558 q 797 329 649 369 q 769 247 797 276 q 690 217 740 217 q 486 278 639 217 q 198 425 333 340 q 63 560 63 510 q 211 704 63 614 q 520 860 360 794 q 729 926 681 926 q 773 913 753 926 q 793 869 793 900 q 445 725 656 824 q 235 588 235 626 z "},"=":{"ha":1006,"x_min":111,"x_max":894,"o":"m 243 799 l 889 799 q 894 771 894 792 q 761 676 894 676 l 118 676 q 111 710 111 694 q 243 799 111 799 m 243 450 l 889 450 q 894 421 894 439 q 761 326 894 326 l 118 326 q 111 360 111 344 q 243 450 111 450 z "},">":{"ha":946,"x_min":147,"x_max":882,"o":"m 747 425 q 679 383 747 425 q 458 278 611 340 q 254 217 306 217 q 175 247 203 217 q 147 329 147 276 q 503 464 296 369 q 711 588 711 558 q 500 724 711 626 q 151 869 289 822 q 172 913 151 899 q 215 926 192 926 q 424 860 263 926 q 733 704 585 794 q 882 560 882 614 q 747 425 882 510 z "},"?":{"ha":733,"x_min":82,"x_max":646,"o":"m 496 581 q 478 565 496 581 q 438 511 461 549 q 414 439 414 474 q 433 382 414 404 q 486 356 453 360 q 459 305 483 325 q 392 285 435 285 q 314 320 350 285 q 278 408 278 356 q 301 506 278 461 q 356 585 324 550 q 419 656 388 619 q 497 842 497 743 q 458 944 497 900 q 357 988 418 988 q 260 959 296 988 q 225 886 225 931 q 248 810 225 842 q 310 764 271 779 q 279 728 308 747 q 215 708 250 708 q 119 749 156 708 q 82 854 82 790 q 168 1005 82 944 q 373 1065 254 1065 q 569 1003 492 1065 q 646 849 646 940 q 564 650 646 733 q 496 581 531 614 m 390 174 q 410 174 390 174 q 453 152 431 174 q 476 92 476 131 q 441 21 476 54 q 364 -12 406 -12 q 299 10 322 -12 q 276 71 276 33 q 313 141 276 108 q 390 174 349 174 z "},"@":{"ha":1244,"x_min":90,"x_max":1144,"o":"m 486 265 q 571 200 486 200 q 719 268 656 200 l 726 399 q 547 358 607 392 q 486 265 486 322 m 851 236 q 893 190 851 190 q 1012 266 956 190 q 1068 482 1068 342 q 958 758 1068 654 q 674 861 847 861 q 304 717 442 861 q 167 339 167 574 q 197 163 167 239 q 281 43 228 88 q 536 -44 386 -44 q 810 14 686 -44 q 819 -12 819 4 q 783 -53 819 -28 q 524 -112 689 -111 q 226 -7 351 -112 q 127 135 164 46 q 90 339 90 224 q 258 765 90 600 q 679 929 425 929 q 1014 805 883 929 q 1144 500 1144 681 q 1053 215 1144 319 q 844 111 961 111 q 761 135 794 111 q 719 200 728 158 q 515 113 642 113 q 388 150 435 113 q 342 249 342 188 q 443 397 342 343 q 731 456 544 450 l 735 538 q 735 550 735 544 q 713 631 735 603 q 640 658 692 658 q 560 636 589 658 q 532 588 532 614 q 547 542 532 561 q 471 518 511 518 q 410 536 431 518 q 389 582 389 554 q 467 685 389 644 q 649 725 544 725 q 810 678 753 725 q 868 549 868 631 q 868 533 868 542 l 851 244 q 851 236 851 240 z "},"A":{"ha":929,"x_min":36,"x_max":903,"o":"m 314 322 l 614 322 l 474 774 l 314 322 m 810 -12 q 743 8 768 -12 q 699 82 718 29 l 650 224 l 278 224 l 225 88 q 122 -12 188 -12 q 69 3 93 -12 q 36 40 46 18 q 94 117 69 54 l 408 915 q 367 976 392 957 q 450 1015 403 1015 q 520 990 497 1015 q 565 903 543 964 l 838 124 q 903 35 861 57 q 810 -12 876 -12 z "},"B":{"ha":1004,"x_min":113,"x_max":919,"o":"m 854 740 q 808 606 854 660 q 678 528 761 551 q 851 439 782 503 q 919 272 919 375 q 806 65 919 143 q 499 -12 692 -12 q 222 38 306 -12 q 138 193 138 88 l 139 860 q 113 960 139 926 q 462 1015 269 1015 q 754 939 654 1015 q 854 740 854 863 m 481 561 q 644 608 586 561 q 701 734 701 656 q 640 860 701 813 q 470 908 579 908 q 288 888 361 908 l 285 561 l 481 561 m 285 188 q 492 92 285 92 q 694 141 622 92 q 765 275 765 190 q 694 410 765 360 q 490 460 622 460 l 285 460 l 285 188 z "},"C":{"ha":965,"x_min":89,"x_max":868,"o":"m 867 838 q 838 772 867 794 q 769 750 810 750 q 700 765 729 750 q 701 790 701 778 q 665 878 701 840 q 542 917 628 917 q 334 809 422 917 q 246 508 246 701 q 330 217 246 314 q 563 119 414 119 q 717 155 644 119 q 835 239 790 190 q 868 182 868 229 q 766 54 868 121 q 524 -12 664 -12 q 209 122 329 -12 q 89 490 89 256 q 223 869 89 724 q 565 1015 357 1015 q 779 963 692 1015 q 867 838 867 911 z "},"D":{"ha":1035,"x_min":113,"x_max":971,"o":"m 443 1015 q 810 890 657 1015 q 928 728 885 829 q 971 500 971 628 q 928 272 971 372 q 810 111 885 172 q 443 -12 658 -12 q 204 35 271 -12 q 138 182 138 82 l 139 860 q 113 960 139 926 q 443 1015 269 1015 m 443 92 q 710 199 604 92 q 817 500 817 306 q 710 802 817 694 q 443 910 604 910 q 288 886 364 910 l 285 178 q 314 111 285 131 q 443 92 343 92 z "},"E":{"ha":919,"x_min":117,"x_max":836,"o":"m 396 118 l 661 118 q 794 175 746 118 q 836 105 836 154 q 797 28 836 56 q 676 0 758 0 l 382 0 q 210 48 265 0 q 156 203 156 96 l 156 883 q 117 950 156 933 q 232 1004 156 1004 l 678 1004 q 836 919 836 1004 q 794 851 836 872 q 661 885 750 885 l 301 885 l 301 583 l 565 583 q 688 568 651 583 q 724 511 724 553 q 686 446 724 469 q 553 465 643 465 l 301 465 l 301 214 q 324 140 301 163 q 396 118 346 118 z "},"F":{"ha":869,"x_min":117,"x_max":836,"o":"m 232 1004 l 683 1004 q 836 926 836 1004 q 794 858 836 879 q 661 890 750 890 l 301 890 l 301 576 l 565 576 q 688 562 651 576 q 724 510 724 547 q 686 449 724 472 q 553 467 647 467 l 301 467 l 301 103 q 339 36 301 51 q 250 -12 303 -12 q 156 104 156 -12 l 156 883 q 117 950 156 933 q 232 1004 156 1004 z "},"G":{"ha":1024,"x_min":89,"x_max":954,"o":"m 865 -140 q 771 -25 771 -140 l 771 107 q 663 22 731 56 q 510 -12 594 -12 q 213 113 336 -12 q 89 454 89 238 q 233 859 89 703 q 617 1015 378 1015 q 840 960 753 1015 q 928 831 928 906 q 899 769 928 793 q 831 746 869 746 q 763 761 792 746 q 764 779 764 769 q 719 876 764 836 q 585 917 675 917 q 340 802 431 917 q 248 497 249 688 q 325 207 247 307 q 542 107 403 107 q 772 251 703 107 l 774 418 l 703 418 q 544 413 628 418 q 526 465 526 438 q 575 518 526 503 q 738 533 624 533 q 886 509 853 533 q 919 421 919 485 l 917 -25 q 954 -92 917 -75 q 865 -140 922 -140 z "},"H":{"ha":1081,"x_min":101,"x_max":976,"o":"m 939 900 l 939 103 q 976 36 939 51 q 888 -12 940 -12 q 793 104 793 -12 l 793 453 l 285 453 l 285 103 q 322 36 285 53 q 233 -12 289 -12 q 139 104 139 -12 l 139 901 q 101 967 139 950 q 189 1015 133 1015 q 285 900 285 1015 l 285 556 l 793 556 l 793 901 q 756 967 793 950 q 843 1015 788 1015 q 939 900 939 1015 z "},"I":{"ha":428,"x_min":101,"x_max":322,"o":"m 285 900 l 285 103 q 322 36 285 53 q 233 -12 289 -12 q 139 104 139 -12 l 139 901 q 101 967 139 950 q 189 1015 133 1015 q 285 900 285 1015 z "},"J":{"ha":579,"x_min":35,"x_max":472,"o":"m 472 900 l 472 225 q 407 49 472 110 q 242 -12 342 -12 q 89 21 143 -12 q 35 96 35 54 q 56 158 35 138 q 210 107 124 107 q 326 219 326 107 l 326 901 q 289 967 326 951 q 378 1015 322 1015 q 472 900 472 1015 z "},"K":{"ha":944,"x_min":101,"x_max":888,"o":"m 888 81 q 851 14 879 40 q 783 -12 822 -12 q 709 13 744 -12 q 610 106 674 39 l 285 446 l 285 103 q 322 36 285 53 q 233 -12 289 -12 q 139 104 139 -12 l 139 901 q 101 967 139 950 q 189 1015 133 1015 q 285 900 285 1015 l 285 557 l 622 922 q 703 995 671 975 q 775 1015 736 1015 q 840 990 814 1015 q 874 926 865 964 q 768 864 822 915 l 413 518 l 776 143 q 888 81 829 86 z "},"L":{"ha":806,"x_min":107,"x_max":751,"o":"m 144 196 l 144 901 q 107 967 144 950 q 196 1015 142 1015 q 292 900 292 1015 l 292 207 q 314 133 292 156 q 386 111 336 111 l 590 111 q 714 168 672 111 q 751 106 751 153 q 713 30 751 60 q 593 0 674 0 l 365 0 q 197 44 249 0 q 144 196 144 89 z "},"M":{"ha":1333,"x_min":88,"x_max":1232,"o":"m 1232 13 q 1153 -11 1194 -11 q 1088 14 1111 -11 q 1060 97 1065 39 l 1011 840 l 717 54 q 656 10 701 10 q 594 54 610 10 l 304 840 l 256 101 q 232 15 251 42 q 168 -12 213 -12 q 88 24 124 -12 q 119 108 115 47 l 178 892 q 178 907 178 900 q 156 979 178 953 q 281 1015 215 1015 q 382 979 346 1015 q 443 865 418 943 l 667 261 l 897 863 q 967 982 925 949 q 1068 1015 1010 1015 q 1176 990 1126 1015 q 1154 914 1154 960 q 1154 899 1154 907 l 1208 111 q 1232 13 1211 39 z "},"N":{"ha":1103,"x_min":113,"x_max":989,"o":"m 151 104 l 151 901 q 113 967 151 950 q 204 1015 149 1015 q 294 992 260 1015 q 364 914 329 968 l 813 196 l 813 901 q 775 967 813 950 q 864 1015 808 1015 q 960 900 960 1015 l 960 103 q 989 28 960 53 q 903 -12 958 -12 q 805 22 847 -12 q 714 132 763 56 l 297 789 l 297 103 q 335 36 297 51 q 246 -12 299 -12 q 151 104 151 -12 z "},"O":{"ha":1078,"x_min":97,"x_max":979,"o":"m 347 193 q 567 88 433 88 q 772 207 700 88 q 833 453 833 306 q 831 517 833 483 q 732 810 818 704 q 512 917 646 917 q 306 797 378 917 q 244 550 244 697 q 347 193 244 319 m 540 1015 q 644 1015 540 1015 q 864 876 749 1015 q 979 503 979 738 q 863 128 979 269 q 540 -12 747 -12 q 215 128 332 -12 q 97 501 97 268 q 215 875 97 735 q 540 1015 332 1015 z "},"P":{"ha":867,"x_min":96,"x_max":818,"o":"m 429 903 l 279 903 l 279 474 l 429 474 q 597 533 539 474 q 656 688 656 592 q 597 844 656 785 q 429 903 539 903 m 211 1004 l 446 1004 q 714 920 610 1004 q 818 689 818 836 q 714 458 818 542 q 446 374 610 374 l 279 374 l 279 103 q 318 36 279 53 q 228 -12 282 -12 q 133 104 133 -12 l 133 883 q 96 950 133 933 q 211 1004 135 1004 z "},"Q":{"ha":1104,"x_min":113,"x_max":1022,"o":"m 1003 565 q 872 184 1003 335 q 522 -21 740 33 q 672 -117 585 -83 q 849 -151 760 -151 q 1000 -99 938 -151 q 1022 -158 1022 -124 q 1005 -223 1022 -192 q 941 -277 988 -254 q 813 -300 894 -300 q 629 -247 731 -300 q 467 -126 528 -194 q 406 -6 406 -57 q 426 28 406 14 q 506 63 446 43 q 755 238 664 118 q 846 535 846 358 q 759 813 846 711 q 544 914 672 914 q 340 817 415 914 q 265 568 265 719 q 331 336 265 417 q 510 250 397 256 q 469 181 500 208 q 392 153 438 153 q 197 258 282 153 q 113 515 113 363 q 243 872 113 729 q 566 1015 374 1015 q 881 892 758 1015 q 1003 565 1003 768 z "},"R":{"ha":894,"x_min":96,"x_max":863,"o":"m 279 893 l 279 513 l 429 513 q 598 562 540 513 q 656 701 656 611 q 598 842 656 792 q 429 893 540 893 l 279 893 m 756 -12 q 677 10 708 -12 q 603 97 646 33 l 393 403 l 279 403 l 279 103 q 318 36 279 53 q 228 -12 282 -12 q 133 104 133 -12 l 133 883 q 96 950 133 933 q 211 1004 135 1004 l 435 1004 q 703 924 599 1004 q 808 703 808 844 q 740 517 808 590 q 558 417 672 443 l 767 132 q 863 65 807 76 q 756 -12 825 -12 z "},"S":{"ha":918,"x_min":99,"x_max":839,"o":"m 808 821 q 784 753 808 778 q 724 728 760 728 q 649 747 688 728 q 657 793 657 772 q 607 880 657 840 q 467 919 557 919 q 324 883 378 919 q 269 789 269 846 q 312 690 269 732 q 417 621 354 649 q 554 558 481 593 q 691 488 628 522 q 797 400 754 454 q 839 281 839 346 q 728 71 839 154 q 462 -12 618 -12 q 202 53 306 -12 q 99 221 99 119 q 128 299 99 269 q 205 329 158 329 q 283 293 251 329 q 251 215 251 265 q 308 126 251 164 q 461 89 364 89 q 626 136 558 89 q 693 247 693 183 q 634 356 693 310 q 492 435 575 401 q 324 508 408 469 q 181 610 240 547 q 122 753 122 672 q 226 945 122 871 q 476 1019 331 1019 q 715 962 621 1019 q 808 821 808 904 z "},"T":{"ha":803,"x_min":24,"x_max":781,"o":"m 163 1004 l 686 1004 q 781 929 781 1004 q 754 869 781 896 q 642 890 713 890 l 474 890 l 474 103 q 511 36 474 53 q 424 -12 478 -12 q 328 104 328 -12 l 328 890 l 117 890 q 24 965 24 890 q 49 1024 24 999 q 163 1004 89 1004 z "},"U":{"ha":999,"x_min":99,"x_max":900,"o":"m 138 360 l 138 901 q 99 967 138 950 q 188 1015 135 1015 q 282 900 282 1015 l 282 340 q 519 104 282 104 q 756 340 756 104 l 756 901 q 717 967 756 950 q 806 1015 750 1015 q 900 900 900 1015 l 900 360 q 807 86 900 185 q 520 -12 714 -12 q 232 87 326 -12 q 138 360 138 186 z "},"V":{"ha":928,"x_min":8,"x_max":914,"o":"m 750 865 q 767 946 767 913 q 750 999 767 979 q 826 1018 786 1018 q 890 996 867 1018 q 914 938 914 974 q 899 865 914 901 l 592 97 q 542 10 565 32 q 472 -12 519 -12 q 403 10 425 -12 q 358 97 382 32 l 67 885 q 8 965 43 946 q 108 1015 51 1015 q 171 991 146 1015 q 217 910 196 967 l 485 140 l 750 865 z "},"W":{"ha":1382,"x_min":24,"x_max":1353,"o":"m 1211 917 q 1182 985 1211 961 q 1261 1015 1215 1015 q 1353 925 1353 1015 q 1344 865 1353 910 l 1139 100 q 1019 -12 1111 -12 q 901 100 926 -12 l 714 807 l 524 100 q 481 13 510 39 q 403 -12 451 -12 q 327 12 354 -12 q 285 100 300 36 l 82 874 q 24 961 64 943 q 122 1015 58 1015 q 190 988 164 1015 q 231 894 217 961 l 410 142 l 617 928 q 656 996 631 976 q 724 1015 682 1015 q 831 928 810 1015 l 1028 138 l 1206 871 q 1211 917 1211 896 z "},"X":{"ha":893,"x_min":25,"x_max":867,"o":"m 867 72 q 828 11 856 35 q 765 -12 801 -12 q 701 6 728 -12 q 644 68 675 24 l 447 371 l 231 67 q 111 -12 174 -12 q 52 11 75 -12 q 29 74 29 35 q 29 82 29 78 q 110 129 76 82 l 372 486 l 126 861 q 25 929 83 926 q 65 992 36 968 q 131 1015 93 1015 q 195 997 168 1015 q 251 935 222 979 l 471 600 l 678 886 q 704 949 704 922 q 679 994 704 976 q 766 1018 724 1018 q 832 996 808 1018 q 856 935 856 974 q 818 844 856 896 l 546 483 l 769 142 q 867 72 811 76 z "},"Y":{"ha":851,"x_min":18,"x_max":824,"o":"m 444 -11 q 354 111 354 -11 l 356 442 l 101 881 q 18 935 67 933 q 115 1015 42 1015 q 240 925 189 1015 l 440 575 l 644 881 q 671 944 671 917 q 650 994 671 972 q 733 1015 689 1015 q 800 995 776 1015 q 824 939 824 975 q 793 857 824 903 l 501 444 l 500 97 q 524 13 500 43 q 444 -11 489 -11 z "},"Z":{"ha":874,"x_min":63,"x_max":807,"o":"m 807 97 q 617 0 807 0 l 199 0 q 100 31 138 0 q 63 115 63 63 q 126 235 63 167 l 667 890 q 267 864 454 864 q 81 961 81 864 q 107 1024 81 997 q 264 1004 164 1004 l 671 1004 q 768 972 731 1004 q 806 890 806 940 q 742 767 806 839 l 204 111 l 629 132 q 779 168 728 136 q 807 97 807 140 z "},"[":{"ha":568,"x_min":92,"x_max":492,"o":"m 238 -168 l 386 -168 q 492 -242 492 -168 q 486 -267 492 -258 l 232 -267 q 128 -236 161 -267 q 92 -124 92 -201 l 92 1257 l 386 1257 q 492 1182 492 1257 q 486 1156 492 1167 l 238 1156 l 238 -168 z "},"\\":{"ha":808,"x_min":89,"x_max":754,"o":"m 150 1378 q 239 1285 207 1378 q 494 556 332 1028 q 714 -75 657 83 q 754 -151 736 -137 q 694 -175 728 -175 q 603 -81 635 -175 q 427 425 561 38 q 128 1282 293 813 q 89 1357 107 1343 q 150 1378 115 1378 z "},"]":{"ha":568,"x_min":93,"x_max":493,"o":"m 347 1157 l 200 1157 q 93 1231 93 1157 q 99 1257 93 1235 l 353 1257 q 456 1226 424 1257 q 493 1113 493 1192 l 493 -267 l 200 -267 q 93 -193 93 -267 q 99 -168 93 -190 l 347 -168 l 347 1157 z "},"^":{"ha":858,"x_min":89,"x_max":769,"o":"m 710 321 q 611 413 656 321 l 419 793 l 178 329 q 115 351 142 329 q 89 415 89 374 q 121 514 89 456 l 336 900 q 416 963 371 963 q 489 901 461 963 l 769 346 q 710 321 739 321 z "},"_":{"ha":818,"x_min":-1,"x_max":818,"o":"m 131 -110 l 814 -110 q 818 -139 818 -121 q 686 -233 818 -233 l 6 -233 q -1 -200 -1 -217 q 131 -110 -1 -110 z "},"`":{"ha":342,"x_min":17,"x_max":325,"o":"m 318 953 q 283 957 306 957 q 231 931 260 957 l 104 813 q 56 789 78 789 q 17 815 29 789 l 124 981 q 181 1051 154 1031 q 250 1071 208 1071 q 313 1036 292 1071 q 325 995 325 1017 q 318 953 325 974 z "},"a":{"ha":749,"x_min":69,"x_max":699,"o":"m 226 181 q 324 92 226 92 q 483 174 421 92 l 483 331 q 289 283 351 324 q 226 181 226 242 m 629 493 l 629 140 q 699 49 629 63 q 592 -12 664 -12 q 485 92 499 -12 q 269 -12 404 -12 q 125 35 181 -12 q 69 165 69 82 q 175 331 69 268 q 483 400 281 394 l 483 497 q 456 608 483 572 q 373 643 429 643 q 288 619 317 643 q 258 560 258 594 q 278 506 258 526 q 197 475 243 475 q 126 498 151 475 q 100 561 100 521 q 181 678 100 631 q 376 725 261 725 q 560 665 490 725 q 629 493 629 606 z "},"b":{"ha":814,"x_min":79,"x_max":765,"o":"m 263 222 q 407 86 263 86 q 560 161 504 86 q 617 359 617 236 q 563 548 617 482 q 432 614 510 614 q 263 497 321 614 l 263 222 m 264 949 l 264 622 q 465 725 339 725 q 678 633 590 725 q 765 371 765 542 q 662 94 765 200 q 401 -12 558 -11 q 117 222 117 -12 l 118 950 q 79 1018 118 1000 q 169 1065 114 1065 q 264 949 264 1065 z "},"c":{"ha":694,"x_min":68,"x_max":635,"o":"m 635 582 q 611 522 635 543 q 552 500 588 500 q 493 517 517 500 q 497 559 497 531 q 474 610 497 588 q 406 632 451 632 q 272 556 331 632 q 213 353 213 479 q 270 164 213 228 q 414 100 328 100 q 607 176 531 100 q 628 132 628 165 q 556 33 628 79 q 390 -12 485 -12 q 160 78 251 -12 q 68 332 68 168 q 172 610 68 496 q 431 725 276 725 q 577 684 519 725 q 635 582 635 643 z "},"d":{"ha":807,"x_min":58,"x_max":729,"o":"m 546 576 q 410 629 493 629 q 269 555 328 629 q 211 351 211 481 q 261 156 211 221 q 392 92 311 92 q 546 213 511 92 l 546 576 m 692 949 l 692 103 q 729 36 692 53 q 640 -12 693 -12 q 546 86 553 -12 q 359 -12 483 -12 q 147 81 235 -12 q 58 341 58 175 q 155 616 58 507 q 396 725 251 725 q 546 690 476 725 l 546 950 q 507 1018 546 999 q 596 1065 540 1065 q 692 949 692 1065 z "},"e":{"ha":697,"x_min":68,"x_max":650,"o":"m 447 438 q 501 500 501 442 q 470 597 501 558 q 382 635 439 635 q 278 578 325 635 q 221 417 232 521 l 447 438 m 217 343 q 274 156 218 217 q 434 96 331 96 q 615 174 538 96 q 639 131 639 161 q 568 33 639 79 q 401 -12 497 -12 q 160 77 251 -12 q 68 332 68 167 q 168 611 68 497 q 406 725 268 725 q 582 652 514 725 q 650 486 650 579 q 615 386 650 418 q 497 353 579 354 l 217 343 z "},"f":{"ha":508,"x_min":43,"x_max":561,"o":"m 167 654 l 167 838 q 228 1006 167 947 q 378 1065 290 1065 q 513 1031 465 1065 q 561 953 561 996 q 532 903 561 911 q 413 963 479 963 q 313 840 313 963 l 313 654 l 517 654 q 525 628 525 643 q 481 574 525 597 q 333 551 436 551 l 313 551 l 313 -161 q 272 -305 313 -257 q 167 -353 231 -353 q 43 -265 78 -353 q 140 -235 113 -265 q 167 -132 167 -204 l 167 553 q 44 613 44 560 q 67 660 44 640 q 158 654 111 654 l 167 654 z "},"g":{"ha":778,"x_min":40,"x_max":764,"o":"m 279 301 q 301 271 279 301 q 382 242 324 242 q 474 292 440 242 q 508 422 508 342 q 463 593 508 536 q 360 650 418 650 q 269 601 303 650 q 235 476 235 551 q 279 301 235 360 m 522 -64 l 332 -64 q 165 -26 231 -64 q 99 95 99 13 q 199 222 99 178 q 89 438 89 301 q 173 649 89 574 q 372 725 257 725 q 522 685 454 725 q 571 801 531 757 q 660 844 611 844 q 737 819 710 844 q 764 750 764 793 q 731 688 764 707 q 663 711 699 711 q 579 640 599 711 q 654 441 654 563 q 570 244 654 319 q 372 168 486 168 q 269 185 319 168 q 218 131 218 169 q 248 85 218 99 q 344 72 278 72 l 513 72 q 667 26 614 72 q 721 -101 721 -21 q 616 -280 721 -208 q 357 -351 511 -351 q 122 -298 203 -351 q 40 -172 40 -244 q 68 -101 40 -128 q 136 -69 96 -74 q 379 -237 143 -237 q 551 -206 490 -237 q 611 -124 611 -175 q 522 -64 611 -64 z "},"h":{"ha":842,"x_min":83,"x_max":765,"o":"m 726 482 l 726 103 q 765 36 726 53 q 676 -12 729 -12 q 582 104 582 -12 l 582 468 q 464 603 582 603 q 345 550 401 603 q 267 407 289 497 l 267 103 q 306 36 267 53 q 217 -12 269 -12 q 122 104 122 -12 l 122 950 q 83 1018 122 999 q 172 1065 117 1065 q 267 949 267 1065 l 267 561 q 369 681 303 636 q 525 725 436 725 q 670 664 614 725 q 726 482 726 603 z "},"i":{"ha":385,"x_min":83,"x_max":306,"o":"m 200 1036 q 220 1036 200 1036 q 267 1012 240 1036 q 294 947 294 988 q 260 874 294 907 q 181 842 225 842 q 111 867 138 842 q 85 934 85 892 q 122 1006 85 976 q 200 1036 160 1036 m 267 607 l 267 103 q 306 36 267 53 q 217 -12 269 -12 q 122 104 122 -12 l 122 608 q 83 676 122 657 q 172 725 119 725 q 267 607 267 725 z "},"j":{"ha":385,"x_min":-3,"x_max":294,"o":"m 267 607 l 267 -161 q 226 -305 267 -257 q 122 -353 185 -353 q -3 -265 33 -353 q 96 -235 69 -265 q 122 -132 122 -204 l 122 608 q 83 676 122 657 q 172 725 119 725 q 267 607 267 725 m 200 1036 q 220 1036 200 1036 q 267 1012 240 1036 q 294 947 294 988 q 260 874 294 907 q 181 842 225 842 q 111 867 138 842 q 85 934 85 892 q 122 1006 85 976 q 200 1036 160 1036 z "},"k":{"ha":786,"x_min":83,"x_max":736,"o":"m 267 949 l 267 424 q 557 725 557 553 q 653 697 617 725 q 690 624 690 669 q 608 490 690 551 q 379 382 525 428 q 606 156 535 199 q 672 122 646 129 q 736 115 699 115 q 708 23 736 58 q 629 -12 679 -12 q 491 59 561 -12 q 267 347 421 131 l 267 103 q 306 36 267 53 q 217 -12 269 -12 q 122 104 122 -12 l 122 950 q 83 1018 122 999 q 172 1065 117 1065 q 267 949 267 1065 z "},"l":{"ha":389,"x_min":83,"x_max":306,"o":"m 267 949 l 267 103 q 306 36 267 53 q 217 -12 269 -12 q 122 104 122 -12 l 122 950 q 83 1018 122 999 q 172 1065 117 1065 q 267 949 267 1065 z "},"m":{"ha":1304,"x_min":83,"x_max":1224,"o":"m 1186 482 l 1186 103 q 1224 36 1186 53 q 1136 -12 1192 -12 q 1040 104 1040 -12 l 1040 468 q 924 603 1040 603 q 805 550 861 603 q 726 407 749 497 l 726 103 q 765 36 726 53 q 676 -12 729 -12 q 582 104 582 -12 l 582 468 q 464 603 582 603 q 345 550 401 603 q 267 407 289 497 l 267 103 q 306 36 267 53 q 217 -12 269 -12 q 122 104 122 -12 l 122 608 q 83 676 122 657 q 172 725 119 725 q 267 607 267 725 l 267 561 q 369 681 303 636 q 517 725 436 725 q 652 681 599 725 q 721 550 706 636 q 824 677 754 629 q 983 725 893 725 q 1130 663 1074 725 q 1186 482 1186 601 z "},"n":{"ha":842,"x_min":83,"x_max":765,"o":"m 726 482 l 726 103 q 765 36 726 53 q 676 -12 729 -12 q 582 104 582 -12 l 582 468 q 464 603 582 603 q 345 550 401 603 q 267 407 289 497 l 267 103 q 306 36 267 53 q 217 -12 269 -12 q 122 104 122 -12 l 122 608 q 83 676 122 657 q 172 725 119 725 q 267 607 267 725 l 267 561 q 369 681 303 636 q 525 725 436 725 q 670 664 614 725 q 726 482 726 603 z "},"o":{"ha":813,"x_min":68,"x_max":744,"o":"m 539 566 q 510 602 539 566 q 394 639 481 639 q 261 575 307 639 q 215 392 215 511 q 275 147 215 221 q 421 72 335 72 q 552 138 507 72 q 597 321 597 203 q 539 566 597 493 m 68 356 q 68 444 68 356 q 165 628 68 532 q 406 725 263 725 q 647 628 550 725 q 744 356 744 531 q 647 84 744 181 q 407 -12 550 -12 q 166 84 264 -12 q 68 356 68 181 z "},"p":{"ha":819,"x_min":83,"x_max":765,"o":"m 432 90 q 563 163 508 90 q 617 356 617 235 q 563 545 617 476 q 432 614 510 614 q 267 504 322 614 l 267 179 q 432 90 326 90 m 122 -235 l 122 608 q 83 676 122 657 q 172 725 119 725 q 267 625 258 725 q 465 725 340 725 q 678 628 590 725 q 765 357 765 532 q 669 85 765 182 q 446 -12 574 -12 q 267 60 342 -12 l 267 -236 q 306 -303 267 -286 q 217 -353 269 -353 q 122 -235 122 -353 z "},"q":{"ha":792,"x_min":58,"x_max":729,"o":"m 546 478 q 507 589 546 549 q 410 629 468 629 q 268 555 325 629 q 211 351 211 481 q 265 156 211 222 q 403 89 318 89 q 546 171 488 89 l 546 478 m 692 725 l 692 -236 q 729 -303 692 -286 q 640 -353 693 -353 q 546 -235 546 -353 l 546 61 q 360 -12 475 -12 q 152 83 246 -12 q 58 341 58 178 q 153 615 58 504 q 392 725 249 725 q 554 656 488 725 q 653 725 576 725 l 692 725 z "},"r":{"ha":614,"x_min":83,"x_max":599,"o":"m 267 607 l 267 579 q 457 725 322 725 q 561 690 524 725 q 599 605 599 656 q 573 527 599 554 q 506 500 547 500 q 471 504 504 500 q 475 549 475 525 q 456 592 475 574 q 400 611 438 611 q 323 570 363 611 q 267 442 283 529 l 267 103 q 306 36 267 53 q 217 -12 269 -12 q 122 104 122 -12 l 122 608 q 83 676 122 657 q 172 725 119 725 q 267 607 267 725 z "},"s":{"ha":707,"x_min":68,"x_max":642,"o":"m 624 578 q 600 523 624 543 q 540 503 576 503 q 474 524 503 503 q 481 565 481 538 q 451 615 481 593 q 366 638 422 638 q 276 613 310 638 q 243 551 243 588 q 284 484 243 514 q 383 428 325 454 q 501 374 442 403 q 601 299 560 344 q 642 197 642 253 q 559 48 642 108 q 352 -12 476 -12 q 149 34 228 -12 q 68 153 69 81 q 96 224 68 199 q 165 250 124 250 q 232 219 206 250 q 211 158 211 194 q 247 99 211 122 q 348 75 282 75 q 454 103 414 75 q 494 172 494 131 q 453 245 494 214 q 355 301 413 276 q 239 354 297 326 q 140 425 181 382 q 99 522 99 468 q 176 666 99 607 q 361 725 253 725 q 547 684 469 725 q 624 578 624 643 z "},"t":{"ha":567,"x_min":15,"x_max":538,"o":"m 271 610 l 271 189 q 290 117 271 139 q 351 96 308 96 q 507 167 436 96 q 538 117 538 161 q 474 30 538 72 q 319 -12 411 -12 q 176 35 226 -12 q 125 178 125 83 l 125 610 q 42 628 68 611 q 15 674 15 646 q 36 717 15 701 q 110 711 75 711 l 125 711 l 125 803 q 86 869 125 853 q 174 918 119 918 q 271 801 271 918 l 271 711 l 496 711 q 504 686 504 699 q 288 610 504 610 l 271 610 z "},"u":{"ha":842,"x_min":83,"x_max":765,"o":"m 726 607 l 726 103 q 765 36 726 53 q 676 -12 729 -12 q 582 104 582 -12 l 582 114 q 364 -12 507 -12 q 185 48 249 -12 q 122 229 122 108 l 122 608 q 83 676 122 657 q 172 725 119 725 q 267 607 267 725 l 267 240 q 401 106 267 106 q 510 141 463 106 q 582 243 557 176 l 582 608 q 543 676 582 657 q 632 725 582 725 q 726 607 726 725 z "},"v":{"ha":738,"x_min":24,"x_max":706,"o":"m 551 575 q 565 644 565 611 q 546 700 565 676 q 621 725 582 725 q 683 703 660 725 q 706 648 706 681 q 688 567 706 615 l 504 107 q 451 15 479 42 q 372 -11 424 -11 q 292 15 321 -11 q 242 107 263 42 l 82 590 q 24 656 63 646 q 56 706 29 686 q 117 725 83 725 q 229 619 201 725 l 375 86 l 551 575 z "},"w":{"ha":1114,"x_min":24,"x_max":1086,"o":"m 946 594 q 953 657 953 626 q 936 706 953 688 q 1014 725 971 725 q 1076 683 1057 725 q 1086 636 1086 663 q 1078 579 1086 610 l 947 107 q 901 15 929 42 q 819 -12 872 -12 q 737 16 767 -12 q 692 107 707 44 l 582 539 l 475 107 q 428 15 458 43 q 342 -12 397 -12 q 256 15 286 -12 q 210 107 226 42 l 83 583 q 24 656 68 646 q 121 725 46 725 q 231 610 207 725 l 343 100 l 475 621 q 517 701 490 678 q 592 725 544 725 q 667 701 639 725 q 708 621 696 678 l 832 92 l 946 594 z "},"x":{"ha":718,"x_min":31,"x_max":694,"o":"m 586 -12 q 467 68 522 -12 l 347 239 l 229 63 q 115 -12 181 -12 q 60 8 85 -12 q 31 60 36 28 q 104 115 69 68 l 271 347 l 106 582 q 31 653 63 646 q 60 706 36 686 q 117 725 83 725 q 233 650 179 725 l 367 458 l 501 656 q 608 725 547 725 q 665 705 640 725 q 694 653 690 685 q 619 596 651 640 l 442 349 l 604 115 q 682 51 635 69 q 647 5 672 22 q 586 -12 621 -12 z "},"y":{"ha":776,"x_min":44,"x_max":754,"o":"m 597 594 q 608 653 608 625 q 592 703 608 682 q 668 725 622 725 q 742 682 714 725 q 754 633 754 661 q 740 568 754 604 l 458 -174 q 263 -353 390 -353 q 181 -327 211 -353 q 151 -262 151 -301 q 174 -197 151 -224 q 243 -226 200 -226 q 336 -140 307 -226 l 382 -12 q 378 -12 381 -12 q 312 13 342 -12 q 267 85 282 38 l 93 601 q 44 681 72 665 q 128 725 81 725 q 200 699 175 725 q 240 615 225 672 l 413 75 l 597 594 z "},"z":{"ha":701,"x_min":81,"x_max":636,"o":"m 633 82 q 467 0 633 0 l 200 0 q 112 28 143 0 q 81 103 81 57 q 133 201 81 149 l 511 608 q 253 588 349 588 q 86 672 86 588 q 108 728 86 706 q 247 711 161 711 l 517 711 q 605 683 574 711 q 636 608 636 654 q 583 508 636 563 l 211 103 l 472 114 q 610 151 561 115 q 633 82 633 128 z "},"{":{"ha":617,"x_min":115,"x_max":483,"o":"m 329 1069 q 344 881 329 1026 q 358 692 358 736 q 346 614 358 649 q 315 558 333 579 q 278 519 297 536 q 225 492 242 492 q 297 447 247 488 q 340 385 322 425 q 358 296 358 344 q 344 98 358 247 q 329 -96 329 -51 q 372 -224 329 -176 q 483 -283 414 -272 q 381 -324 454 -324 q 248 -258 308 -324 q 188 -61 188 -192 q 202 118 188 -8 q 217 297 217 244 q 201 386 217 350 q 166 437 185 422 q 131 466 147 451 q 115 493 115 481 q 131 519 115 506 q 166 547 147 533 q 201 598 185 561 q 217 687 217 635 q 202 861 217 739 q 188 1033 188 983 q 248 1231 188 1164 q 381 1297 308 1297 q 483 1257 454 1297 q 372 1199 414 1247 q 329 1069 329 1150 z "},"|":{"ha":428,"x_min":101,"x_max":322,"o":"m 285 1161 l 285 -146 q 322 -212 285 -196 q 233 -261 289 -261 q 139 -144 139 -261 l 139 1163 q 101 1229 139 1211 q 189 1276 132 1276 q 285 1161 285 1276 z "},"}":{"ha":617,"x_min":115,"x_max":483,"o":"m 410 1033 q 395 861 410 983 q 381 687 381 739 q 397 598 381 635 q 432 547 413 561 q 467 519 451 533 q 483 493 483 506 q 467 466 483 481 q 432 437 451 451 q 397 386 413 422 q 381 297 381 350 q 395 118 381 244 q 410 -61 410 -8 q 349 -258 410 -192 q 217 -324 289 -324 q 115 -283 144 -324 q 226 -224 183 -272 q 268 -96 268 -176 q 254 98 268 -51 q 240 296 240 247 q 258 385 240 344 q 303 447 276 425 q 374 492 351 488 q 329 514 357 492 q 283 558 301 536 q 240 690 240 608 q 254 881 240 736 q 268 1069 268 1026 q 226 1199 268 1150 q 115 1257 183 1247 q 217 1297 144 1297 q 350 1231 290 1297 q 410 1033 410 1164 z "},"~":{"ha":958,"x_min":131,"x_max":800,"o":"m 669 574 q 758 650 751 574 q 800 578 800 632 q 757 486 800 524 q 651 449 714 449 q 447 490 588 449 q 265 532 307 532 q 200 512 224 532 q 174 457 176 492 q 131 526 131 469 q 174 619 131 582 q 278 657 217 657 q 482 615 340 657 q 669 574 624 574 z "},"¡":{"ha":464,"x_min":139,"x_max":329,"o":"m 315 -199 q 317 -247 317 -215 q 294 -315 317 -279 q 227 -351 271 -351 q 161 -315 183 -351 q 139 -225 139 -278 q 140 -199 139 -212 l 169 354 q 239 456 179 456 q 282 436 265 456 q 274 366 274 404 q 278 289 274 328 l 315 -199 m 225 557 q 206 557 225 557 q 165 578 188 557 q 143 638 143 600 q 176 710 143 676 q 248 743 210 743 q 308 721 286 743 q 329 660 329 699 q 296 589 329 621 q 225 557 263 557 z "},"¢":{"ha":694,"x_min":68,"x_max":635,"o":"m 467 797 l 467 724 q 588 676 542 715 q 635 590 635 638 q 611 522 635 543 q 552 500 588 500 q 493 517 517 500 q 497 559 497 531 q 474 610 497 588 q 406 632 451 632 q 272 556 331 632 q 213 353 213 479 q 270 164 213 228 q 414 100 328 100 q 607 176 531 100 q 628 126 628 165 q 572 44 628 86 q 435 -10 515 1 l 435 -87 q 472 -154 435 -136 q 383 -203 436 -203 q 288 -86 288 -203 l 288 1 q 128 115 188 32 q 68 331 68 199 q 138 566 68 463 q 321 707 208 669 l 321 799 q 282 865 321 849 q 371 914 318 914 q 467 797 467 914 z "},"£":{"ha":865,"x_min":57,"x_max":842,"o":"m 160 563 l 256 563 q 251 704 251 675 q 342 929 251 843 q 540 1015 433 1015 q 702 970 647 1015 q 757 867 757 925 q 730 799 757 826 q 658 767 703 772 q 610 873 646 828 q 519 918 574 918 q 435 871 464 918 q 407 751 407 824 q 413 563 407 679 l 658 563 q 663 540 663 556 q 560 468 663 468 l 417 468 l 417 406 q 399 267 417 342 q 338 165 381 193 q 497 138 381 161 q 691 115 613 115 q 829 167 769 115 q 842 117 842 147 q 796 27 842 67 q 671 -12 750 -12 q 452 12 592 -12 q 234 36 313 36 q 97 -11 156 36 q 83 44 83 8 q 116 114 83 79 q 206 161 149 149 q 233 194 224 178 q 263 339 263 240 q 260 468 263 438 l 63 468 q 57 493 57 485 q 160 563 57 563 z "},"¤":{"ha":913,"x_min":90,"x_max":822,"o":"m 472 310 q 589 357 550 310 q 628 488 628 404 q 573 678 628 622 q 442 735 518 735 q 286 556 286 735 q 288 522 286 540 q 472 310 303 310 m 713 679 q 750 519 750 613 q 706 354 750 425 l 822 242 q 774 199 811 206 q 742 190 758 190 q 664 232 706 190 l 622 272 q 458 229 553 229 q 289 274 363 229 l 247 232 q 168 192 204 192 q 139 199 153 192 q 90 242 101 206 l 206 354 q 161 519 161 425 q 200 681 161 614 l 90 789 q 139 833 101 826 q 169 842 154 842 q 249 799 206 842 l 281 767 q 456 815 357 815 q 632 767 556 815 l 663 799 q 743 842 706 842 q 774 833 758 842 q 822 789 808 826 l 713 679 z "},"¥":{"ha":889,"x_min":18,"x_max":824,"o":"m 644 881 q 671 944 671 917 q 650 994 671 972 q 733 1015 689 1015 q 800 995 776 1015 q 824 939 824 975 q 793 857 824 903 l 569 540 l 765 540 q 771 518 771 529 q 661 446 771 446 l 503 446 l 501 444 l 501 339 l 765 339 q 771 315 771 328 q 661 244 771 244 l 500 244 l 500 97 q 524 13 500 43 q 444 -11 489 -11 q 354 111 354 -11 l 354 244 l 100 244 q 94 268 94 253 q 204 339 94 339 l 356 339 l 356 442 l 353 446 l 100 446 q 94 471 94 454 q 204 540 94 540 l 299 540 l 101 881 q 18 935 67 933 q 115 1015 42 1015 q 240 925 189 1015 l 440 575 l 644 881 z "},"¦":{"ha":428,"x_min":103,"x_max":324,"o":"m 286 333 l 286 -12 q 324 -79 286 -62 q 236 -128 290 -128 q 142 -11 142 -128 l 142 335 q 103 400 142 383 q 192 449 136 449 q 286 333 286 449 m 286 1075 l 286 731 q 324 663 286 681 q 236 615 290 615 q 142 731 142 615 l 142 1076 q 103 1143 142 1126 q 192 1192 138 1192 q 286 1075 286 1192 z "},"§":{"ha":918,"x_min":132,"x_max":804,"o":"m 288 249 q 341 135 288 185 q 470 51 394 86 q 622 -23 546 15 q 751 -122 697 -61 q 804 -262 804 -183 q 704 -472 804 -389 q 463 -556 604 -556 q 227 -490 322 -556 q 132 -321 132 -424 q 163 -242 132 -272 q 239 -212 193 -212 q 310 -249 285 -212 q 282 -332 282 -285 q 331 -416 282 -379 q 466 -453 379 -453 q 613 -406 553 -453 q 672 -298 672 -358 q 619 -194 672 -237 q 490 -117 565 -151 q 338 -42 414 -82 q 209 63 263 -3 q 156 214 156 128 q 204 354 156 300 q 321 408 253 408 q 388 393 354 408 q 288 249 288 351 m 776 817 q 754 749 776 774 q 692 725 732 725 q 625 744 653 725 q 632 789 632 769 q 586 876 632 838 q 460 915 540 915 q 333 881 379 915 q 288 787 288 846 q 341 682 288 728 q 470 599 394 636 q 622 522 546 563 q 751 417 697 481 q 804 271 804 353 q 749 132 804 189 q 629 75 694 75 q 557 92 590 75 q 642 152 611 110 q 672 249 672 194 q 619 351 672 304 q 490 433 565 399 q 338 506 414 468 q 209 606 263 544 q 156 749 156 668 q 249 941 156 867 q 475 1015 343 1015 q 692 958 607 1015 q 776 817 776 900 z "},"¨":{"ha":438,"x_min":17,"x_max":421,"o":"m 114 994 q 131 994 114 994 q 169 974 149 994 q 189 917 189 953 q 158 851 189 882 q 92 821 128 821 q 37 842 57 821 q 17 898 17 863 q 48 964 17 933 q 114 994 79 994 m 346 994 q 363 994 346 994 q 401 974 381 994 q 421 917 421 953 q 390 851 421 882 q 324 821 360 821 q 269 842 289 821 q 249 898 249 863 q 280 964 249 933 q 346 994 311 994 z "},"©":{"ha":1207,"x_min":100,"x_max":1107,"o":"m 831 703 q 809 651 831 671 q 756 632 788 632 q 703 646 725 632 q 706 669 706 660 q 681 731 706 706 q 614 757 657 757 q 492 683 538 757 q 446 500 446 610 q 498 332 446 390 q 631 274 550 274 q 807 360 736 274 q 828 321 828 351 q 761 223 828 271 q 603 175 694 175 q 397 260 476 175 q 318 487 318 346 q 409 735 318 628 q 635 842 500 842 q 774 802 717 842 q 831 703 831 763 m 603 954 q 507 954 603 954 q 292 823 410 954 q 175 499 175 692 q 292 178 175 307 q 602 49 408 49 q 913 178 796 49 q 1031 499 1031 307 q 914 823 1031 692 q 603 954 797 954 m 964 870 q 1035 797 964 870 q 1107 499 1107 724 q 964 131 1107 274 q 603 -12 821 -12 q 243 131 386 -12 q 100 499 100 274 q 243 870 100 724 q 603 1017 386 1017 q 964 870 821 1017 z "},"ª":{"ha":749,"x_min":69,"x_max":699,"o":"m 226 181 q 324 92 226 92 q 483 174 421 92 l 483 331 q 289 283 351 324 q 226 181 226 242 m 629 493 l 629 140 q 699 49 629 63 q 592 -12 664 -12 q 485 92 499 -12 q 269 -12 404 -12 q 125 35 181 -12 q 69 165 69 82 q 175 331 69 268 q 483 400 281 394 l 483 497 q 456 608 483 572 q 373 643 429 643 q 288 619 317 643 q 258 560 258 594 q 278 506 258 526 q 197 475 243 475 q 126 498 151 475 q 100 561 100 521 q 181 678 100 631 q 376 725 261 725 q 560 665 490 725 q 629 493 629 606 z "},"«":{"ha":840,"x_min":92,"x_max":749,"o":"m 432 882 q 293 694 333 764 q 253 562 253 624 q 294 428 253 500 q 432 243 335 357 q 387 214 419 214 q 283 278 354 214 q 151 428 211 343 q 92 562 92 513 q 151 697 92 611 q 283 847 211 782 q 387 911 354 911 q 432 882 419 911 m 749 882 q 610 693 650 763 q 569 562 569 624 q 610 429 569 500 q 749 243 651 358 q 704 214 736 214 q 600 278 672 214 q 468 428 528 343 q 408 562 408 513 q 468 697 408 611 q 600 847 528 782 q 704 911 672 911 q 749 882 736 911 z "},"¬":{"ha":1067,"x_min":76,"x_max":981,"o":"m 943 564 l 943 419 q 981 351 943 369 q 892 303 947 303 q 797 419 797 303 l 797 526 q 788 552 797 546 q 760 558 779 558 l 85 558 q 76 590 76 579 q 192 665 76 665 l 825 665 q 916 642 889 665 q 943 564 943 618 z "},"®":{"ha":939,"x_min":93,"x_max":844,"o":"m 406 940 l 406 776 l 458 776 q 558 858 558 776 q 458 940 558 940 l 406 940 m 665 560 q 607 525 650 525 q 532 575 564 525 l 433 718 l 404 718 l 404 579 q 422 547 404 556 q 372 525 403 525 q 322 579 322 525 l 322 944 q 307 975 322 964 q 358 999 324 999 l 465 999 q 595 960 544 999 q 646 865 646 922 q 613 772 646 807 q 524 724 581 736 l 622 592 q 665 560 639 567 m 151 756 q 151 686 151 756 q 238 522 151 617 q 469 426 325 426 q 699 522 613 426 q 786 756 786 617 q 700 990 786 896 q 471 1085 614 1085 q 240 990 328 1085 q 151 756 151 894 m 93 756 q 93 840 93 756 q 199 1031 93 925 q 469 1136 306 1136 q 738 1031 632 1136 q 844 756 844 925 q 739 481 844 586 q 469 376 633 376 q 199 481 306 376 q 93 756 93 586 z "},"¯":{"ha":524,"x_min":17,"x_max":507,"o":"m 99 931 l 499 931 q 507 899 507 919 q 484 861 507 878 q 425 844 461 844 l 25 844 q 17 877 17 856 q 39 915 17 899 q 99 931 61 931 z "},"°":{"ha":883,"x_min":93,"x_max":538,"o":"m 156 1125 q 188 1155 156 1125 q 317 1185 219 1185 q 476 1126 414 1185 q 538 972 538 1067 q 474 816 538 876 q 315 756 411 756 q 156 815 218 756 q 93 970 93 875 q 156 1125 93 1065 m 197 972 q 197 945 197 972 q 231 883 197 918 q 316 849 264 849 q 400 883 368 849 q 432 970 432 917 q 399 1058 432 1024 q 315 1093 367 1093 q 230 1059 263 1093 q 197 972 197 1025 z "},"±":{"ha":997,"x_min":103,"x_max":896,"o":"m 556 601 q 560 433 560 472 q 468 307 560 307 q 440 313 451 307 l 446 601 l 118 597 q 110 629 110 608 q 235 718 110 718 l 443 713 q 436 869 439 826 q 526 992 436 992 q 560 983 539 992 l 556 713 l 882 718 q 889 688 889 707 q 763 597 889 597 q 556 601 714 597 m 235 222 l 890 222 q 896 193 896 213 q 764 100 896 100 l 111 100 q 103 133 103 121 q 235 222 103 222 z "},"²":{"ha":546,"x_min":53,"x_max":494,"o":"m 369 429 l 125 429 q 69 447 86 429 q 53 478 53 464 q 54 500 53 492 q 279 695 208 617 q 350 853 350 774 q 254 957 350 957 q 190 938 214 957 q 167 888 167 919 q 204 839 167 857 q 142 808 181 808 q 78 829 103 808 q 54 883 54 850 q 114 978 54 938 q 261 1019 174 1019 q 406 972 349 1019 q 463 844 463 924 q 389 685 463 765 q 160 507 315 604 q 374 517 253 517 q 494 457 494 517 q 474 418 494 439 q 369 429 439 429 z "},"³":{"ha":542,"x_min":57,"x_max":485,"o":"m 285 1015 q 321 1015 285 1015 q 406 982 357 1015 q 454 900 454 949 q 413 815 454 851 q 311 764 372 779 q 435 709 386 753 q 485 597 485 665 q 413 476 485 528 q 258 425 340 425 q 116 457 175 425 q 57 536 57 489 q 74 578 57 561 q 110 599 92 596 q 276 508 153 508 q 351 530 322 508 q 379 598 379 551 q 335 676 379 644 q 214 707 292 707 q 163 701 193 707 q 151 724 151 707 q 181 758 151 740 q 247 787 211 775 q 313 820 283 799 q 343 872 343 842 q 315 919 343 901 q 237 936 288 936 q 129 899 186 936 q 113 910 119 900 q 106 932 106 921 q 160 988 106 960 q 285 1015 214 1015 z "},"´":{"ha":354,"x_min":18,"x_max":339,"o":"m 339 817 q 303 790 328 790 q 251 810 278 790 l 115 917 q 64 939 86 939 q 26 932 42 939 q 18 976 18 956 q 28 1015 18 997 q 88 1054 47 1054 q 157 1037 129 1054 q 218 972 185 1019 l 339 817 z "},"µ":{"ha":846,"x_min":83,"x_max":765,"o":"m 726 607 l 726 103 q 765 36 726 53 q 676 -12 729 -12 q 582 104 582 -12 l 582 114 q 372 -12 507 -12 q 267 14 311 -12 l 267 -132 q 306 -200 267 -182 q 217 -249 269 -249 q 122 -132 122 -249 l 122 608 q 83 676 122 657 q 172 725 119 725 q 267 607 267 725 l 267 240 q 401 106 267 106 q 510 141 463 106 q 582 243 557 176 l 582 608 q 543 676 582 657 q 632 725 582 725 q 726 607 726 725 z "},"¶":{"ha":938,"x_min":76,"x_max":751,"o":"m 351 1004 l 751 1004 q 736 844 736 943 l 736 0 q 700 -6 714 -6 q 628 76 628 -6 l 628 807 q 635 901 628 853 l 557 901 q 504 844 504 901 l 504 0 q 467 -6 479 -6 q 396 76 396 -6 l 396 383 l 351 383 q 150 470 224 383 q 76 694 76 557 q 150 917 76 831 q 351 1004 224 1004 z "},"·":{"ha":578,"x_min":188,"x_max":393,"o":"m 304 650 q 325 650 304 650 q 369 625 346 650 q 393 558 393 600 q 357 481 393 517 q 278 444 321 444 q 212 469 236 444 q 188 535 188 494 q 225 613 188 576 q 304 650 263 650 z "},"¸":{"ha":478,"x_min":21,"x_max":454,"o":"m 296 -92 q 410 -121 365 -92 q 454 -208 454 -150 q 392 -309 454 -267 q 236 -351 331 -351 q 81 -316 142 -351 q 21 -237 21 -281 q 43 -196 21 -211 q 213 -272 104 -272 q 322 -206 322 -272 q 235 -149 322 -149 l 210 -149 q 175 -124 175 -149 q 181 -97 175 -112 l 229 32 l 326 32 l 282 -92 l 296 -92 z "},"¹":{"ha":279,"x_min":24,"x_max":250,"o":"m 226 940 l 226 486 q 250 447 226 456 q 192 419 226 419 q 131 488 131 419 l 131 921 q 102 947 131 947 q 38 928 74 947 q 24 950 24 931 q 60 992 24 969 q 141 1015 97 1015 q 206 995 185 1015 q 226 940 226 975 z "},"º":{"ha":560,"x_min":60,"x_max":499,"o":"m 269 953 q 171 828 171 953 q 172 801 171 815 q 290 653 183 653 q 390 775 390 653 q 389 801 390 788 q 269 953 378 953 m 60 803 q 60 853 60 803 q 124 960 60 904 q 281 1015 188 1015 q 437 960 375 1015 q 499 802 499 904 q 436 644 499 700 q 281 589 374 589 q 124 645 188 589 q 60 803 60 701 z "},"»":{"ha":840,"x_min":92,"x_max":749,"o":"m 558 847 q 593 814 558 847 q 689 697 629 782 q 749 562 749 611 q 689 428 749 513 q 558 278 629 343 q 451 214 486 214 q 424 224 436 214 q 408 243 411 235 q 545 428 504 356 q 586 562 586 500 q 546 694 586 624 q 408 882 506 765 q 424 901 411 890 q 451 911 436 911 q 558 847 486 911 m 240 847 q 276 814 240 847 q 372 697 313 782 q 432 562 432 611 q 372 428 432 513 q 240 278 313 343 q 133 214 168 214 q 106 224 118 214 q 92 243 94 233 q 228 428 188 357 q 269 562 269 500 q 229 694 269 624 q 92 882 189 764 q 106 901 94 892 q 133 911 118 911 q 240 847 168 911 z "},"¼":{"ha":932,"x_min":47,"x_max":910,"o":"m 150 485 l 150 918 q 119 946 150 946 q 63 925 96 946 q 47 951 47 932 q 82 992 47 969 q 160 1015 117 1015 q 226 994 204 1015 q 247 939 247 974 l 247 483 q 272 444 247 456 q 214 415 250 415 q 150 485 150 415 m 681 974 q 735 1015 711 1015 q 774 990 758 1015 q 744 949 769 989 l 200 33 q 148 -11 174 -11 q 107 14 122 -11 q 136 56 121 28 l 681 974 m 565 203 l 713 203 l 713 464 q 703 478 713 478 q 608 374 678 478 q 538 222 538 271 q 565 203 538 203 m 811 203 l 836 203 q 894 218 876 203 q 910 185 910 206 q 890 151 910 165 q 839 138 871 138 l 811 138 l 811 61 q 838 21 811 31 q 776 -7 813 -7 q 713 61 713 -7 l 713 138 l 532 138 q 453 196 453 138 q 506 344 453 249 q 633 518 560 440 q 753 596 706 596 q 811 532 811 596 l 811 203 z "},"½":{"ha":1026,"x_min":40,"x_max":978,"o":"m 143 485 l 143 918 q 113 946 143 946 q 56 925 89 946 q 40 951 40 932 q 76 992 40 969 q 155 1015 111 1015 q 220 994 199 1015 q 242 939 242 974 l 242 483 q 267 444 242 456 q 208 415 244 415 q 143 485 143 415 m 665 974 q 717 1015 692 1015 q 757 990 742 1015 q 728 949 753 988 l 183 33 q 132 -11 157 -11 q 90 14 107 -11 q 119 56 103 24 l 665 974 m 853 0 l 610 0 q 553 17 571 0 q 536 49 536 35 q 538 71 536 63 q 763 266 692 188 q 835 424 835 344 q 808 502 835 475 q 740 529 782 529 q 674 510 697 529 q 651 460 651 490 q 688 408 651 429 q 626 379 665 379 q 562 399 586 379 q 538 453 538 419 q 597 549 538 508 q 744 590 657 590 q 890 542 832 590 q 947 415 947 493 q 871 254 947 336 q 639 76 794 172 q 849 88 768 88 q 978 28 978 88 q 958 -11 978 8 q 853 0 914 0 z "},"¾":{"ha":1040,"x_min":57,"x_max":1021,"o":"m 311 764 q 435 709 386 753 q 485 597 485 665 q 413 476 485 528 q 258 425 340 425 q 116 457 175 425 q 57 536 57 489 q 74 578 57 561 q 110 599 92 596 q 276 504 156 504 q 351 528 322 504 q 379 598 379 551 q 335 676 379 644 q 214 707 292 707 q 163 701 193 707 q 151 722 151 707 q 181 753 151 738 q 247 781 211 768 q 313 816 283 793 q 343 870 343 839 q 315 920 343 901 q 236 939 286 939 q 129 901 186 939 q 106 933 106 906 q 160 988 106 960 q 285 1015 214 1015 q 406 982 357 1015 q 454 900 454 949 q 413 815 454 851 q 311 764 372 779 m 825 972 q 881 1015 854 1015 q 925 989 908 1015 q 889 949 910 983 l 318 33 q 264 -11 292 -11 q 219 15 236 -11 q 256 56 236 25 l 825 972 m 676 203 l 824 203 l 824 464 q 814 478 824 478 q 719 376 789 478 q 650 222 650 274 q 676 203 650 203 m 924 203 l 947 203 q 1007 218 990 203 q 1021 186 1021 207 q 1001 151 1021 165 q 950 138 982 138 l 924 138 l 924 61 q 949 21 924 31 q 890 -7 925 -7 q 824 61 824 -7 l 824 138 l 643 138 q 565 196 565 138 q 681 435 565 274 q 864 596 796 596 q 924 532 924 596 l 924 203 z "},"¿":{"ha":731,"x_min":103,"x_max":658,"o":"m 265 133 q 284 149 265 133 q 328 203 303 165 q 354 276 354 242 q 335 333 354 311 q 282 358 315 354 q 308 410 285 390 q 374 429 332 429 q 453 394 417 429 q 490 306 490 358 q 466 209 490 253 q 407 130 442 165 q 338 58 372 94 q 254 -126 254 -26 q 292 -230 254 -186 q 391 -274 331 -274 q 483 -246 451 -274 q 514 -173 514 -218 q 491 -96 514 -128 q 429 -49 468 -64 q 460 -14 431 -33 q 525 6 489 6 q 622 -35 585 6 q 658 -140 658 -75 q 576 -292 658 -232 q 376 -351 494 -351 q 180 -289 257 -351 q 103 -135 103 -226 q 192 65 103 -21 q 265 133 228 101 m 356 540 q 335 540 356 540 q 292 563 315 540 q 269 623 269 585 q 305 694 269 661 q 381 728 340 728 q 444 705 421 728 q 468 644 468 682 q 432 574 468 607 q 356 540 396 540 z "},"À":{"ha":929,"x_min":36,"x_max":903,"o":"m 428 1108 l 535 1274 q 592 1344 565 1324 q 661 1364 619 1364 q 724 1329 703 1364 q 736 1288 736 1310 q 729 1246 736 1267 q 694 1250 717 1250 q 642 1224 671 1250 l 515 1106 q 465 1082 489 1082 q 428 1108 440 1082 m 314 322 l 614 322 l 474 774 l 314 322 m 810 -12 q 743 8 768 -12 q 699 82 718 29 l 650 224 l 278 224 l 225 88 q 122 -12 188 -12 q 69 3 93 -12 q 36 40 46 18 q 94 117 69 54 l 408 915 q 367 976 392 957 q 450 1015 403 1015 q 520 990 497 1015 q 565 903 543 964 l 838 124 q 903 35 861 57 q 810 -12 876 -12 z "},"Á":{"ha":929,"x_min":36,"x_max":903,"o":"m 567 1110 q 531 1083 556 1083 q 479 1103 506 1083 l 343 1210 q 292 1232 314 1232 q 254 1225 269 1232 q 246 1269 246 1249 q 256 1308 246 1290 q 316 1347 275 1347 q 385 1330 357 1347 q 446 1265 413 1313 l 567 1110 m 314 322 l 614 322 l 474 774 l 314 322 m 810 -12 q 743 8 768 -12 q 699 82 718 29 l 650 224 l 278 224 l 225 88 q 122 -12 188 -12 q 69 3 93 -12 q 36 40 46 18 q 94 117 69 54 l 408 915 q 367 976 392 957 q 450 1015 403 1015 q 520 990 497 1015 q 565 903 543 964 l 838 124 q 903 35 861 57 q 810 -12 876 -12 z "},"Â":{"ha":929,"x_min":36,"x_max":903,"o":"m 358 1106 q 307 1083 336 1083 q 268 1108 278 1083 l 364 1253 q 415 1312 390 1293 q 476 1331 439 1331 q 536 1312 513 1331 q 586 1253 560 1293 l 682 1108 q 643 1083 672 1083 q 590 1106 614 1083 l 475 1218 l 358 1106 m 314 322 l 614 322 l 474 774 l 314 322 m 810 -12 q 743 8 768 -12 q 699 82 718 29 l 650 224 l 278 224 l 225 88 q 122 -12 188 -12 q 69 3 93 -12 q 36 40 46 18 q 94 117 69 54 l 408 915 q 367 976 392 957 q 450 1015 403 1015 q 520 990 497 1015 q 565 903 543 964 l 838 124 q 903 35 861 57 q 810 -12 876 -12 z "},"Ã":{"ha":929,"x_min":36,"x_max":903,"o":"m 304 1115 q 260 1175 260 1121 q 300 1266 260 1229 q 394 1303 340 1303 q 507 1265 447 1303 q 597 1228 567 1228 q 649 1248 628 1228 q 672 1304 669 1268 q 715 1242 715 1294 q 674 1152 715 1189 q 582 1115 633 1115 q 468 1153 531 1115 q 378 1192 406 1192 q 328 1172 350 1192 q 304 1115 306 1151 m 314 322 l 614 322 l 474 774 l 314 322 m 810 -12 q 743 8 768 -12 q 699 82 718 29 l 650 224 l 278 224 l 225 88 q 122 -12 188 -12 q 69 3 93 -12 q 36 40 46 18 q 94 117 69 54 l 408 915 q 367 976 392 957 q 450 1015 403 1015 q 520 990 497 1015 q 565 903 543 964 l 838 124 q 903 35 861 57 q 810 -12 876 -12 z "},"Ä":{"ha":929,"x_min":36,"x_max":903,"o":"m 678 1210 q 678 1193 678 1210 q 647 1144 678 1175 q 581 1114 617 1114 q 526 1135 546 1114 q 506 1191 506 1156 q 537 1257 506 1226 q 603 1288 568 1288 q 658 1267 638 1288 q 678 1210 678 1246 m 446 1210 q 446 1193 446 1210 q 415 1144 446 1175 q 349 1114 385 1114 q 294 1135 314 1114 q 274 1191 274 1156 q 305 1257 274 1226 q 371 1288 336 1288 q 426 1267 406 1288 q 446 1210 446 1246 m 314 322 l 614 322 l 474 774 l 314 322 m 810 -12 q 743 8 768 -12 q 699 82 718 29 l 650 224 l 278 224 l 225 88 q 122 -12 188 -12 q 69 3 93 -12 q 36 40 46 18 q 94 117 69 54 l 408 915 q 367 976 392 957 q 450 1015 403 1015 q 520 990 497 1015 q 565 903 543 964 l 838 124 q 903 35 861 57 q 810 -12 876 -12 z "},"Å":{"ha":929,"x_min":36,"x_max":903,"o":"m 533 1189 q 469 1289 533 1289 q 431 1272 443 1289 q 418 1229 418 1254 q 481 1129 418 1129 q 533 1189 533 1129 m 624 1208 q 624 1178 624 1208 q 581 1116 624 1149 q 476 1083 539 1083 q 370 1116 413 1083 q 328 1209 328 1149 q 371 1302 328 1269 q 476 1335 414 1335 q 581 1301 539 1335 q 624 1208 624 1268 m 314 322 l 614 322 l 474 774 l 314 322 m 810 -12 q 743 8 768 -12 q 699 82 718 29 l 650 224 l 278 224 l 225 88 q 122 -12 188 -12 q 69 3 93 -12 q 36 40 46 18 q 94 117 69 54 l 408 915 q 367 976 392 957 q 450 1015 403 1015 q 520 990 497 1015 q 565 903 543 964 l 838 124 q 903 35 861 57 q 810 -12 876 -12 z "},"Æ":{"ha":1378,"x_min":24,"x_max":1294,"o":"m 613 353 l 613 875 l 357 353 l 613 353 m 844 118 l 1118 118 q 1251 175 1204 118 q 1294 105 1294 154 q 1255 28 1294 56 q 1133 0 1215 0 l 835 0 q 667 45 721 0 q 613 185 613 90 l 613 233 l 299 233 l 221 75 q 119 -7 181 -7 q 24 47 57 -7 q 93 122 61 60 l 492 910 q 639 1004 540 1004 l 1136 1004 q 1294 919 1294 1004 q 1251 851 1294 872 q 1118 885 1207 885 l 758 885 l 758 583 l 1022 583 q 1145 567 1108 583 q 1182 511 1182 551 q 1144 446 1182 471 q 1011 465 1100 465 l 758 465 l 758 199 q 778 137 758 156 q 844 118 797 118 z "},"Ç":{"ha":965,"x_min":89,"x_max":868,"o":"m 89 482 q 223 869 89 724 q 565 1015 357 1015 q 779 963 692 1015 q 867 838 867 911 q 838 772 867 794 q 769 750 810 750 q 700 765 729 750 q 701 790 701 778 q 665 878 701 840 q 542 917 628 917 q 334 809 422 917 q 246 508 246 701 q 330 217 246 314 q 563 119 414 119 q 717 155 644 119 q 835 239 790 190 q 868 182 868 229 q 770 56 868 122 q 536 -12 672 -10 l 507 -92 l 521 -92 q 635 -121 590 -92 q 679 -208 679 -150 q 617 -309 679 -267 q 461 -351 556 -351 q 306 -316 367 -351 q 246 -237 246 -281 q 268 -196 246 -211 q 438 -272 329 -272 q 547 -206 547 -272 q 460 -149 547 -149 l 435 -149 q 400 -124 400 -149 q 406 -97 400 -112 l 440 -6 q 184 153 279 24 q 89 482 89 282 z "},"È":{"ha":919,"x_min":117,"x_max":836,"o":"m 425 1108 l 532 1274 q 590 1344 563 1324 q 658 1364 617 1364 q 721 1329 700 1364 q 733 1288 733 1310 q 726 1246 733 1267 q 691 1250 714 1250 q 639 1224 668 1250 l 513 1106 q 462 1082 486 1082 q 425 1108 438 1082 m 396 118 l 661 118 q 794 175 746 118 q 836 105 836 154 q 797 28 836 56 q 676 0 758 0 l 382 0 q 210 48 265 0 q 156 203 156 96 l 156 883 q 117 950 156 933 q 232 1004 156 1004 l 678 1004 q 836 919 836 1004 q 794 851 836 872 q 661 885 750 885 l 301 885 l 301 583 l 565 583 q 688 568 651 583 q 724 511 724 553 q 686 446 724 469 q 553 465 643 465 l 301 465 l 301 214 q 324 140 301 163 q 396 118 346 118 z "},"É":{"ha":919,"x_min":117,"x_max":836,"o":"m 564 1110 q 528 1083 553 1083 q 476 1103 503 1083 l 340 1210 q 289 1232 311 1232 q 251 1225 267 1232 q 243 1269 243 1249 q 253 1308 243 1290 q 313 1347 272 1347 q 382 1330 354 1347 q 443 1265 410 1313 l 564 1110 m 396 118 l 661 118 q 794 175 746 118 q 836 105 836 154 q 797 28 836 56 q 676 0 758 0 l 382 0 q 210 48 265 0 q 156 203 156 96 l 156 883 q 117 950 156 933 q 232 1004 156 1004 l 678 1004 q 836 919 836 1004 q 794 851 836 872 q 661 885 750 885 l 301 885 l 301 583 l 565 583 q 688 568 651 583 q 724 511 724 553 q 686 446 724 469 q 553 465 643 465 l 301 465 l 301 214 q 324 140 301 163 q 396 118 346 118 z "},"Ê":{"ha":919,"x_min":117,"x_max":836,"o":"m 356 1106 q 304 1083 333 1083 q 265 1108 275 1083 l 361 1253 q 412 1312 388 1293 q 472 1331 436 1331 q 533 1312 508 1331 q 583 1253 557 1293 l 679 1108 q 640 1083 669 1083 q 588 1106 611 1083 l 472 1218 l 356 1106 m 396 118 l 661 118 q 794 175 746 118 q 836 105 836 154 q 797 28 836 56 q 676 0 758 0 l 382 0 q 210 48 265 0 q 156 203 156 96 l 156 883 q 117 950 156 933 q 232 1004 156 1004 l 678 1004 q 836 919 836 1004 q 794 851 836 872 q 661 885 750 885 l 301 885 l 301 583 l 565 583 q 688 568 651 583 q 724 511 724 553 q 686 446 724 469 q 553 465 643 465 l 301 465 l 301 214 q 324 140 301 163 q 396 118 346 118 z "},"Ë":{"ha":919,"x_min":117,"x_max":836,"o":"m 675 1210 q 675 1193 675 1210 q 644 1144 675 1175 q 578 1114 614 1114 q 523 1135 543 1114 q 503 1191 503 1156 q 534 1257 503 1226 q 600 1288 565 1288 q 655 1267 635 1288 q 675 1210 675 1246 m 443 1210 q 443 1193 443 1210 q 413 1144 443 1175 q 347 1114 382 1114 q 291 1135 311 1114 q 271 1191 271 1156 q 302 1257 271 1226 q 368 1288 333 1288 q 423 1267 403 1288 q 443 1210 443 1246 m 396 118 l 661 118 q 794 175 746 118 q 836 105 836 154 q 797 28 836 56 q 676 0 758 0 l 382 0 q 210 48 265 0 q 156 203 156 96 l 156 883 q 117 950 156 933 q 232 1004 156 1004 l 678 1004 q 836 919 836 1004 q 794 851 836 872 q 661 885 750 885 l 301 885 l 301 583 l 565 583 q 688 568 651 583 q 724 511 724 553 q 686 446 724 469 q 553 465 643 465 l 301 465 l 301 214 q 324 140 301 163 q 396 118 346 118 z "},"Ì":{"ha":428,"x_min":101,"x_max":475,"o":"m 274 1274 q 331 1344 304 1324 q 400 1364 358 1364 q 463 1329 442 1364 q 475 1288 475 1310 q 468 1246 475 1267 q 433 1250 456 1250 q 381 1224 410 1250 l 254 1106 q 206 1082 228 1082 q 167 1108 179 1082 l 274 1274 m 285 900 l 285 103 q 322 36 285 53 q 233 -12 289 -12 q 139 104 139 -12 l 139 901 q 101 967 139 950 q 189 1015 133 1015 q 285 900 285 1015 z "},"Í":{"ha":428,"x_min":-17,"x_max":322,"o":"m 304 1110 q 268 1083 293 1083 q 217 1103 243 1083 l 81 1210 q 29 1232 51 1232 q -8 1225 7 1232 q -17 1269 -17 1249 q -8 1308 -17 1290 q 53 1347 13 1347 q 122 1330 94 1347 q 183 1265 150 1313 l 304 1110 m 285 900 l 285 103 q 322 36 285 53 q 233 -12 289 -12 q 139 104 139 -12 l 139 901 q 101 967 139 950 q 189 1015 133 1015 q 285 900 285 1015 z "},"Î":{"ha":428,"x_min":6,"x_max":419,"o":"m 285 900 l 285 103 q 322 36 285 53 q 233 -12 289 -12 q 139 104 139 -12 l 139 901 q 101 967 139 950 q 189 1015 133 1015 q 285 900 285 1015 m 419 1108 q 381 1083 410 1083 q 328 1106 351 1083 l 213 1218 l 96 1106 q 44 1083 74 1083 q 6 1108 15 1083 l 101 1253 q 151 1312 128 1293 q 213 1331 175 1331 q 274 1312 250 1331 q 324 1253 297 1293 l 419 1108 z "},"Ï":{"ha":428,"x_min":11,"x_max":415,"o":"m 340 1288 q 358 1288 340 1288 q 395 1267 375 1288 q 415 1210 415 1246 q 385 1144 415 1175 q 319 1114 354 1114 q 263 1135 283 1114 q 243 1191 243 1156 q 274 1257 243 1226 q 340 1288 306 1288 m 108 1288 q 126 1288 108 1288 q 163 1267 143 1288 q 183 1210 183 1246 q 153 1144 183 1175 q 87 1114 122 1114 q 31 1135 51 1114 q 11 1191 11 1156 q 42 1257 11 1226 q 108 1288 74 1288 m 285 900 l 285 103 q 322 36 285 53 q 233 -12 289 -12 q 139 104 139 -12 l 139 901 q 101 967 139 950 q 189 1015 133 1015 q 285 900 285 1015 z "},"Ð":{"ha":1079,"x_min":18,"x_max":971,"o":"m 443 92 q 710 199 604 92 q 817 500 817 306 q 710 802 817 694 q 443 910 604 910 q 288 886 364 910 l 286 551 l 563 551 q 567 528 567 544 q 458 457 567 457 l 286 457 l 285 178 q 314 111 285 131 q 443 92 343 92 m 139 551 l 139 860 q 113 960 139 926 q 443 1015 269 1015 q 810 890 657 1015 q 928 728 885 829 q 971 500 971 628 q 928 272 971 372 q 810 111 885 172 q 443 -12 658 -12 q 204 35 271 -12 q 138 182 138 82 l 138 457 l 24 457 q 18 481 18 465 q 128 551 18 551 l 139 551 z "},"Ñ":{"ha":1103,"x_min":113,"x_max":989,"o":"m 470 1303 q 497 1303 470 1303 q 583 1265 524 1303 q 674 1228 643 1228 q 725 1248 704 1228 q 749 1304 746 1268 q 792 1242 792 1294 q 751 1152 792 1189 q 658 1115 710 1115 q 544 1153 607 1115 q 454 1192 482 1192 q 404 1172 426 1192 q 381 1115 382 1151 q 336 1175 336 1121 q 376 1266 336 1229 q 470 1303 417 1303 m 151 104 l 151 901 q 113 967 151 950 q 204 1015 149 1015 q 294 992 260 1015 q 364 914 329 968 l 813 196 l 813 901 q 775 967 813 950 q 864 1015 808 1015 q 960 900 960 1015 l 960 103 q 989 28 960 53 q 903 -12 958 -12 q 805 22 847 -12 q 714 132 763 56 l 297 789 l 297 103 q 335 36 297 51 q 246 -12 299 -12 q 151 104 151 -12 z "},"Ò":{"ha":1078,"x_min":97,"x_max":979,"o":"m 599 1274 q 656 1344 629 1324 q 725 1364 683 1364 q 788 1329 767 1364 q 800 1288 800 1310 q 793 1246 800 1267 q 758 1250 781 1250 q 706 1224 735 1250 l 579 1106 q 531 1082 553 1082 q 492 1108 504 1082 l 599 1274 m 347 193 q 567 88 433 88 q 772 207 700 88 q 833 453 833 306 q 831 517 833 483 q 732 810 818 704 q 512 917 646 917 q 306 797 378 917 q 244 550 244 697 q 347 193 244 319 m 540 1015 q 644 1015 540 1015 q 864 876 749 1015 q 979 503 979 738 q 863 128 979 269 q 540 -12 747 -12 q 215 128 332 -12 q 97 501 97 268 q 215 875 97 735 q 540 1015 332 1015 z "},"Ó":{"ha":1078,"x_min":97,"x_max":979,"o":"m 347 193 q 567 88 433 88 q 772 207 700 88 q 833 453 833 306 q 831 517 833 483 q 732 810 818 704 q 512 917 646 917 q 306 797 378 917 q 244 550 244 697 q 347 193 244 319 m 540 1015 q 644 1015 540 1015 q 864 876 749 1015 q 979 503 979 738 q 863 128 979 269 q 540 -12 747 -12 q 215 128 332 -12 q 97 501 97 268 q 215 875 97 735 q 540 1015 332 1015 m 631 1110 q 594 1083 619 1083 q 543 1103 569 1083 l 407 1210 q 356 1232 378 1232 q 318 1225 333 1232 q 310 1269 310 1249 q 319 1308 310 1290 q 380 1347 339 1347 q 449 1330 421 1347 q 510 1265 476 1313 l 631 1110 z "},"Ô":{"ha":1078,"x_min":97,"x_max":979,"o":"m 422 1106 q 371 1083 400 1083 q 332 1108 342 1083 l 428 1253 q 478 1312 454 1293 q 539 1331 503 1331 q 599 1312 575 1331 q 650 1253 624 1293 l 746 1108 q 707 1083 736 1083 q 654 1106 678 1083 l 539 1218 l 422 1106 m 347 193 q 567 88 433 88 q 772 207 700 88 q 833 453 833 306 q 831 517 833 483 q 732 810 818 704 q 512 917 646 917 q 306 797 378 917 q 244 550 244 697 q 347 193 244 319 m 215 875 q 273 945 215 875 q 540 1015 332 1015 q 864 876 749 1015 q 979 503 979 738 q 863 128 979 269 q 540 -12 747 -12 q 215 128 332 -12 q 97 501 97 268 q 215 875 97 735 z "},"Õ":{"ha":1078,"x_min":97,"x_max":979,"o":"m 458 1303 q 484 1303 458 1303 q 571 1265 511 1303 q 661 1228 631 1228 q 713 1248 692 1228 q 736 1304 733 1268 q 779 1242 779 1294 q 738 1152 779 1189 q 646 1115 697 1115 q 532 1153 594 1115 q 442 1192 469 1192 q 392 1172 414 1192 q 368 1115 369 1151 q 324 1175 324 1121 q 364 1266 324 1229 q 458 1303 404 1303 m 347 193 q 567 88 433 88 q 772 207 700 88 q 833 453 833 306 q 831 517 833 483 q 732 810 818 704 q 512 917 646 917 q 306 797 378 917 q 244 550 244 697 q 347 193 244 319 m 540 1015 q 644 1015 540 1015 q 864 876 749 1015 q 979 503 979 738 q 863 128 979 269 q 540 -12 747 -12 q 215 128 332 -12 q 97 501 97 268 q 215 875 97 735 q 540 1015 332 1015 z "},"Ö":{"ha":1078,"x_min":97,"x_max":979,"o":"m 347 193 q 567 88 433 88 q 772 207 700 88 q 833 453 833 306 q 831 517 833 483 q 732 810 818 704 q 512 917 646 917 q 306 797 378 917 q 244 550 244 697 q 347 193 244 319 m 540 1015 q 644 1015 540 1015 q 864 876 749 1015 q 979 503 979 738 q 863 128 979 269 q 540 -12 747 -12 q 215 128 332 -12 q 97 501 97 268 q 215 875 97 735 q 540 1015 332 1015 m 667 1288 q 684 1288 667 1288 q 722 1267 701 1288 q 742 1210 742 1246 q 711 1144 742 1175 q 645 1114 681 1114 q 590 1135 610 1114 q 569 1191 569 1156 q 601 1257 569 1226 q 667 1288 632 1288 m 435 1288 q 452 1288 435 1288 q 490 1267 469 1288 q 510 1210 510 1246 q 479 1144 510 1175 q 413 1114 449 1114 q 358 1135 378 1114 q 338 1191 338 1156 q 369 1257 338 1226 q 435 1288 400 1288 z "},"×":{"ha":943,"x_min":118,"x_max":824,"o":"m 824 279 q 744 228 801 228 q 614 315 686 228 l 457 489 l 267 271 q 191 219 225 219 q 140 250 157 219 l 401 550 l 118 867 q 156 906 132 892 q 198 919 181 919 q 226 917 215 919 q 247 908 236 915 l 264 899 q 304 863 281 889 q 332 832 328 836 l 490 654 l 678 867 q 754 919 721 919 q 804 892 788 919 l 546 593 l 824 279 z "},"Ø":{"ha":1097,"x_min":74,"x_max":1032,"o":"m 344 197 q 565 88 429 88 q 772 207 700 88 q 833 453 833 306 q 788 717 833 607 l 344 197 m 510 917 q 306 797 378 917 q 244 550 244 697 q 301 267 244 383 l 747 790 q 510 917 660 917 m 892 839 q 979 490 979 710 q 863 128 979 269 q 540 -12 747 -12 q 253 89 365 -12 l 208 38 q 124 -12 165 -12 q 74 29 83 -12 q 164 106 121 54 l 200 147 q 97 510 97 285 q 215 875 97 735 q 531 1015 332 1015 q 842 900 729 1015 l 897 965 q 983 1015 942 1015 q 1032 975 1024 1015 q 942 897 988 951 l 892 839 z "},"Ù":{"ha":999,"x_min":99,"x_max":900,"o":"m 583 1274 q 641 1344 614 1324 q 710 1364 668 1364 q 772 1329 751 1364 q 785 1288 785 1310 q 778 1246 785 1267 q 742 1250 765 1250 q 690 1224 719 1250 l 564 1106 q 515 1082 538 1082 q 476 1108 489 1082 l 583 1274 m 138 360 l 138 901 q 99 967 138 950 q 188 1015 135 1015 q 282 900 282 1015 l 282 340 q 519 104 282 104 q 756 340 756 104 l 756 901 q 717 967 756 950 q 806 1015 750 1015 q 900 900 900 1015 l 900 360 q 807 86 900 185 q 520 -12 714 -12 q 232 87 326 -12 q 138 360 138 186 z "},"Ú":{"ha":999,"x_min":99,"x_max":900,"o":"m 138 360 l 138 901 q 99 967 138 950 q 188 1015 135 1015 q 282 900 282 1015 l 282 340 q 519 104 282 104 q 756 340 756 104 l 756 901 q 717 967 756 950 q 806 1015 750 1015 q 900 900 900 1015 l 900 360 q 807 86 900 185 q 520 -12 714 -12 q 232 87 326 -12 q 138 360 138 186 m 614 1110 q 578 1083 603 1083 q 526 1103 553 1083 l 390 1210 q 339 1232 361 1232 q 301 1225 317 1232 q 293 1269 293 1249 q 303 1308 293 1290 q 363 1347 322 1347 q 432 1330 404 1347 q 493 1265 460 1313 l 614 1110 z "},"Û":{"ha":999,"x_min":99,"x_max":900,"o":"m 407 1106 q 356 1083 385 1083 q 317 1108 326 1083 l 413 1253 q 463 1312 439 1293 q 524 1331 488 1331 q 584 1312 560 1331 q 635 1253 608 1293 l 731 1108 q 692 1083 721 1083 q 639 1106 663 1083 l 524 1218 l 407 1106 m 756 340 l 756 901 q 717 967 756 950 q 806 1015 750 1015 q 900 900 900 1015 l 900 360 q 807 86 900 185 q 520 -12 714 -12 q 232 87 326 -12 q 138 360 138 186 l 138 901 q 99 967 138 950 q 188 1015 135 1015 q 282 900 282 1015 l 282 340 q 519 104 282 104 q 756 340 756 104 z "},"Ü":{"ha":999,"x_min":99,"x_max":900,"o":"m 138 360 l 138 901 q 99 967 138 950 q 188 1015 135 1015 q 282 900 282 1015 l 282 340 q 519 104 282 104 q 756 340 756 104 l 756 901 q 717 967 756 950 q 806 1015 750 1015 q 900 900 900 1015 l 900 360 q 807 86 900 185 q 520 -12 714 -12 q 232 87 326 -12 q 138 360 138 186 m 650 1288 q 667 1288 650 1288 q 705 1267 685 1288 q 725 1210 725 1246 q 694 1144 725 1175 q 628 1114 664 1114 q 573 1135 593 1114 q 553 1191 553 1156 q 584 1257 553 1226 q 650 1288 615 1288 m 418 1288 q 435 1288 418 1288 q 473 1267 453 1288 q 493 1210 493 1246 q 463 1144 493 1175 q 397 1114 432 1114 q 341 1135 361 1114 q 321 1191 321 1156 q 352 1257 321 1226 q 418 1288 383 1288 z "},"Ý":{"ha":851,"x_min":18,"x_max":824,"o":"m 533 1110 q 497 1083 522 1083 q 446 1103 472 1083 l 310 1210 q 258 1232 281 1232 q 221 1225 236 1232 q 213 1269 213 1249 q 222 1308 213 1290 q 283 1347 242 1347 q 351 1330 324 1347 q 413 1265 379 1313 l 533 1110 m 444 -11 q 354 111 354 -11 l 356 442 l 101 881 q 18 935 67 933 q 115 1015 42 1015 q 240 925 189 1015 l 440 575 l 644 881 q 671 944 671 917 q 650 994 671 972 q 733 1015 689 1015 q 800 995 776 1015 q 824 939 824 975 q 793 857 824 903 l 501 444 l 500 97 q 524 13 500 43 q 444 -11 489 -11 z "},"Þ":{"ha":893,"x_min":101,"x_max":846,"o":"m 285 365 q 473 333 376 333 q 631 389 569 333 q 693 538 693 444 q 631 686 693 631 q 475 742 569 742 q 285 708 381 742 l 285 365 m 285 900 l 285 804 q 496 846 392 846 q 744 761 642 846 q 846 538 846 676 q 744 314 846 399 q 496 229 642 229 q 285 271 386 229 l 285 103 q 322 36 285 53 q 233 -12 289 -12 q 139 104 139 -12 l 139 901 q 101 967 139 950 q 189 1015 133 1015 q 285 900 285 1015 z "},"ß":{"ha":822,"x_min":94,"x_max":757,"o":"m 757 246 q 687 60 757 132 q 511 -12 617 -12 q 402 17 439 -12 q 365 85 365 46 q 372 114 365 100 q 470 88 411 88 q 567 126 529 88 q 606 225 606 165 q 577 328 606 285 q 479 425 549 372 q 447 452 464 438 q 419 475 429 467 q 396 493 408 483 q 377 509 383 503 q 364 522 371 515 q 354 542 354 533 q 376 571 354 551 q 422 614 397 590 q 469 681 447 638 q 490 782 490 724 q 454 880 490 840 q 364 919 418 919 q 275 878 310 919 q 240 746 240 836 l 240 103 q 279 36 240 53 q 190 -12 243 -12 q 94 104 94 -12 l 94 746 q 170 939 94 872 q 369 1006 246 1006 q 567 940 492 1006 q 643 778 643 874 q 504 565 643 646 l 567 524 q 710 395 664 461 q 757 246 757 329 z "},"à":{"ha":749,"x_min":69,"x_max":699,"o":"m 328 815 l 435 981 q 492 1051 465 1031 q 561 1071 519 1071 q 624 1036 603 1071 q 636 995 636 1017 q 629 953 636 974 q 594 957 617 957 q 542 931 571 957 l 415 813 q 365 789 389 789 q 328 815 340 789 m 226 181 q 324 92 226 92 q 483 174 421 92 l 483 331 q 289 283 351 324 q 226 181 226 242 m 629 493 l 629 140 q 699 49 629 63 q 592 -12 664 -12 q 485 92 499 -12 q 269 -12 404 -12 q 125 35 181 -12 q 69 165 69 82 q 175 331 69 268 q 483 400 281 394 l 483 497 q 456 608 483 572 q 373 643 429 643 q 288 619 317 643 q 258 560 258 594 q 278 506 258 526 q 197 475 243 475 q 126 498 151 475 q 100 561 100 521 q 181 678 100 631 q 376 725 261 725 q 560 665 490 725 q 629 493 629 606 z "},"á":{"ha":749,"x_min":69,"x_max":699,"o":"m 467 817 q 431 790 456 790 q 379 810 406 790 l 243 917 q 192 939 214 939 q 154 932 169 939 q 146 976 146 956 q 156 1015 146 997 q 216 1054 175 1054 q 285 1037 257 1054 q 346 972 313 1019 l 467 817 m 226 181 q 324 92 226 92 q 483 174 421 92 l 483 331 q 289 283 351 324 q 226 181 226 242 m 629 493 l 629 140 q 699 49 629 63 q 592 -12 664 -12 q 485 92 499 -12 q 269 -12 404 -12 q 125 35 181 -12 q 69 165 69 82 q 175 331 69 268 q 483 400 281 394 l 483 497 q 456 608 483 572 q 373 643 429 643 q 288 619 317 643 q 258 560 258 594 q 278 506 258 526 q 197 475 243 475 q 126 498 151 475 q 100 561 100 521 q 181 678 100 631 q 376 725 261 725 q 560 665 490 725 q 629 493 629 606 z "},"â":{"ha":749,"x_min":69,"x_max":699,"o":"m 258 813 q 207 790 236 790 q 168 815 178 790 l 264 960 q 315 1019 290 1000 q 375 1038 339 1038 q 435 1019 411 1038 q 486 960 460 1000 l 582 815 q 543 790 572 790 q 490 813 514 790 l 375 925 l 258 813 m 226 181 q 324 92 226 92 q 483 174 421 92 l 483 331 q 289 283 351 324 q 226 181 226 242 m 629 493 l 629 140 q 699 49 629 63 q 592 -12 664 -12 q 485 92 499 -12 q 269 -12 404 -12 q 125 35 181 -12 q 69 165 69 82 q 175 331 69 268 q 483 400 281 394 l 483 497 q 456 608 483 572 q 373 643 429 643 q 288 619 317 643 q 258 560 258 594 q 278 506 258 526 q 197 475 243 475 q 126 498 151 475 q 100 561 100 521 q 181 678 100 631 q 376 725 261 725 q 560 665 490 725 q 629 493 629 606 z "},"ã":{"ha":749,"x_min":69,"x_max":699,"o":"m 204 822 q 160 882 160 828 q 200 973 160 936 q 294 1010 240 1010 q 407 972 347 1010 q 497 935 467 935 q 549 955 528 935 q 572 1011 569 975 q 615 949 615 1001 q 574 859 615 896 q 482 822 533 822 q 368 860 431 822 q 278 899 306 899 q 228 878 250 899 q 204 822 206 858 m 226 181 q 324 92 226 92 q 483 174 421 92 l 483 331 q 289 283 351 324 q 226 181 226 242 m 629 493 l 629 140 q 699 49 629 63 q 592 -12 664 -12 q 485 92 499 -12 q 269 -12 404 -12 q 125 35 181 -12 q 69 165 69 82 q 175 331 69 268 q 483 400 281 394 l 483 497 q 456 608 483 572 q 373 643 429 643 q 288 619 317 643 q 258 560 258 594 q 278 506 258 526 q 197 475 243 475 q 126 498 151 475 q 100 561 100 521 q 181 678 100 631 q 376 725 261 725 q 560 665 490 725 q 629 493 629 606 z "},"ä":{"ha":749,"x_min":69,"x_max":699,"o":"m 576 917 q 576 900 576 917 q 546 851 576 882 q 480 821 515 821 q 424 842 444 821 q 404 898 404 863 q 435 964 404 933 q 501 994 467 994 q 556 974 536 994 q 576 917 576 953 m 344 917 q 344 900 344 917 q 314 851 344 882 q 248 821 283 821 q 192 842 213 821 q 172 898 172 863 q 203 964 172 933 q 269 994 235 994 q 324 974 304 994 q 344 917 344 953 m 226 181 q 324 92 226 92 q 483 174 421 92 l 483 331 q 289 283 351 324 q 226 181 226 242 m 629 493 l 629 140 q 699 49 629 63 q 592 -12 664 -12 q 485 92 499 -12 q 269 -12 404 -12 q 125 35 181 -12 q 69 165 69 82 q 175 331 69 268 q 483 400 281 394 l 483 497 q 456 608 483 572 q 373 643 429 643 q 288 619 317 643 q 258 560 258 594 q 278 506 258 526 q 197 475 243 475 q 126 498 151 475 q 100 561 100 521 q 181 678 100 631 q 376 725 261 725 q 560 665 490 725 q 629 493 629 606 z "},"å":{"ha":749,"x_min":69,"x_max":699,"o":"m 433 896 q 369 996 433 996 q 331 978 343 996 q 318 936 318 961 q 381 836 318 836 q 433 896 433 836 m 524 915 q 524 885 524 915 q 481 823 524 856 q 376 790 439 790 q 270 823 313 790 q 228 916 228 856 q 271 1009 228 976 q 376 1042 314 1042 q 481 1008 439 1042 q 524 915 524 975 m 226 181 q 324 92 226 92 q 483 174 421 92 l 483 331 q 289 283 351 324 q 226 181 226 242 m 629 493 l 629 140 q 699 49 629 63 q 592 -12 664 -12 q 485 92 499 -12 q 269 -12 404 -12 q 125 35 181 -12 q 69 165 69 82 q 175 331 69 268 q 483 400 281 394 l 483 497 q 456 608 483 572 q 373 643 429 643 q 288 619 317 643 q 258 560 258 594 q 278 506 258 526 q 197 475 243 475 q 126 498 151 475 q 100 561 100 521 q 181 678 100 631 q 376 725 261 725 q 560 665 490 725 q 629 493 629 606 z "},"æ":{"ha":1113,"x_min":69,"x_max":1065,"o":"m 483 325 l 483 331 q 289 283 351 324 q 226 181 226 242 q 328 92 226 92 q 503 194 431 92 q 483 325 483 253 m 858 438 q 914 499 914 442 q 884 596 914 557 q 798 635 854 635 q 696 578 742 635 q 638 418 650 521 l 858 438 m 633 344 q 849 96 636 96 q 1031 174 953 96 q 1053 131 1053 164 q 983 33 1053 79 q 818 -12 913 -12 q 539 121 629 -12 q 289 -12 436 -12 q 130 34 190 -12 q 69 165 69 81 q 175 331 69 268 q 483 400 281 394 l 483 497 q 456 608 483 572 q 373 643 429 643 q 288 619 317 643 q 258 560 258 594 q 278 506 258 526 q 197 475 243 475 q 126 498 151 475 q 100 561 100 521 q 180 678 100 631 q 367 725 260 725 q 589 614 531 725 q 821 725 686 725 q 997 652 929 725 q 1065 486 1065 579 q 1029 386 1065 418 q 911 353 993 354 l 633 344 z "},"ç":{"ha":694,"x_min":68,"x_max":635,"o":"m 68 325 q 172 610 68 496 q 431 725 276 725 q 577 684 519 725 q 635 582 635 643 q 611 522 635 543 q 552 500 588 500 q 493 517 517 500 q 497 559 497 531 q 474 610 497 588 q 406 632 451 632 q 272 556 331 632 q 213 353 213 479 q 270 164 213 228 q 414 100 328 100 q 607 176 531 100 q 628 132 628 165 q 560 35 628 81 q 400 -12 492 -10 l 371 -92 l 385 -92 q 499 -121 454 -92 q 543 -208 543 -150 q 481 -309 543 -267 q 325 -351 419 -351 q 170 -316 231 -351 q 110 -237 110 -281 q 132 -196 110 -211 q 302 -272 193 -272 q 411 -206 411 -272 q 324 -149 411 -149 l 299 -149 q 264 -124 264 -149 q 269 -97 264 -112 l 306 -3 q 133 109 199 24 q 68 325 68 194 z "},"è":{"ha":697,"x_min":68,"x_max":657,"o":"m 447 438 q 501 500 501 442 q 470 597 501 558 q 382 635 439 635 q 278 578 325 635 q 221 417 232 521 l 447 438 m 217 343 q 274 156 218 217 q 434 96 331 96 q 615 174 538 96 q 639 131 639 161 q 568 33 639 79 q 401 -12 497 -12 q 160 77 251 -12 q 68 332 68 167 q 168 611 68 497 q 406 725 268 725 q 582 652 514 725 q 650 486 650 579 q 615 386 650 418 q 497 353 579 354 l 217 343 m 456 981 q 513 1051 486 1031 q 582 1071 540 1071 q 644 1036 624 1071 q 657 995 657 1017 q 650 953 657 974 q 615 957 638 957 q 563 931 592 957 l 436 813 q 388 789 410 789 q 349 815 361 789 l 456 981 z "},"é":{"ha":697,"x_min":68,"x_max":650,"o":"m 486 817 q 450 790 475 790 q 399 810 425 790 l 263 917 q 211 939 233 939 q 174 932 189 939 q 165 976 165 956 q 175 1015 165 997 q 235 1054 194 1054 q 304 1037 276 1054 q 365 972 332 1019 l 486 817 m 447 438 q 501 500 501 442 q 470 597 501 558 q 382 635 439 635 q 278 578 325 635 q 221 417 232 521 l 447 438 m 217 343 q 274 156 218 217 q 434 96 331 96 q 615 174 538 96 q 639 131 639 161 q 568 33 639 79 q 401 -12 497 -12 q 160 77 251 -12 q 68 332 68 167 q 168 611 68 497 q 406 725 268 725 q 582 652 514 725 q 650 486 650 579 q 615 386 650 418 q 497 353 579 354 l 217 343 z "},"ê":{"ha":697,"x_min":68,"x_max":650,"o":"m 279 813 q 228 790 257 790 q 189 815 199 790 l 285 960 q 335 1019 311 1000 q 396 1038 358 1038 q 457 1019 433 1038 q 507 960 481 1000 l 603 815 q 564 790 593 790 q 511 813 535 790 l 396 925 l 279 813 m 447 438 q 501 500 501 442 q 470 597 501 558 q 382 635 439 635 q 278 578 325 635 q 221 417 232 521 l 447 438 m 217 343 q 274 156 218 217 q 434 96 331 96 q 615 174 538 96 q 639 131 639 161 q 568 33 639 79 q 401 -12 497 -12 q 160 77 251 -12 q 68 332 68 167 q 168 611 68 497 q 406 725 268 725 q 582 652 514 725 q 650 486 650 579 q 615 386 650 418 q 497 353 579 354 l 217 343 z "},"ë":{"ha":697,"x_min":68,"x_max":650,"o":"m 597 917 q 597 900 597 917 q 567 851 597 882 q 501 821 536 821 q 445 842 465 821 q 425 898 425 863 q 456 964 425 933 q 522 994 488 994 q 577 974 557 994 q 597 917 597 953 m 365 917 q 365 900 365 917 q 335 851 365 882 q 269 821 304 821 q 213 842 233 821 q 193 898 193 863 q 224 964 193 933 q 290 994 256 994 q 345 974 325 994 q 365 917 365 953 m 447 438 q 501 500 501 442 q 470 597 501 558 q 382 635 439 635 q 278 578 325 635 q 221 417 232 521 l 447 438 m 217 343 q 274 156 218 217 q 434 96 331 96 q 615 174 538 96 q 639 131 639 161 q 568 33 639 79 q 401 -12 497 -12 q 160 77 251 -12 q 68 332 68 167 q 168 611 68 497 q 406 725 268 725 q 582 652 514 725 q 650 486 650 579 q 615 386 650 418 q 497 353 579 354 l 217 343 z "},"ì":{"ha":385,"x_min":83,"x_max":454,"o":"m 253 981 q 310 1051 283 1031 q 379 1071 338 1071 q 442 1036 421 1071 q 454 995 454 1017 q 447 953 454 974 q 412 957 435 957 q 360 931 389 957 l 233 813 q 185 789 207 789 q 146 815 158 789 l 253 981 m 267 607 l 267 103 q 306 36 267 53 q 217 -12 269 -12 q 122 104 122 -12 l 122 608 q 83 676 122 657 q 172 725 119 725 q 267 607 267 725 z "},"í":{"ha":385,"x_min":-36,"x_max":306,"o":"m 267 607 l 267 103 q 306 36 267 53 q 217 -12 269 -12 q 122 104 122 -12 l 122 608 q 83 676 122 657 q 172 725 119 725 q 267 607 267 725 m 285 817 q 249 790 274 790 q 197 810 224 790 l 61 917 q 10 939 32 939 q -28 932 -12 939 q -36 976 -36 956 q -28 1015 -36 997 q 34 1054 -7 1054 q 103 1037 75 1054 q 164 972 131 1019 l 285 817 z "},"î":{"ha":385,"x_min":-14,"x_max":400,"o":"m 267 607 l 267 103 q 306 36 267 53 q 217 -12 269 -12 q 122 104 122 -12 l 122 608 q 83 676 122 657 q 172 725 119 725 q 267 607 267 725 m 400 815 q 361 790 390 790 q 308 813 332 790 l 193 925 l 76 813 q 25 790 54 790 q -14 815 -4 790 l 82 960 q 132 1019 108 1000 q 193 1038 156 1038 q 254 1019 231 1038 q 304 960 278 1000 l 400 815 z "},"ï":{"ha":385,"x_min":-8,"x_max":396,"o":"m 267 607 l 267 103 q 306 36 267 53 q 217 -12 269 -12 q 122 104 122 -12 l 122 608 q 83 676 122 657 q 172 725 119 725 q 267 607 267 725 m 321 994 q 338 994 321 994 q 376 974 356 994 q 396 917 396 953 q 365 851 396 882 q 299 821 335 821 q 244 842 264 821 q 224 898 224 863 q 255 964 224 933 q 321 994 286 994 m 89 994 q 106 994 89 994 q 144 974 124 994 q 164 917 164 953 q 133 851 164 882 q 67 821 103 821 q 12 842 32 821 q -8 898 -8 863 q 23 964 -8 933 q 89 994 54 994 z "},"ð":{"ha":813,"x_min":68,"x_max":743,"o":"m 279 148 q 310 110 279 148 q 426 72 340 72 q 558 142 513 72 q 596 301 596 197 q 593 356 596 328 q 528 571 583 503 q 388 639 474 639 q 260 576 301 639 q 218 404 218 514 q 279 148 218 224 m 561 878 q 692 630 640 767 q 743 380 743 493 q 713 190 743 267 q 631 69 682 113 q 398 -12 532 -12 q 166 84 264 -12 q 68 356 68 181 q 165 628 68 532 q 407 725 263 725 q 543 683 482 725 q 454 846 504 774 l 264 790 q 251 824 251 807 q 343 897 251 868 l 401 914 q 282 1033 347 978 q 331 1063 299 1063 q 508 944 404 1063 l 689 996 q 701 978 700 988 q 701 959 701 969 q 683 931 701 949 q 582 883 656 903 l 561 878 z "},"ñ":{"ha":842,"x_min":83,"x_max":765,"o":"m 254 822 q 210 882 210 828 q 250 973 210 936 q 344 1010 290 1010 q 457 972 397 1010 q 547 935 517 935 q 599 955 578 935 q 622 1011 619 975 q 665 949 665 1001 q 624 859 665 896 q 532 822 583 822 q 418 860 481 822 q 328 899 356 899 q 278 878 300 899 q 254 822 256 858 m 726 482 l 726 103 q 765 36 726 53 q 676 -12 729 -12 q 582 104 582 -12 l 582 468 q 464 603 582 603 q 345 550 401 603 q 267 407 289 497 l 267 103 q 306 36 267 53 q 217 -12 269 -12 q 122 104 122 -12 l 122 608 q 83 676 122 657 q 172 725 119 725 q 267 607 267 725 l 267 561 q 369 681 303 636 q 525 725 436 725 q 670 664 614 725 q 726 482 726 603 z "},"ò":{"ha":813,"x_min":68,"x_max":744,"o":"m 465 981 q 523 1051 496 1031 q 592 1071 550 1071 q 654 1036 633 1071 q 667 995 667 1017 q 660 953 667 974 q 624 957 647 957 q 572 931 601 957 l 446 813 q 397 789 419 789 q 358 815 371 789 l 465 981 m 539 566 q 510 602 539 566 q 394 639 481 639 q 261 575 307 639 q 215 392 215 511 q 275 147 215 221 q 421 72 335 72 q 552 138 507 72 q 597 321 597 203 q 539 566 597 493 m 68 356 q 68 444 68 356 q 165 628 68 532 q 406 725 263 725 q 647 628 550 725 q 744 356 744 531 q 647 84 744 181 q 407 -12 550 -12 q 166 84 264 -12 q 68 356 68 181 z "},"ó":{"ha":813,"x_min":68,"x_max":744,"o":"m 539 566 q 510 602 539 566 q 394 639 481 639 q 261 575 307 639 q 215 392 215 511 q 275 147 215 221 q 421 72 335 72 q 552 138 507 72 q 597 321 597 203 q 539 566 597 493 m 68 356 q 68 444 68 356 q 165 628 68 532 q 406 725 263 725 q 647 628 550 725 q 744 356 744 531 q 647 84 744 181 q 407 -12 550 -12 q 166 84 264 -12 q 68 356 68 181 m 496 817 q 460 790 485 790 q 408 810 435 790 l 272 917 q 221 939 243 939 q 183 932 199 939 q 175 976 175 956 q 183 1015 175 997 q 245 1054 204 1054 q 314 1037 286 1054 q 375 972 342 1019 l 496 817 z "},"ô":{"ha":813,"x_min":68,"x_max":744,"o":"m 289 813 q 238 790 267 790 q 199 815 208 790 l 294 960 q 345 1019 321 1000 q 406 1038 369 1038 q 466 1019 442 1038 q 517 960 490 1000 l 613 815 q 574 790 603 790 q 521 813 544 790 l 406 925 l 289 813 m 275 147 q 305 109 275 147 q 421 72 335 72 q 552 138 507 72 q 597 321 597 203 q 539 566 597 493 q 394 639 481 639 q 261 575 307 639 q 215 392 215 511 q 275 147 215 221 m 68 356 q 68 444 68 356 q 165 628 68 532 q 406 725 263 725 q 647 628 550 725 q 744 356 744 531 q 647 84 744 181 q 407 -12 550 -12 q 166 84 264 -12 q 68 356 68 181 z "},"õ":{"ha":813,"x_min":68,"x_max":744,"o":"m 324 1010 q 351 1010 324 1010 q 438 972 378 1010 q 528 935 497 935 q 579 955 558 935 q 603 1011 600 975 q 646 949 646 1001 q 605 859 646 896 q 513 822 564 822 q 399 860 461 822 q 308 899 336 899 q 258 878 281 899 q 235 822 236 858 q 190 882 190 828 q 231 973 190 936 q 324 1010 271 1010 m 539 566 q 510 602 539 566 q 394 639 481 639 q 261 575 307 639 q 215 392 215 511 q 275 147 215 221 q 421 72 335 72 q 552 138 507 72 q 597 321 597 203 q 539 566 597 493 m 68 356 q 68 444 68 356 q 165 628 68 532 q 406 725 263 725 q 647 628 550 725 q 744 356 744 531 q 647 84 744 181 q 407 -12 550 -12 q 166 84 264 -12 q 68 356 68 181 z "},"ö":{"ha":813,"x_min":68,"x_max":744,"o":"m 539 566 q 510 602 539 566 q 394 639 481 639 q 261 575 307 639 q 215 392 215 511 q 275 147 215 221 q 421 72 335 72 q 552 138 507 72 q 597 321 597 203 q 539 566 597 493 m 68 356 q 68 444 68 356 q 165 628 68 532 q 406 725 263 725 q 647 628 550 725 q 744 356 744 531 q 647 84 744 181 q 407 -12 550 -12 q 166 84 264 -12 q 68 356 68 181 m 532 994 q 549 994 532 994 q 587 974 567 994 q 607 917 607 953 q 576 851 607 882 q 510 821 546 821 q 455 842 475 821 q 435 898 435 863 q 466 964 435 933 q 532 994 497 994 m 300 994 q 317 994 300 994 q 355 974 335 994 q 375 917 375 953 q 344 851 375 882 q 278 821 314 821 q 223 842 243 821 q 203 898 203 863 q 234 964 203 933 q 300 994 265 994 z "},"÷":{"ha":889,"x_min":60,"x_max":831,"o":"m 193 626 l 825 626 q 831 599 831 615 q 697 504 831 504 l 68 504 q 60 536 60 518 q 193 626 60 626 m 461 408 q 482 408 461 408 q 527 384 503 408 q 551 317 551 360 q 515 239 551 275 q 437 203 479 203 q 370 227 394 203 q 346 293 346 251 q 383 372 346 335 q 461 408 419 408 m 461 931 q 482 931 461 931 q 527 907 503 931 q 551 841 551 883 q 515 763 551 799 q 437 726 479 726 q 370 751 394 726 q 346 817 346 775 q 383 894 346 858 q 461 931 419 931 z "},"ø":{"ha":872,"x_min":56,"x_max":758,"o":"m 278 143 q 419 72 331 72 q 552 138 507 72 q 597 321 597 203 q 572 496 597 422 l 278 143 m 536 569 q 396 639 485 639 q 261 575 307 639 q 215 392 215 511 q 240 217 215 290 l 536 569 m 665 607 q 744 344 744 507 q 647 84 744 181 q 407 -12 550 -12 q 201 53 290 -12 l 189 38 q 105 -12 147 -12 q 56 26 63 -12 q 146 104 106 56 l 147 106 q 68 367 68 203 q 165 628 68 532 q 407 725 263 725 q 611 660 525 725 l 624 674 q 708 725 667 725 q 758 685 750 725 q 667 608 719 665 l 665 607 z "},"ù":{"ha":842,"x_min":83,"x_max":765,"o":"m 374 815 l 481 981 q 538 1051 511 1031 q 607 1071 565 1071 q 669 1036 649 1071 q 682 995 682 1017 q 675 953 682 974 q 640 957 663 957 q 588 931 617 957 l 461 813 q 410 789 435 789 q 374 815 386 789 m 726 607 l 726 103 q 765 36 726 53 q 676 -12 729 -12 q 582 104 582 -12 l 582 114 q 364 -12 507 -12 q 185 48 249 -12 q 122 229 122 108 l 122 608 q 83 676 122 657 q 172 725 119 725 q 267 607 267 725 l 267 240 q 401 106 267 106 q 510 141 463 106 q 582 243 557 176 l 582 608 q 543 676 582 657 q 632 725 582 725 q 726 607 726 725 z "},"ú":{"ha":842,"x_min":83,"x_max":765,"o":"m 513 817 q 476 790 501 790 q 425 810 451 790 l 289 917 q 238 939 260 939 q 200 932 215 939 q 192 976 192 956 q 200 1015 192 997 q 262 1054 221 1054 q 331 1037 303 1054 q 392 972 358 1019 l 513 817 m 726 607 l 726 103 q 765 36 726 53 q 676 -12 729 -12 q 582 104 582 -12 l 582 114 q 364 -12 507 -12 q 185 48 249 -12 q 122 229 122 108 l 122 608 q 83 676 122 657 q 172 725 119 725 q 267 607 267 725 l 267 240 q 401 106 267 106 q 510 141 463 106 q 582 243 557 176 l 582 608 q 543 676 582 657 q 632 725 582 725 q 726 607 726 725 z "},"û":{"ha":842,"x_min":83,"x_max":765,"o":"m 304 813 q 253 790 282 790 q 214 815 224 790 l 310 960 q 360 1019 336 1000 q 421 1038 383 1038 q 482 1019 458 1038 q 532 960 506 1000 l 628 815 q 589 790 618 790 q 536 813 560 790 l 421 925 l 304 813 m 726 607 l 726 103 q 765 36 726 53 q 676 -12 729 -12 q 582 104 582 -12 l 582 114 q 364 -12 507 -12 q 185 48 249 -12 q 122 229 122 108 l 122 608 q 83 676 122 657 q 172 725 119 725 q 267 607 267 725 l 267 240 q 401 106 267 106 q 510 141 463 106 q 582 243 557 176 l 582 608 q 543 676 582 657 q 632 725 582 725 q 726 607 726 725 z "},"ü":{"ha":842,"x_min":83,"x_max":765,"o":"m 624 917 q 624 900 624 917 q 593 851 624 882 q 527 821 563 821 q 472 842 492 821 q 451 898 451 863 q 483 964 451 933 q 549 994 514 994 q 603 974 583 994 q 624 917 624 953 m 392 917 q 392 900 392 917 q 361 851 392 882 q 295 821 331 821 q 240 842 260 821 q 219 898 219 863 q 251 964 219 933 q 317 994 282 994 q 372 974 351 994 q 392 917 392 953 m 726 607 l 726 103 q 765 36 726 53 q 676 -12 729 -12 q 582 104 582 -12 l 582 114 q 364 -12 507 -12 q 185 48 249 -12 q 122 229 122 108 l 122 608 q 83 676 122 657 q 172 725 119 725 q 267 607 267 725 l 267 240 q 401 106 267 106 q 510 141 463 106 q 582 243 557 176 l 582 608 q 543 676 582 657 q 632 725 582 725 q 726 607 726 725 z "},"ý":{"ha":776,"x_min":44,"x_max":754,"o":"m 494 817 q 458 790 483 790 q 407 810 433 790 l 271 917 q 219 939 242 939 q 182 932 197 939 q 174 976 174 956 q 183 1015 174 997 q 244 1054 203 1054 q 313 1037 285 1054 q 374 972 340 1019 l 494 817 m 597 594 q 608 653 608 625 q 592 703 608 682 q 668 725 622 725 q 742 682 714 725 q 754 633 754 661 q 740 568 754 604 l 458 -174 q 263 -353 390 -353 q 181 -327 211 -353 q 151 -262 151 -301 q 174 -197 151 -224 q 243 -226 200 -226 q 336 -140 307 -226 l 382 -12 q 378 -12 381 -12 q 312 13 342 -12 q 267 85 282 38 l 93 601 q 44 681 72 665 q 128 725 81 725 q 200 699 175 725 q 240 615 225 672 l 413 75 l 597 594 z "},"þ":{"ha":832,"x_min":83,"x_max":765,"o":"m 432 90 q 563 163 508 90 q 617 356 617 235 q 563 545 617 476 q 432 614 510 614 q 267 504 322 614 l 267 179 q 432 90 326 90 m 267 949 l 267 626 q 466 725 342 725 q 678 628 590 725 q 765 357 765 532 q 669 85 765 182 q 446 -12 574 -12 q 267 60 342 -12 l 267 -235 q 306 -303 267 -286 q 217 -351 269 -351 q 122 -235 122 -351 l 122 950 q 83 1017 122 1000 q 172 1065 115 1065 q 267 949 267 1065 z "},"ÿ":{"ha":776,"x_min":44,"x_max":754,"o":"m 607 917 q 607 900 607 917 q 576 851 607 882 q 510 821 546 821 q 455 842 475 821 q 435 898 435 863 q 466 964 435 933 q 532 994 497 994 q 587 974 567 994 q 607 917 607 953 m 375 917 q 375 900 375 917 q 344 851 375 882 q 278 821 314 821 q 223 842 243 821 q 203 898 203 863 q 234 964 203 933 q 300 994 265 994 q 355 974 335 994 q 375 917 375 953 m 597 594 q 608 653 608 625 q 592 703 608 682 q 668 725 622 725 q 742 682 714 725 q 754 633 754 661 q 740 568 754 604 l 458 -174 q 263 -353 390 -353 q 181 -327 211 -353 q 151 -262 151 -301 q 174 -197 151 -224 q 243 -226 200 -226 q 336 -140 307 -226 l 382 -12 q 378 -12 381 -12 q 312 13 342 -12 q 267 85 282 38 l 93 601 q 44 681 72 665 q 128 725 81 725 q 200 699 175 725 q 240 615 225 672 l 413 75 l 597 594 z "},"ı":{"ha":385,"x_min":83,"x_max":306,"o":"m 267 607 l 267 103 q 306 36 267 53 q 217 -12 269 -12 q 122 104 122 -12 l 122 608 q 83 676 122 657 q 172 725 119 725 q 267 607 267 725 z "},"Ł":{"ha":814,"x_min":18,"x_max":761,"o":"m 396 111 l 600 111 q 724 168 682 111 q 761 106 761 153 q 722 30 761 60 q 603 0 683 0 l 375 0 q 206 44 258 0 q 154 196 154 89 l 154 482 l 46 429 l 26 449 q 18 467 18 460 q 21 485 18 475 q 28 505 24 494 q 46 526 32 515 q 94 557 61 539 l 154 586 l 154 901 q 117 967 154 950 q 206 1015 150 1015 q 301 900 301 1015 l 301 658 l 460 736 q 476 718 468 733 q 483 688 483 703 q 413 608 483 643 l 301 554 l 301 207 q 324 133 301 156 q 396 111 346 111 z "},"ł":{"ha":500,"x_min":17,"x_max":482,"o":"m 482 681 q 411 601 482 635 l 315 556 l 315 103 q 354 36 315 53 q 265 -12 318 -12 q 171 104 171 -12 l 171 485 l 44 424 q 24 443 32 428 q 17 475 17 458 q 93 550 17 513 l 171 588 l 171 950 q 132 1018 171 999 q 221 1065 165 1065 q 315 949 315 1065 l 315 658 l 458 729 q 474 710 467 725 q 482 681 482 696 z "},"Œ":{"ha":1515,"x_min":97,"x_max":1432,"o":"m 567 903 q 325 788 411 903 q 251 532 251 690 q 350 194 251 314 q 567 96 433 96 q 749 128 667 96 l 749 875 q 567 903 665 903 m 992 118 l 1256 118 q 1389 175 1340 118 q 1432 104 1432 153 q 1392 28 1432 56 q 1271 0 1353 0 l 593 0 q 218 131 339 0 q 97 498 97 263 q 228 869 97 733 q 599 1004 358 1004 l 1272 1004 q 1432 919 1432 1004 q 1389 851 1432 872 q 1256 885 1344 885 l 896 885 l 896 583 l 1160 583 q 1283 567 1246 583 q 1319 510 1319 551 q 1282 446 1319 469 q 1147 465 1238 465 l 896 465 l 896 214 q 918 140 896 163 q 992 118 940 118 z "},"œ":{"ha":1224,"x_min":68,"x_max":1178,"o":"m 974 438 q 1029 499 1029 442 q 997 596 1029 557 q 908 635 965 635 q 806 578 851 635 q 749 417 760 521 l 974 438 m 279 148 q 310 110 279 148 q 426 72 340 72 q 558 142 513 72 q 596 301 596 197 q 593 356 596 328 q 528 571 583 503 q 388 639 474 639 q 260 576 301 639 q 218 404 218 514 q 279 148 218 224 m 744 343 q 960 96 747 96 q 1142 174 1064 96 q 1165 131 1165 163 q 1094 33 1165 79 q 929 -12 1024 -12 q 664 107 753 -12 q 407 -12 572 -12 q 166 84 264 -12 q 68 356 68 181 q 165 628 68 532 q 407 725 263 725 q 563 689 492 725 q 678 585 633 653 q 792 688 725 650 q 932 725 860 725 q 1109 653 1040 725 q 1178 486 1178 581 q 1142 386 1178 418 q 1024 353 1106 354 l 744 343 z "},"Š":{"ha":918,"x_min":99,"x_max":839,"o":"m 521 1101 q 509 1092 521 1101 q 460 1083 497 1083 q 399 1101 422 1083 q 349 1161 375 1119 l 253 1307 q 291 1331 261 1331 q 343 1308 321 1331 l 460 1196 l 575 1308 q 628 1331 599 1331 q 667 1307 658 1331 l 571 1161 q 521 1101 544 1119 m 467 919 q 423 919 467 919 q 324 883 378 919 q 269 789 269 846 q 312 690 269 732 q 417 621 354 649 q 554 558 481 593 q 691 488 628 522 q 797 400 754 454 q 839 281 839 346 q 728 71 839 154 q 462 -12 618 -12 q 202 53 306 -12 q 99 221 99 119 q 128 299 99 269 q 205 329 158 329 q 283 293 251 329 q 251 215 251 265 q 308 126 251 164 q 461 89 364 89 q 626 136 558 89 q 693 247 693 183 q 634 356 693 310 q 492 435 575 401 q 324 508 408 469 q 181 610 240 547 q 122 753 122 672 q 226 945 122 871 q 476 1019 331 1019 q 715 962 621 1019 q 808 821 808 904 q 784 753 808 778 q 724 728 760 728 q 649 747 688 728 q 657 793 657 772 q 607 880 657 840 q 467 919 557 919 z "},"š":{"ha":707,"x_min":68,"x_max":642,"o":"m 415 808 q 403 799 415 808 q 354 790 392 790 q 293 808 317 790 q 243 868 269 826 l 147 1014 q 185 1038 156 1038 q 238 1015 215 1038 l 354 903 l 469 1015 q 523 1038 493 1038 q 561 1014 553 1038 l 465 868 q 415 808 439 826 m 366 638 q 338 638 366 638 q 276 613 310 638 q 243 551 243 588 q 284 484 243 514 q 383 428 325 454 q 501 374 442 403 q 601 299 560 344 q 642 197 642 253 q 559 48 642 108 q 352 -12 476 -12 q 149 34 228 -12 q 68 153 69 81 q 96 224 68 199 q 165 250 124 250 q 232 219 206 250 q 211 158 211 194 q 247 99 211 122 q 348 75 282 75 q 454 103 414 75 q 494 172 494 131 q 453 245 494 214 q 355 301 413 276 q 239 354 297 326 q 140 425 181 382 q 99 522 99 468 q 176 666 99 607 q 361 725 253 725 q 547 684 469 725 q 624 578 624 643 q 600 523 624 543 q 540 503 576 503 q 474 524 503 503 q 481 565 481 538 q 451 615 481 593 q 366 638 422 638 z "},"Ÿ":{"ha":851,"x_min":18,"x_max":824,"o":"m 644 1210 q 644 1193 644 1210 q 614 1144 644 1175 q 548 1114 583 1114 q 492 1135 513 1114 q 472 1191 472 1156 q 503 1257 472 1226 q 569 1288 535 1288 q 624 1267 604 1288 q 644 1210 644 1246 m 413 1210 q 413 1193 413 1210 q 382 1144 413 1175 q 316 1114 351 1114 q 260 1135 281 1114 q 240 1191 240 1156 q 272 1257 240 1226 q 338 1288 303 1288 q 392 1267 372 1288 q 413 1210 413 1246 m 444 -11 q 354 111 354 -11 l 356 442 l 101 881 q 18 935 67 933 q 115 1015 42 1015 q 240 925 189 1015 l 440 575 l 644 881 q 671 944 671 917 q 650 994 671 972 q 733 1015 689 1015 q 800 995 776 1015 q 824 939 824 975 q 793 857 824 903 l 501 444 l 500 97 q 524 13 500 43 q 444 -11 489 -11 z "},"Ž":{"ha":874,"x_min":63,"x_max":807,"o":"m 497 1101 q 485 1092 497 1101 q 436 1083 474 1083 q 375 1101 399 1083 q 325 1161 351 1119 l 229 1307 q 267 1331 238 1331 q 319 1308 297 1331 l 436 1196 l 551 1308 q 605 1331 575 1331 q 643 1307 635 1331 l 547 1161 q 497 1101 521 1119 m 807 97 q 617 0 807 0 l 199 0 q 100 31 138 0 q 63 115 63 63 q 126 235 63 167 l 667 890 q 267 864 454 864 q 81 961 81 864 q 107 1024 81 997 q 264 1004 164 1004 l 671 1004 q 768 972 731 1004 q 806 890 806 940 q 742 767 806 839 l 204 111 l 629 132 q 779 168 728 136 q 807 97 807 140 z "},"ž":{"ha":701,"x_min":81,"x_max":636,"o":"m 411 808 q 399 799 411 808 q 350 790 388 790 q 289 808 313 790 q 239 868 265 826 l 143 1014 q 181 1038 151 1038 q 233 1015 211 1038 l 350 903 l 465 1015 q 519 1038 489 1038 q 557 1014 549 1038 l 461 868 q 411 808 435 826 m 633 82 q 467 0 633 0 l 200 0 q 112 28 143 0 q 81 103 81 57 q 133 201 81 149 l 511 608 q 253 588 349 588 q 86 672 86 588 q 108 728 86 706 q 247 711 161 711 l 517 711 q 605 683 574 711 q 636 608 636 654 q 583 508 636 563 l 211 103 l 472 114 q 610 151 561 115 q 633 82 633 128 z "},"ƒ":{"ha":726,"x_min":-111,"x_max":682,"o":"m 272 782 q 368 956 301 896 q 518 1015 435 1015 q 642 984 601 1015 q 682 913 682 953 q 658 854 682 874 q 551 913 619 913 q 418 782 453 913 l 386 654 l 589 654 q 593 632 593 649 q 573 597 593 615 q 499 565 553 579 q 367 551 446 551 l 361 551 l 189 -149 q -7 -353 140 -353 q -76 -328 -50 -353 q -111 -265 -103 -304 q -5 -235 -39 -265 q 46 -132 29 -204 l 215 551 q 140 571 165 553 q 115 616 115 589 q 139 664 115 643 q 232 654 168 654 l 240 654 l 272 782 z "},"ˆ":{"ha":447,"x_min":17,"x_max":431,"o":"m 431 815 q 392 790 421 790 q 339 813 363 790 l 224 925 l 107 813 q 56 790 85 790 q 17 815 26 790 l 113 960 q 163 1019 139 1000 q 224 1038 186 1038 q 285 1019 261 1038 q 335 960 308 1000 l 431 815 z "},"ˇ":{"ha":447,"x_min":17,"x_max":431,"o":"m 339 1015 q 392 1038 363 1038 q 431 1014 422 1038 l 335 868 q 285 808 308 826 q 224 790 261 790 q 163 808 186 790 q 113 868 139 826 l 17 1014 q 55 1038 25 1038 q 107 1015 85 1038 l 224 903 l 339 1015 z "},"˘":{"ha":465,"x_min":17,"x_max":449,"o":"m 329 979 q 376 986 347 986 q 426 970 404 986 q 449 926 449 954 q 391 842 449 878 q 233 807 333 807 q 74 842 132 807 q 17 926 17 878 q 38 970 17 954 q 88 986 60 986 q 136 979 115 986 q 233 865 136 865 q 329 979 329 865 z "},"˙":{"ha":211,"x_min":17,"x_max":194,"o":"m 117 1011 q 135 1011 117 1011 q 174 990 153 1011 q 194 932 194 968 q 163 865 194 896 q 94 833 131 833 q 38 854 58 833 q 17 910 17 875 q 49 978 17 946 q 117 1011 81 1011 z "},"˚":{"ha":329,"x_min":17,"x_max":313,"o":"m 222 896 q 158 996 222 996 q 119 978 132 996 q 107 936 107 961 q 169 836 107 836 q 222 896 222 836 m 60 1009 q 81 1025 60 1009 q 165 1042 103 1042 q 270 1008 228 1042 q 313 915 313 975 q 270 823 313 856 q 165 790 228 790 q 59 823 101 790 q 17 916 17 856 q 60 1009 17 976 z "},"˛":{"ha":393,"x_min":17,"x_max":374,"o":"m 168 -185 q 260 -258 168 -258 q 364 -228 313 -258 q 374 -256 374 -240 q 327 -321 374 -292 q 203 -350 281 -350 q 71 -310 125 -350 q 17 -201 17 -271 q 89 -78 17 -131 q 283 -15 161 -26 l 283 -79 q 168 -185 168 -108 z "},"˜":{"ha":508,"x_min":26,"x_max":482,"o":"m 160 1010 q 187 1010 160 1010 q 274 972 214 1010 q 364 935 333 935 q 415 955 394 935 q 439 1011 436 975 q 482 949 482 1001 q 441 859 482 896 q 349 822 400 822 q 235 860 297 822 q 144 899 172 899 q 94 878 117 899 q 71 822 72 858 q 26 882 26 828 q 67 973 26 936 q 160 1010 107 1010 z "},"˝":{"ha":474,"x_min":17,"x_max":457,"o":"m 226 988 q 169 950 194 988 l 83 814 q 51 792 69 792 q 17 810 32 792 l 63 961 q 104 1042 79 1018 q 163 1067 129 1067 q 213 1046 196 1067 q 229 1008 229 1025 q 229 988 229 992 q 226 988 228 988 m 444 975 q 379 938 414 975 l 269 813 q 229 792 249 792 q 197 817 210 792 l 269 960 q 393 1067 324 1067 q 447 1038 431 1067 q 457 1006 457 1022 q 450 975 457 990 q 444 975 447 975 z "},"ँ":{"ha":0,"x_min":-474,"x_max":60,"o":"m -137 1335 q -137 1317 -137 1335 q -158 1278 -137 1299 q -215 1257 -178 1257 q -282 1288 -251 1257 q -312 1356 -312 1319 q -292 1413 -312 1392 q -236 1433 -272 1433 q -169 1402 -200 1433 q -137 1335 -137 1371 m -221 1151 q -95 1181 -154 1151 q -7 1271 -36 1211 q 40 1247 19 1268 q 60 1196 60 1225 q -12 1093 60 1132 q -188 1054 -85 1054 q -383 1113 -292 1054 q -474 1225 -474 1171 q -447 1265 -474 1253 q -221 1151 -362 1151 z "},"ं":{"ha":0,"x_min":-285,"x_max":-108,"o":"m -108 1124 q -108 1107 -108 1124 q -129 1068 -108 1089 q -186 1047 -150 1047 q -253 1078 -222 1047 q -285 1144 -285 1108 q -264 1201 -285 1181 q -208 1222 -243 1222 q -140 1191 -172 1222 q -108 1124 -108 1160 z "},"ः":{"ha":424,"x_min":132,"x_max":307,"o":"m 307 632 q 307 614 307 632 q 287 575 307 596 q 230 554 267 554 q 163 585 193 554 q 132 653 132 617 q 152 710 132 689 q 208 731 172 731 q 276 699 244 731 q 307 632 307 668 m 307 190 q 307 172 307 190 q 287 133 307 154 q 231 113 267 113 q 163 144 194 113 q 132 210 132 175 q 152 267 132 246 q 208 288 172 288 q 276 256 244 288 q 307 190 307 225 z "},"अ":{"ha":1022,"x_min":22,"x_max":1082,"o":"m 890 664 l 883 126 q 900 -1 883 26 q 861 -8 882 -8 q 761 144 761 -8 q 772 383 761 264 q 681 374 731 374 q 575 400 632 374 q 592 317 592 358 q 535 179 592 232 q 382 126 478 126 q 264 150 322 126 q 163 208 206 174 q 89 283 121 243 q 22 413 22 363 q 60 458 22 444 q 178 303 106 367 q 342 239 251 239 q 446 274 404 239 q 488 376 488 308 q 433 481 488 443 q 331 456 383 456 q 240 480 279 456 q 201 544 201 504 q 228 603 201 583 q 300 622 254 622 q 389 597 346 622 q 465 717 465 650 q 432 788 465 764 q 347 813 399 813 q 189 756 256 813 q 147 824 147 782 q 190 892 147 867 q 293 918 233 918 q 480 845 401 918 q 558 678 558 772 q 490 525 558 585 q 639 472 563 472 q 767 507 715 472 l 767 672 q 749 800 767 772 l 738 800 q 618 885 618 800 q 622 911 618 903 l 963 911 q 1082 829 1082 911 q 1076 800 1082 811 l 847 800 q 890 664 890 769 z "},"आ":{"ha":1404,"x_min":22,"x_max":1464,"o":"m 890 664 l 883 126 q 900 -1 883 26 q 861 -8 882 -8 q 761 144 761 -8 q 772 383 761 264 q 681 374 731 374 q 575 400 632 374 q 592 317 592 358 q 535 179 592 232 q 382 126 478 126 q 264 150 322 126 q 163 208 206 174 q 89 283 121 243 q 22 413 22 363 q 60 458 22 444 q 178 303 106 367 q 342 239 251 239 q 446 274 404 239 q 488 376 488 308 q 433 481 488 443 q 331 456 383 456 q 240 480 279 456 q 201 544 201 504 q 228 603 201 583 q 300 622 254 622 q 389 597 346 622 q 465 717 465 650 q 432 788 465 764 q 347 813 399 813 q 189 756 256 813 q 147 824 147 782 q 190 892 147 867 q 293 918 233 918 q 480 845 401 918 q 558 678 558 772 q 490 525 558 585 q 639 472 563 472 q 767 507 715 472 l 767 672 q 749 800 767 772 l 738 800 q 618 885 618 800 q 622 911 618 903 l 1346 911 q 1464 829 1464 911 q 1458 800 1464 811 l 1236 800 q 1278 664 1278 771 l 1271 126 q 1289 -1 1271 26 q 1250 -8 1272 -8 q 1149 149 1149 -8 l 1156 672 q 1138 800 1156 772 l 847 800 q 890 664 890 769 z "},"इ":{"ha":678,"x_min":-81,"x_max":747,"o":"m 286 685 l 375 683 q 449 729 449 683 q 408 800 449 768 l 38 800 q -81 885 -81 800 q -76 911 -81 903 l 628 911 q 747 829 747 911 q 742 800 747 811 l 496 800 q 553 690 553 747 q 516 602 553 633 q 406 571 479 571 l 317 572 q 230 555 269 572 q 190 501 190 538 q 215 446 190 465 q 282 426 240 426 l 386 433 q 550 369 476 433 q 624 216 624 306 q 556 74 624 126 q 385 21 488 21 q 269 33 325 21 q 438 -99 340 -99 q 515 -69 486 -99 q 553 -132 553 -92 q 525 -195 553 -172 q 451 -218 497 -218 q 303 -143 369 -218 q 193 58 236 -68 q 60 215 60 115 q 76 260 60 242 q 126 279 93 279 q 188 244 160 279 q 228 156 217 208 q 341 131 267 131 q 473 162 415 131 q 531 247 531 193 q 508 300 531 281 q 443 319 485 319 q 336 314 443 319 q 173 383 249 314 q 97 530 97 451 q 147 647 97 608 q 286 685 197 685 z "},"ई":{"ha":678,"x_min":-81,"x_max":747,"o":"m 286 685 l 375 683 q 449 729 449 683 q 408 800 449 768 l 38 800 q -81 885 -81 800 q -76 911 -81 903 l 303 911 q 230 1003 261 944 q 199 1128 199 1061 q 241 1242 199 1196 q 349 1288 283 1288 q 459 1238 415 1288 q 503 1131 503 1188 q 456 1074 503 1074 q 368 1178 443 1178 q 314 1153 336 1178 q 292 1085 292 1128 q 394 911 292 988 l 628 911 q 747 829 747 911 q 742 800 747 811 l 496 800 q 553 690 553 747 q 516 602 553 633 q 406 571 479 571 l 317 572 q 230 555 269 572 q 190 501 190 538 q 215 446 190 465 q 282 426 240 426 l 386 433 q 550 369 476 433 q 624 216 624 306 q 556 74 624 126 q 385 21 488 21 q 269 33 325 21 q 438 -99 340 -99 q 515 -69 486 -99 q 553 -132 553 -92 q 525 -195 553 -172 q 451 -218 497 -218 q 303 -143 369 -218 q 193 58 236 -68 q 60 215 60 115 q 76 260 60 242 q 126 279 93 279 q 188 244 160 279 q 228 156 217 208 q 341 131 267 131 q 473 162 415 131 q 531 247 531 193 q 508 300 531 281 q 443 319 485 319 l 336 314 q 173 383 249 314 q 97 530 97 451 q 147 647 97 608 q 286 685 197 685 z "},"उ":{"ha":697,"x_min":-64,"x_max":757,"o":"m 638 911 q 757 829 757 911 q 751 800 757 822 l 506 800 q 574 629 574 721 q 514 478 574 538 q 611 261 611 374 q 554 124 611 176 q 410 71 497 71 q 251 110 324 71 q 131 201 178 149 q 56 305 85 254 q 28 388 28 356 q 65 429 28 419 q 188 256 113 328 q 360 183 264 183 q 463 219 422 183 q 504 319 504 254 q 453 435 504 383 q 351 413 404 413 q 258 437 297 413 q 219 501 219 461 q 248 560 219 540 q 318 581 276 581 q 413 556 360 581 q 475 675 475 603 q 415 800 475 747 l 56 800 q -64 885 -64 800 q -60 911 -64 903 l 638 911 z "},"ऊ":{"ha":1049,"x_min":-64,"x_max":1097,"o":"m 978 911 q 1097 829 1097 911 q 1092 800 1097 811 l 507 800 q 575 630 575 721 q 515 476 575 539 q 578 376 557 431 q 655 491 606 446 q 772 536 704 536 q 941 456 864 536 q 1018 274 1018 375 q 969 142 1018 197 q 842 86 919 86 q 768 111 800 86 q 736 175 736 136 q 738 189 736 183 q 774 185 756 185 q 878 223 833 185 q 922 325 922 261 q 893 399 922 365 q 823 432 864 432 q 755 419 782 432 q 705 378 728 407 q 670 331 682 349 q 638 269 658 313 q 611 215 617 225 q 528 109 576 147 q 401 71 479 71 q 251 110 324 71 q 131 201 178 149 q 56 305 85 254 q 28 388 28 356 q 65 429 28 419 q 188 256 113 328 q 360 183 264 183 q 463 219 422 183 q 504 319 504 254 q 454 435 504 385 q 350 413 403 413 q 259 437 297 413 q 221 501 221 461 q 249 560 221 540 q 318 581 276 581 q 414 556 360 581 q 476 675 476 603 q 415 800 476 747 l 56 800 q -64 885 -64 800 q -60 911 -64 903 l 978 911 z "},"ऋ":{"ha":993,"x_min":-81,"x_max":1053,"o":"m 426 472 l 428 672 q 411 800 428 774 l 38 800 q -81 885 -81 800 q -76 911 -81 903 l 933 911 q 1053 829 1053 911 q 1046 800 1053 814 l 508 800 q 550 678 550 771 q 547 418 550 585 q 597 414 569 414 q 750 461 697 414 q 710 559 710 521 q 733 622 710 597 q 794 647 756 647 q 867 606 832 647 q 901 510 901 565 q 863 407 901 454 q 906 344 892 367 q 935 283 921 322 q 950 200 950 243 q 922 122 950 157 q 848 88 894 88 q 773 117 801 88 q 744 193 744 147 q 781 189 757 189 q 827 207 806 189 q 849 264 849 225 q 815 363 849 303 q 644 314 742 314 q 546 328 597 314 q 543 112 543 197 q 561 -1 543 26 q 522 -8 544 -8 q 424 132 424 -8 q 440 324 424 236 q 121 185 233 185 q 51 206 79 185 q 22 278 22 228 q 374 422 149 278 l 343 444 q 312 469 318 464 q 285 488 306 474 q 254 507 264 503 q 228 519 244 511 q 167 532 199 532 q 109 515 135 532 q 74 465 83 497 q 31 496 47 474 q 14 555 14 518 q 47 618 14 592 q 132 644 79 644 q 231 619 185 644 q 339 542 278 594 q 426 472 400 490 z "},"ऌ":{"ha":994,"x_min":-81,"x_max":1054,"o":"m 935 911 q 1054 829 1054 911 q 1049 800 1054 811 l 679 800 q 721 664 721 771 q 719 592 721 618 q 844 492 793 560 q 894 361 894 425 q 868 245 894 297 q 810 158 842 193 q 753 79 779 122 q 726 0 726 36 q 750 -56 726 -36 q 806 -76 774 -76 q 935 36 893 -76 q 1003 -47 1003 19 q 963 -135 1003 -97 q 849 -174 922 -174 q 701 -108 775 -174 q 628 54 628 -42 q 652 146 628 99 q 706 228 676 193 q 785 390 785 317 q 752 477 785 443 q 668 511 719 511 q 532 421 582 511 q 547 340 547 379 q 528 269 547 301 q 469 238 508 238 q 406 271 429 238 q 382 356 382 304 q 415 469 382 408 q 306 515 369 515 q 208 469 243 515 q 174 353 174 424 q 307 38 174 192 q 267 14 296 14 q 185 72 238 14 q 92 224 133 131 q 50 413 50 318 q 110 563 50 508 q 257 618 169 618 q 457 532 367 618 q 599 611 517 600 l 599 672 q 581 800 599 772 l 38 800 q -81 885 -81 800 q -76 911 -81 903 l 935 911 z "},"ऍ":{"ha":790,"x_min":-81,"x_max":850,"o":"m 656 1196 q 583 1093 656 1132 q 408 1054 511 1054 q 213 1113 304 1054 q 122 1225 122 1171 q 149 1265 122 1253 q 375 1151 233 1151 q 501 1181 442 1151 q 589 1271 560 1211 q 635 1247 615 1268 q 656 1196 656 1225 m 115 449 l 118 668 q 101 800 118 772 l 38 800 q -81 885 -81 800 q -76 911 -81 903 l 731 911 q 850 829 850 911 q 844 800 850 811 l 618 800 q 696 547 696 676 q 656 424 696 472 q 556 376 617 376 q 456 408 494 376 q 417 490 418 439 q 474 479 447 479 q 557 513 524 479 q 590 610 590 546 q 538 800 590 713 l 199 800 q 240 664 240 771 l 238 443 q 288 333 238 383 q 410 247 339 283 q 553 175 482 211 q 676 88 625 139 q 726 -13 726 38 q 701 -94 726 -64 q 636 -124 676 -124 q 572 -106 596 -124 q 535 -47 535 -75 q 585 -32 565 -47 q 606 10 606 -17 q 555 88 606 50 q 433 158 504 125 q 289 230 361 192 q 166 324 217 268 q 115 449 115 381 z "},"ऎ":{"ha":790,"x_min":-81,"x_max":850,"o":"m 115 449 l 118 668 q 101 800 118 772 l 38 800 q -81 885 -81 800 q -76 911 -81 903 l 447 911 q 539 933 499 911 q 579 989 579 956 q 558 1039 579 1022 q 501 1056 538 1056 q 401 1028 465 1056 q 296 1000 336 1000 q 156 1065 215 1000 q 96 1214 96 1131 q 134 1310 96 1269 q 232 1351 172 1351 q 292 1329 267 1351 q 318 1274 318 1307 q 314 1250 318 1263 q 223 1228 264 1250 q 182 1172 182 1206 q 257 1107 182 1107 q 360 1134 296 1107 q 465 1161 424 1161 q 606 1097 546 1161 q 665 949 665 1032 q 661 911 665 931 l 731 911 q 850 829 850 911 q 844 800 850 811 l 618 800 q 696 547 696 676 q 656 424 696 472 q 556 376 617 376 q 456 408 494 376 q 417 490 418 439 q 474 479 447 479 q 557 513 524 479 q 590 610 590 546 q 538 800 590 713 l 199 800 q 240 664 240 771 l 238 443 q 288 333 238 383 q 410 247 339 283 q 553 175 482 211 q 676 88 625 139 q 726 -13 726 38 q 701 -94 726 -64 q 636 -124 676 -124 q 572 -106 596 -124 q 535 -47 535 -75 q 585 -32 565 -47 q 606 10 606 -17 q 555 88 606 50 q 433 158 504 125 q 289 230 361 192 q 166 324 217 268 q 115 449 115 381 z "},"ए":{"ha":790,"x_min":-81,"x_max":850,"o":"m 115 449 l 118 668 q 101 800 118 772 l 38 800 q -81 885 -81 800 q -76 911 -81 903 l 731 911 q 850 829 850 911 q 844 800 850 811 l 618 800 q 696 547 696 676 q 656 424 696 472 q 556 376 617 376 q 456 408 494 376 q 417 490 418 439 q 474 479 447 479 q 557 513 524 479 q 590 610 590 546 q 538 800 590 713 l 199 800 q 240 664 240 771 l 238 443 q 288 333 238 383 q 410 247 339 283 q 553 175 482 211 q 676 88 625 139 q 726 -13 726 38 q 701 -94 726 -64 q 636 -124 676 -124 q 572 -106 596 -124 q 535 -47 535 -75 q 585 -32 565 -47 q 606 10 606 -17 q 555 88 606 50 q 433 158 504 125 q 289 230 361 192 q 166 324 217 268 q 115 449 115 381 z "},"ऐ":{"ha":790,"x_min":-81,"x_max":850,"o":"m 115 449 l 118 668 q 101 800 118 772 l 38 800 q -81 885 -81 800 q -76 911 -81 903 l 557 911 q 454 1076 513 1004 q 338 1147 396 1147 q 260 1094 281 1147 q 206 1129 225 1103 q 186 1190 186 1156 q 215 1251 186 1225 q 292 1278 243 1278 q 394 1245 342 1278 q 484 1165 446 1213 q 554 1064 522 1117 q 621 911 617 960 l 731 911 q 850 829 850 911 q 844 800 850 811 l 618 800 q 696 547 696 676 q 656 424 696 472 q 556 376 617 376 q 456 408 494 376 q 417 490 418 439 q 474 479 447 479 q 557 513 524 479 q 590 610 590 546 q 538 800 590 713 l 199 800 q 240 664 240 771 l 238 443 q 288 333 238 383 q 410 247 339 283 q 553 175 482 211 q 676 88 625 139 q 726 -13 726 38 q 701 -94 726 -64 q 636 -124 676 -124 q 572 -106 596 -124 q 535 -47 535 -75 q 585 -32 565 -47 q 606 10 606 -17 q 555 88 606 50 q 433 158 504 125 q 289 230 361 192 q 166 324 217 268 q 115 449 115 381 z "},"ऑ":{"ha":1404,"x_min":22,"x_max":1464,"o":"m 1263 1196 q 1190 1093 1263 1132 q 1015 1054 1118 1054 q 820 1113 911 1054 q 729 1225 729 1171 q 756 1265 729 1253 q 982 1151 840 1151 q 1108 1181 1049 1151 q 1196 1271 1167 1211 q 1242 1247 1222 1268 q 1263 1196 1263 1225 m 890 664 l 883 126 q 900 -1 883 26 q 861 -8 882 -8 q 761 144 761 -8 q 772 383 761 264 q 681 374 731 374 q 575 400 632 374 q 592 317 592 358 q 535 179 592 232 q 382 126 478 126 q 264 150 322 126 q 163 208 206 174 q 89 283 121 243 q 22 413 22 363 q 60 458 22 444 q 178 303 106 367 q 342 239 251 239 q 446 274 404 239 q 488 376 488 308 q 433 481 488 443 q 331 456 383 456 q 240 480 279 456 q 201 544 201 504 q 228 603 201 583 q 300 622 254 622 q 389 597 346 622 q 465 717 465 650 q 432 788 465 764 q 347 813 399 813 q 189 756 256 813 q 147 824 147 782 q 190 892 147 867 q 293 918 233 918 q 480 845 401 918 q 558 678 558 772 q 490 525 558 585 q 639 472 563 472 q 767 507 715 472 l 767 672 q 749 800 767 772 l 738 800 q 618 885 618 800 q 622 911 618 903 l 1346 911 q 1464 829 1464 911 q 1458 800 1464 811 l 1236 800 q 1278 664 1278 771 l 1271 126 q 1289 -1 1271 26 q 1250 -8 1272 -8 q 1149 149 1149 -8 l 1156 672 q 1138 800 1156 772 l 847 800 q 890 664 890 769 z "},"ऒ":{"ha":1404,"x_min":22,"x_max":1464,"o":"m 890 664 l 883 126 q 900 -1 883 26 q 861 -8 882 -8 q 761 144 761 -8 q 772 383 761 264 q 681 374 731 374 q 575 400 632 374 q 592 317 592 358 q 535 179 592 232 q 382 126 478 126 q 264 150 322 126 q 163 208 206 174 q 89 283 121 243 q 22 413 22 363 q 60 458 22 444 q 178 303 106 367 q 342 239 251 239 q 446 274 404 239 q 488 376 488 308 q 433 481 488 443 q 331 456 383 456 q 240 480 279 456 q 201 544 201 504 q 228 603 201 583 q 300 622 254 622 q 389 597 346 622 q 465 717 465 650 q 432 788 465 764 q 347 813 399 813 q 189 756 256 813 q 147 824 147 782 q 190 892 147 867 q 293 918 233 918 q 480 845 401 918 q 558 678 558 772 q 490 525 558 585 q 639 472 563 472 q 767 507 715 472 l 767 672 q 749 800 767 772 l 738 800 q 618 885 618 800 q 622 911 618 903 l 1069 911 q 1161 933 1121 911 q 1201 989 1201 956 q 1181 1039 1201 1022 q 1124 1056 1160 1056 q 1023 1028 1088 1056 q 918 1000 958 1000 q 778 1065 838 1000 q 718 1214 718 1131 q 756 1310 718 1269 q 854 1351 794 1351 q 915 1329 889 1351 q 940 1274 940 1307 q 936 1250 940 1263 q 845 1228 886 1250 q 804 1172 804 1206 q 879 1107 804 1107 q 982 1134 918 1107 q 1088 1161 1046 1161 q 1228 1097 1168 1161 q 1288 949 1288 1032 q 1283 911 1288 931 l 1346 911 q 1464 829 1464 911 q 1458 800 1464 811 l 1236 800 q 1278 664 1278 771 l 1271 126 q 1289 -1 1271 26 q 1250 -8 1272 -8 q 1149 149 1149 -8 l 1156 672 q 1138 800 1156 772 l 847 800 q 890 664 890 769 z "},"ओ":{"ha":1404,"x_min":22,"x_max":1464,"o":"m 890 664 l 883 126 q 900 -1 883 26 q 861 -8 882 -8 q 761 144 761 -8 q 772 383 761 264 q 681 374 731 374 q 575 400 632 374 q 592 317 592 358 q 535 179 592 232 q 382 126 478 126 q 264 150 322 126 q 163 208 206 174 q 89 283 121 243 q 22 413 22 363 q 60 458 22 444 q 178 303 106 367 q 342 239 251 239 q 446 274 404 239 q 488 376 488 308 q 433 481 488 443 q 331 456 383 456 q 240 480 279 456 q 201 544 201 504 q 228 603 201 583 q 300 622 254 622 q 389 597 346 622 q 465 717 465 650 q 432 788 465 764 q 347 813 399 813 q 189 756 256 813 q 147 824 147 782 q 190 892 147 867 q 293 918 233 918 q 480 845 401 918 q 558 678 558 772 q 490 525 558 585 q 639 472 563 472 q 767 507 715 472 l 767 672 q 749 800 767 772 l 738 800 q 618 885 618 800 q 622 911 618 903 l 1176 911 q 1074 1076 1132 1004 q 958 1147 1015 1147 q 879 1094 900 1147 q 825 1129 844 1103 q 806 1190 806 1156 q 834 1251 806 1225 q 912 1278 863 1278 q 1013 1245 961 1278 q 1103 1165 1065 1213 q 1174 1064 1142 1117 q 1240 911 1236 960 l 1346 911 q 1464 829 1464 911 q 1458 800 1464 811 l 1236 800 q 1278 664 1278 771 l 1271 126 q 1289 -1 1271 26 q 1250 -8 1272 -8 q 1149 149 1149 -8 l 1156 672 q 1138 800 1156 772 l 847 800 q 890 664 890 769 z "},"औ":{"ha":1404,"x_min":22,"x_max":1464,"o":"m 890 664 l 883 126 q 900 -1 883 26 q 861 -8 882 -8 q 761 144 761 -8 q 772 383 761 264 q 681 374 731 374 q 575 400 632 374 q 592 317 592 358 q 535 179 592 232 q 382 126 478 126 q 264 150 322 126 q 163 208 206 174 q 89 283 121 243 q 22 413 22 363 q 60 458 22 444 q 178 303 106 367 q 342 239 251 239 q 446 274 404 239 q 488 376 488 308 q 433 481 488 443 q 331 456 383 456 q 240 480 279 456 q 201 544 201 504 q 228 603 201 583 q 300 622 254 622 q 389 597 346 622 q 465 717 465 650 q 432 788 465 764 q 347 813 399 813 q 189 756 256 813 q 147 824 147 782 q 190 892 147 867 q 293 918 233 918 q 480 845 401 918 q 558 678 558 772 q 490 525 558 585 q 639 472 563 472 q 767 507 715 472 l 767 672 q 749 800 767 772 l 738 800 q 618 885 618 800 q 622 911 618 903 l 1165 911 q 936 1058 1031 1058 q 847 985 863 1058 q 788 1011 814 985 q 761 1078 761 1038 q 794 1144 761 1118 q 876 1171 828 1171 q 1043 1111 958 1171 q 1190 972 1128 1051 q 1163 1088 1179 1035 q 1110 1190 1146 1142 q 1033 1238 1074 1238 q 969 1210 992 1238 q 931 1276 931 1236 q 957 1342 931 1317 q 1031 1367 983 1367 q 1126 1322 1079 1367 q 1197 1208 1172 1276 q 1250 946 1250 1071 q 1247 911 1250 922 l 1346 911 q 1464 829 1464 911 q 1458 800 1464 811 l 1236 800 q 1278 664 1278 771 l 1271 126 q 1289 -1 1271 26 q 1250 -8 1272 -8 q 1149 149 1149 -8 l 1156 672 q 1138 800 1156 772 l 847 800 q 890 664 890 769 z "},"क":{"ha":1047,"x_min":-76,"x_max":1101,"o":"m 982 911 q 1101 829 1101 911 q 1096 800 1101 811 l 543 800 q 579 701 579 771 q 574 585 579 631 q 726 651 632 651 q 903 565 819 651 q 986 371 986 479 q 932 237 986 293 q 792 181 878 181 q 717 206 747 181 q 686 268 686 232 q 689 286 686 272 q 739 283 707 283 q 847 331 807 289 q 886 428 886 372 q 849 517 886 483 q 759 550 811 550 q 660 515 707 550 q 581 417 613 479 q 578 127 578 228 q 594 -1 578 26 q 556 -8 578 -8 q 461 122 461 -8 q 474 265 461 197 q 318 193 418 193 q 135 279 218 193 q 53 474 53 365 q 107 607 53 550 q 246 664 161 664 q 322 638 292 664 q 351 575 351 613 q 349 557 351 564 q 315 560 326 560 q 195 515 238 560 q 153 415 153 471 q 190 326 153 360 q 280 293 228 293 q 378 327 332 293 q 458 419 425 361 q 461 670 461 567 q 444 800 461 774 l 43 800 q -76 885 -76 800 q -71 911 -76 900 l 982 911 z "},"ख":{"ha":1097,"x_min":-64,"x_max":1157,"o":"m 851 668 q 831 800 851 776 l 333 800 q 424 567 424 690 q 367 417 424 478 q 214 353 310 357 q 333 218 251 267 q 518 169 415 169 q 753 252 658 169 q 849 456 849 335 q 820 551 849 510 q 740 592 792 592 q 663 556 689 592 q 636 475 636 521 q 657 392 636 429 q 713 335 678 356 q 675 317 697 317 q 569 372 619 317 q 518 504 518 428 q 569 631 518 581 q 703 682 619 682 q 851 614 786 682 l 851 668 m 971 664 l 964 126 q 982 -1 964 26 q 943 -8 964 -8 q 853 114 853 -8 q 860 208 853 165 q 731 103 813 143 q 547 64 649 64 q 296 145 413 64 q 131 368 179 226 q 58 421 86 386 q 29 492 29 456 q 47 549 29 529 q 96 569 65 569 q 188 456 165 569 q 281 508 246 464 q 315 618 315 551 q 251 800 315 722 l 56 800 q -64 885 -64 800 q -60 911 -64 903 l 1039 911 q 1157 829 1157 911 q 1151 800 1157 811 l 929 800 q 971 664 971 771 z "},"ग":{"ha":806,"x_min":-81,"x_max":865,"o":"m 549 149 l 556 672 q 539 800 556 774 l 229 800 q 318 650 285 739 q 351 477 351 561 q 314 347 351 393 q 216 301 276 301 q 108 343 156 301 q 60 443 60 385 q 79 496 60 476 q 129 515 99 515 q 215 454 188 515 q 236 554 236 489 q 205 689 236 619 q 128 800 174 758 l 38 800 q -81 885 -81 800 q -76 911 -81 903 l 746 911 q 865 829 865 911 q 860 800 865 811 l 636 800 q 678 664 678 771 l 672 126 q 689 -1 672 24 q 650 -8 672 -8 q 549 149 549 -8 z "},"घ":{"ha":858,"x_min":-81,"x_max":917,"o":"m 182 660 q 204 579 182 619 q 310 611 257 611 q 397 589 363 611 q 431 531 431 567 q 401 476 431 496 q 335 457 372 457 q 261 469 297 457 q 215 378 215 436 q 258 288 215 321 q 368 254 300 254 q 503 294 436 254 q 606 400 569 335 q 608 667 608 561 q 592 800 608 774 l 250 800 q 182 660 182 749 m 731 664 l 725 126 q 742 -1 725 24 q 703 -8 725 -8 q 631 26 656 -8 q 607 119 607 61 q 618 242 607 176 q 414 158 538 158 q 200 240 290 158 q 110 413 110 322 q 153 535 110 482 q 78 700 78 607 q 106 806 78 756 q 28 801 74 801 q -81 885 -81 801 q -76 911 -81 903 l 799 911 q 917 829 917 911 q 911 800 917 811 l 689 800 q 731 664 731 771 z "},"ङ":{"ha":804,"x_min":-74,"x_max":864,"o":"m 631 515 q 631 531 631 515 q 650 567 631 547 q 702 586 669 586 q 765 558 735 586 q 794 496 794 529 q 775 443 794 463 q 722 424 756 424 q 660 453 689 424 q 631 515 631 482 m 278 689 l 411 688 q 476 736 476 688 q 440 800 476 772 l 46 800 q -74 885 -74 800 q -68 911 -74 900 l 744 911 q 864 829 864 911 q 858 800 864 811 l 526 800 q 579 696 579 750 q 544 609 579 642 q 433 576 510 576 l 322 578 q 228 560 269 578 q 186 503 186 542 q 279 429 186 429 l 429 438 q 592 369 525 438 q 660 218 660 300 q 597 85 660 136 q 432 35 533 35 q 157 111 281 35 q 33 250 33 188 q 60 286 33 276 q 197 183 114 221 q 367 146 279 146 q 511 174 456 146 q 567 254 567 203 q 547 305 567 286 q 488 324 526 324 l 338 315 q 172 381 247 315 q 96 539 96 447 q 144 649 96 610 q 278 689 192 689 z "},"च":{"ha":871,"x_min":-103,"x_max":929,"o":"m 743 664 l 736 126 q 754 -1 736 26 q 715 -8 742 -8 q 621 119 621 -8 q 632 254 621 185 q 460 181 571 181 q 260 263 350 181 q 171 447 171 344 q 208 544 171 503 q 113 533 156 533 q -4 618 -4 533 q 0 643 -4 636 l 361 643 q 481 561 481 643 q 474 533 481 547 l 421 533 q 308 497 351 533 q 265 405 265 460 q 308 317 265 350 q 411 283 350 283 q 530 322 472 283 q 618 435 588 360 q 621 676 621 579 q 604 800 621 772 l 17 800 q -103 885 -103 800 q -99 911 -103 903 l 811 911 q 929 829 929 911 q 924 800 929 811 l 701 800 q 743 664 743 771 z "},"छ":{"ha":929,"x_min":-72,"x_max":988,"o":"m 190 640 q 211 553 190 594 q 308 575 257 575 q 394 553 360 575 q 428 495 428 531 q 399 440 428 460 q 330 421 371 421 q 250 438 289 421 q 193 328 193 397 q 256 215 193 260 q 410 171 319 171 q 667 269 565 171 q 769 497 769 367 q 750 579 769 546 q 691 613 731 613 q 628 575 651 613 q 606 478 606 538 q 656 365 606 419 q 631 353 649 353 q 551 414 592 353 q 510 540 510 475 q 539 652 510 606 q 618 711 568 699 q 599 800 615 778 l 286 800 q 190 640 190 747 m 868 911 q 988 829 988 911 q 981 800 988 814 l 689 800 q 726 700 721 775 q 826 602 789 672 q 864 451 864 532 q 753 176 864 282 q 472 69 643 69 q 209 158 328 69 q 90 372 90 246 q 149 513 90 454 q 86 672 86 589 q 126 804 86 754 q 38 801 85 801 q -72 885 -72 801 q -67 911 -72 900 l 868 911 z "},"ज":{"ha":960,"x_min":-69,"x_max":1019,"o":"m 706 149 l 710 506 l 454 506 q 542 313 542 414 q 495 196 542 239 q 374 153 449 153 q 228 204 300 153 q 114 326 157 256 q 45 461 71 397 q 19 560 19 525 q 64 607 19 607 q 183 365 111 461 q 340 268 256 268 q 413 296 386 268 q 439 365 439 324 q 374 506 439 438 l 372 506 q 253 589 253 506 q 257 617 253 600 l 711 617 l 711 668 q 694 800 711 772 l 49 800 q -69 885 -69 800 q -65 911 -69 903 l 901 911 q 1019 829 1019 911 q 1014 800 1019 811 l 792 800 q 833 664 833 771 l 828 126 q 844 -1 828 26 q 806 -8 828 -8 q 706 149 706 -8 z "},"झ":{"ha":1038,"x_min":-81,"x_max":1097,"o":"m 788 468 l 789 672 q 772 800 789 774 l 503 800 q 560 690 560 747 q 523 602 560 633 q 413 571 486 571 l 317 572 q 231 555 271 572 q 190 503 190 538 q 215 451 190 469 q 282 432 240 432 l 388 439 q 490 422 421 439 q 608 406 560 406 q 788 468 722 406 m 286 685 l 382 683 q 457 732 457 683 q 415 800 457 769 l 38 800 q -81 885 -81 800 q -76 911 -81 903 l 978 911 q 1097 829 1097 911 q 1092 800 1097 822 l 869 800 q 911 664 911 771 l 906 126 q 922 -1 906 26 q 883 -8 906 -8 q 785 135 785 -8 q 796 340 785 250 q 688 310 744 310 q 592 321 632 310 q 624 213 624 271 q 556 74 624 126 q 385 21 488 21 q 269 33 325 21 q 438 -99 340 -99 q 515 -69 486 -99 q 553 -132 553 -92 q 525 -195 553 -172 q 451 -218 497 -218 q 303 -143 369 -218 q 193 58 236 -68 q 96 124 132 83 q 60 215 60 164 q 76 260 60 242 q 126 279 93 279 q 188 244 160 279 q 228 156 217 208 q 340 131 267 131 q 472 162 414 131 q 531 247 531 193 q 507 303 531 282 q 443 325 483 325 l 336 319 q 173 387 249 319 q 97 531 97 454 q 147 647 97 608 q 286 685 197 685 z "},"ञ":{"ha":981,"x_min":-81,"x_max":1040,"o":"m 728 476 l 729 668 q 711 800 729 771 l 38 800 q -81 885 -81 800 q -76 911 -81 903 l 921 911 q 1040 829 1040 911 q 1033 800 1040 814 l 810 800 q 851 664 851 771 l 844 126 q 863 -1 844 26 q 824 -8 844 -8 q 722 149 722 -8 q 725 354 722 210 q 713 354 719 354 q 597 371 646 354 q 533 245 592 292 q 397 199 474 199 q 258 230 321 199 q 151 308 194 261 q 75 406 108 354 q 10 568 10 508 q 53 615 10 613 q 353 314 165 314 q 466 354 425 314 q 507 443 507 394 q 481 522 507 492 q 408 553 454 553 q 307 486 343 553 q 265 514 286 492 q 244 572 244 536 q 277 634 244 607 q 358 661 310 661 q 507 602 442 661 q 592 453 572 543 q 621 451 601 451 q 728 476 681 451 z "},"ट":{"ha":633,"x_min":-74,"x_max":694,"o":"m 575 911 q 694 829 694 911 q 689 800 694 811 l 431 800 q 481 701 481 754 q 446 610 481 647 q 363 549 411 574 q 265 498 314 524 q 181 430 215 472 q 146 328 146 388 q 195 228 146 269 q 316 186 244 186 q 449 231 388 186 q 522 350 510 276 q 583 322 558 347 q 608 258 608 297 q 541 143 608 194 q 362 92 474 92 q 142 176 250 92 q 35 374 35 261 q 69 494 35 442 q 153 575 104 546 q 253 628 203 604 q 338 681 303 653 q 372 742 372 708 q 340 800 372 775 l 46 800 q -74 885 -74 800 q -68 911 -74 900 l 575 911 z "},"ठ":{"ha":689,"x_min":-74,"x_max":750,"o":"m 326 168 q 364 168 326 168 q 465 222 403 168 q 528 348 528 275 q 474 472 528 421 q 332 536 421 524 q 262 497 283 510 q 206 456 240 483 q 143 327 143 404 q 196 209 143 250 q 326 168 249 168 m 631 911 q 750 829 750 911 q 743 800 750 814 l 426 800 q 476 692 476 753 q 406 581 476 631 q 580 485 515 561 q 644 310 644 410 q 565 141 644 210 q 365 72 485 72 q 141 162 246 72 q 36 369 36 251 q 70 490 36 438 q 153 574 104 543 q 250 629 201 604 q 333 682 299 654 q 367 742 367 710 q 336 800 367 775 l 46 800 q -74 885 -74 800 q -68 911 -74 900 l 631 911 z "},"ड":{"ha":688,"x_min":-74,"x_max":776,"o":"m 278 689 l 411 688 q 476 736 476 688 q 440 800 476 772 l 46 800 q -74 885 -74 800 q -68 911 -74 900 l 657 911 q 776 829 776 911 q 771 800 776 811 l 526 800 q 579 696 579 750 q 544 609 579 642 q 433 576 510 576 l 322 578 q 228 560 269 578 q 186 503 186 542 q 279 429 186 429 l 429 438 q 592 369 525 438 q 660 218 660 300 q 597 85 660 136 q 432 35 533 35 q 157 111 281 35 q 33 250 33 188 q 60 286 33 276 q 197 183 114 221 q 367 146 279 146 q 511 174 456 146 q 567 254 567 203 q 547 305 567 286 q 488 324 526 324 l 338 315 q 172 381 247 315 q 96 539 96 447 q 144 649 96 610 q 278 689 192 689 z "},"ढ":{"ha":681,"x_min":-85,"x_max":742,"o":"m 622 911 q 742 829 742 911 q 735 800 742 814 l 481 800 q 528 703 528 756 q 488 616 528 650 q 392 559 449 582 q 278 510 335 536 q 181 439 221 485 q 142 320 142 393 q 206 194 142 247 q 353 142 271 142 q 489 184 436 142 q 542 288 542 226 q 522 340 542 321 q 474 360 503 360 q 425 339 446 360 q 399 265 399 315 q 404 232 399 246 q 367 226 393 226 q 315 253 342 226 q 289 329 289 279 q 330 414 289 379 q 429 449 371 449 q 578 389 513 449 q 644 243 644 329 q 575 103 644 157 q 412 49 506 49 q 234 90 318 49 q 92 207 150 131 q 33 359 33 283 q 62 486 33 435 q 133 567 90 538 q 227 620 176 596 q 321 660 278 644 q 392 699 364 676 q 421 747 421 721 q 392 800 421 774 l 35 800 q -85 885 -85 800 q -79 911 -85 900 l 622 911 z "},"ण":{"ha":1028,"x_min":-81,"x_max":1086,"o":"m 164 800 q 206 652 206 771 q 207 506 206 533 q 321 347 213 347 q 440 588 440 347 q 413 800 440 729 l 164 800 m 771 149 l 778 672 q 761 800 778 774 l 482 800 q 538 669 514 751 q 561 506 561 588 q 510 319 561 382 q 367 256 460 256 q 182 334 274 256 q 85 518 90 413 q 83 666 83 558 q 67 800 83 774 l 38 800 q -81 885 -81 800 q -76 911 -81 903 l 968 911 q 1086 829 1086 911 q 1081 800 1086 811 l 858 800 q 900 664 900 771 l 894 126 q 911 -1 894 24 q 872 -8 894 -8 q 771 149 771 -8 z "},"त":{"ha":754,"x_min":-74,"x_max":814,"o":"m 501 149 l 506 494 l 347 494 q 190 354 190 494 q 226 190 190 274 q 325 40 263 106 q 284 18 314 18 q 203 75 254 18 q 112 224 153 132 q 71 408 71 317 q 134 553 71 500 q 290 607 197 607 q 507 593 382 607 l 507 668 q 490 800 507 772 l 46 800 q -74 885 -74 800 q -68 911 -74 900 l 694 911 q 814 829 814 911 q 808 800 814 811 l 588 800 q 629 664 629 771 l 624 126 q 640 -1 624 26 q 601 -8 622 -8 q 501 149 501 -8 z "},"थ":{"ha":868,"x_min":63,"x_max":928,"o":"m 742 664 l 735 126 q 753 -1 735 26 q 714 -8 736 -8 q 619 128 619 -8 q 632 274 619 197 q 406 192 536 192 q 169 277 275 192 q 63 440 63 363 q 111 508 63 475 q 217 564 160 540 q 324 631 275 588 q 372 731 372 675 q 350 790 372 765 q 288 815 328 815 q 219 784 247 815 q 192 706 192 753 q 221 628 192 660 q 199 622 213 622 q 120 665 153 622 q 88 769 88 708 q 133 874 88 831 q 244 917 179 917 q 400 843 331 917 q 469 675 469 769 q 440 577 469 621 q 369 507 411 533 q 284 459 326 481 q 213 419 242 438 q 183 382 183 400 q 228 324 183 351 q 342 297 274 297 q 489 329 410 297 q 615 426 568 361 q 619 697 619 651 q 610 768 619 743 q 572 813 601 793 q 531 885 531 844 q 536 911 531 900 l 810 911 q 928 829 928 911 q 922 800 928 811 l 696 800 q 742 664 742 771 z "},"द":{"ha":667,"x_min":-74,"x_max":711,"o":"m 593 911 q 711 829 711 911 q 706 800 711 811 l 508 800 q 547 708 547 758 q 508 624 547 658 q 411 567 468 589 q 297 523 354 546 q 199 458 239 500 q 160 351 160 417 q 215 247 160 286 q 338 207 271 207 q 450 229 406 207 q 428 297 428 264 q 451 355 428 331 q 513 379 474 379 q 582 342 551 379 q 613 248 613 304 q 564 151 613 192 q 628 -7 628 71 q 601 -83 628 -54 q 538 -112 575 -112 q 474 -92 500 -112 q 442 -37 447 -72 q 502 -12 479 -35 q 525 47 525 11 q 506 121 525 83 q 408 106 465 106 q 161 197 272 106 q 50 401 50 289 q 90 528 50 475 q 188 610 131 582 q 302 658 244 638 q 400 701 360 678 q 440 753 440 725 q 419 800 440 781 l 46 800 q -74 885 -74 800 q -69 911 -74 903 l 593 911 z "},"ध":{"ha":846,"x_min":-93,"x_max":906,"o":"m 719 664 l 713 126 q 729 -1 713 26 q 690 -8 711 -8 q 596 119 596 -8 q 607 243 596 181 q 402 158 526 158 q 188 238 278 158 q 97 407 97 317 q 139 531 97 478 q 67 693 67 603 q 106 804 67 758 q 15 801 28 801 q -93 885 -93 801 q -87 911 -93 900 l 221 911 q 339 829 339 911 q 333 800 339 811 l 311 800 q 209 756 247 800 q 171 663 171 713 q 192 575 171 613 q 297 607 243 607 q 383 585 350 607 q 417 526 417 563 q 388 472 417 490 q 323 453 360 453 q 249 464 286 453 q 203 373 203 428 q 244 286 203 318 q 353 254 286 254 q 487 293 419 254 q 593 396 554 332 q 596 653 596 563 q 587 768 596 743 q 543 819 578 793 q 508 885 508 844 q 513 911 508 903 l 786 911 q 906 829 906 911 q 900 800 906 811 l 674 800 q 719 664 719 771 z "},"न":{"ha":782,"x_min":-74,"x_max":842,"o":"m 525 149 l 531 494 l 271 494 q 181 469 215 494 q 146 403 146 443 q 172 338 146 363 q 235 314 199 314 q 294 331 271 314 q 322 375 317 349 q 332 407 332 390 q 389 373 368 400 q 410 306 410 346 q 378 237 410 267 q 292 207 347 207 q 122 286 204 207 q 39 445 39 365 q 94 565 39 525 q 258 606 150 606 q 532 592 365 606 l 532 668 q 515 800 532 772 l 46 800 q -74 885 -74 800 q -68 911 -74 900 l 722 911 q 842 829 842 911 q 835 800 842 814 l 613 800 q 654 664 654 771 l 649 126 q 665 -1 649 26 q 626 -8 649 -8 q 525 149 525 -8 z "},"ऩ":{"ha":782,"x_min":-74,"x_max":842,"o":"m 163 65 q 163 80 163 65 q 180 114 163 96 q 228 132 197 132 q 287 105 260 132 q 314 47 314 78 q 297 -1 314 17 q 247 -19 279 -19 q 189 7 215 -19 q 163 65 163 33 m 525 149 l 531 494 l 271 494 q 181 469 215 494 q 146 403 146 443 q 172 338 146 363 q 235 314 199 314 q 294 331 271 314 q 322 375 317 349 q 332 407 332 390 q 389 373 368 400 q 410 306 410 346 q 378 237 410 267 q 292 207 347 207 q 122 286 204 207 q 39 445 39 365 q 94 565 39 525 q 258 606 150 606 q 532 592 365 606 l 532 668 q 515 800 532 772 l 46 800 q -74 885 -74 800 q -68 911 -74 900 l 722 911 q 842 829 842 911 q 835 800 842 814 l 613 800 q 654 664 654 771 l 649 126 q 665 -1 649 26 q 626 -8 649 -8 q 525 149 525 -8 z "},"प":{"ha":772,"x_min":-76,"x_max":832,"o":"m 215 664 l 214 464 q 242 370 214 406 q 326 335 271 335 q 433 368 381 335 q 521 454 486 401 q 522 647 522 521 q 506 800 522 774 l 175 800 q 215 664 215 771 m 644 664 l 639 126 q 656 -1 639 26 q 617 -8 639 -8 q 518 133 518 -8 q 528 288 518 218 q 376 235 461 235 q 183 323 271 235 q 94 501 94 411 q 93 710 94 590 q 78 800 90 779 l 43 800 q -76 885 -76 800 q -72 911 -76 894 l 713 911 q 832 829 832 911 q 826 800 832 811 l 603 800 q 644 664 644 771 z "},"फ":{"ha":1075,"x_min":-76,"x_max":1138,"o":"m 481 436 l 482 672 q 465 800 482 774 l 172 800 q 213 664 213 771 l 211 476 q 240 383 211 418 q 317 347 268 347 q 408 372 365 347 q 481 436 451 396 m 90 510 l 92 639 q 90 699 92 672 q 75 800 90 778 l 43 800 q -76 885 -76 800 q -72 911 -76 894 l 1018 911 q 1138 829 1138 911 q 1132 800 1138 811 l 563 800 q 599 692 599 769 q 592 575 599 615 q 754 646 654 646 q 938 559 854 646 q 1021 361 1021 472 q 965 224 1021 281 q 821 167 910 167 q 744 192 776 167 q 711 257 711 218 q 714 276 711 269 q 756 271 740 271 q 880 317 839 271 q 921 419 921 363 q 883 511 921 476 q 790 546 844 546 q 685 510 735 546 q 601 413 635 474 q 599 125 599 226 q 615 -1 599 24 q 576 -8 597 -8 q 476 136 476 -8 q 483 281 476 222 q 374 247 433 247 q 177 333 264 247 q 90 510 90 419 z "},"ब":{"ha":779,"x_min":-76,"x_max":839,"o":"m 200 532 q 153 428 153 492 q 198 324 153 364 q 301 283 243 283 q 401 304 358 283 l 200 532 m 653 664 l 646 126 q 664 -1 646 26 q 625 -8 651 -8 q 528 124 528 -8 q 543 258 528 189 q 358 182 476 182 q 146 276 240 182 q 51 483 51 369 q 117 632 51 574 q 278 690 183 690 q 385 664 343 690 q 426 594 426 638 q 415 551 426 569 q 329 575 371 575 q 256 565 288 575 l 454 338 q 528 433 501 376 q 531 676 531 581 q 513 800 531 772 l 43 800 q -76 885 -76 800 q -71 911 -76 900 l 721 911 q 839 829 839 911 q 833 800 839 811 l 611 800 q 653 664 653 771 z "},"भ":{"ha":876,"x_min":6,"x_max":936,"o":"m 749 664 l 743 126 q 760 -1 743 26 q 721 -8 742 -8 q 619 149 619 -8 q 624 396 619 264 l 356 396 q 274 267 340 267 q 169 322 219 267 q 119 428 119 376 q 239 511 119 506 q 242 622 242 572 q 168 811 242 811 q 124 785 139 811 q 108 715 108 760 q 135 636 108 669 q 110 631 124 631 q 35 677 65 631 q 6 781 6 724 q 38 875 6 838 q 128 913 71 913 q 289 797 222 913 q 360 510 356 681 q 625 497 508 507 q 626 663 626 551 q 610 800 626 774 l 535 800 q 415 885 415 800 q 419 911 415 903 l 817 911 q 936 829 936 911 q 929 800 936 814 l 707 800 q 749 664 749 771 z "},"म":{"ha":831,"x_min":-81,"x_max":890,"o":"m 267 800 q 301 730 293 779 q 310 607 310 681 q 308 510 310 533 q 581 497 461 507 q 582 663 582 551 q 564 800 582 775 l 267 800 m 704 664 l 697 126 q 715 -1 697 26 q 676 -8 697 -8 q 575 149 575 -8 q 579 396 575 264 l 301 396 q 221 267 286 267 q 117 322 167 267 q 67 428 67 376 q 186 511 67 506 q 189 592 189 564 q 168 800 189 774 l 38 800 q -81 885 -81 800 q -76 911 -81 903 l 772 911 q 890 829 890 911 q 885 800 890 811 l 663 800 q 704 664 704 771 z "},"य":{"ha":821,"x_min":-54,"x_max":881,"o":"m 319 800 q 367 671 367 733 q 335 566 367 608 q 267 500 304 524 q 198 452 229 476 q 167 408 167 428 q 215 344 167 374 q 331 314 264 314 q 463 341 397 314 q 567 421 528 368 q 569 673 569 576 q 549 800 569 769 l 319 800 m 692 664 l 686 126 q 703 -1 686 26 q 664 -8 686 -8 q 569 128 569 -8 q 582 271 569 196 q 380 207 497 207 q 156 298 263 207 q 50 474 50 389 q 157 581 50 519 q 231 641 197 603 q 264 724 264 679 q 233 800 264 769 l 65 800 q -54 885 -54 800 q -49 911 -54 900 l 761 911 q 881 829 881 911 q 875 800 881 811 l 650 800 q 692 664 692 771 z "},"र":{"ha":557,"x_min":-75,"x_max":614,"o":"m 494 911 q 614 829 614 911 q 607 800 614 814 l 382 800 q 481 558 481 690 q 412 393 481 457 q 247 329 343 329 l 236 329 q 308 169 263 228 q 438 110 353 110 q 483 118 463 110 q 494 67 494 97 q 472 13 494 36 q 408 -10 450 -10 q 158 346 249 -10 q 66 407 103 365 q 29 492 29 449 q 50 560 29 536 q 104 585 71 585 q 210 450 178 585 l 213 450 q 330 498 288 451 q 372 611 372 544 q 289 800 372 735 l 43 800 q -75 885 -75 800 q -71 911 -75 903 l 494 911 z "},"ऱ":{"ha":557,"x_min":-75,"x_max":614,"o":"m 28 -9 q 28 5 28 -9 q 44 37 28 19 q 89 54 61 54 q 142 29 117 54 q 168 -24 168 4 q 152 -70 168 -53 q 107 -87 136 -87 q 53 -62 78 -87 q 28 -9 28 -37 m 494 911 q 614 829 614 911 q 607 800 614 814 l 382 800 q 481 558 481 690 q 412 393 481 457 q 247 329 343 329 l 236 329 q 308 169 263 228 q 438 110 353 110 q 483 118 463 110 q 494 67 494 97 q 472 13 494 36 q 408 -10 450 -10 q 158 346 249 -10 q 66 407 103 365 q 29 492 29 449 q 50 560 29 536 q 104 585 71 585 q 210 450 178 585 l 213 450 q 330 498 288 451 q 372 611 372 544 q 289 800 372 735 l 43 800 q -75 885 -75 800 q -71 911 -75 903 l 494 911 z "},"ल":{"ha":1014,"x_min":-74,"x_max":1074,"o":"m 760 149 l 764 479 q 682 500 726 500 q 551 421 589 500 q 567 335 567 378 q 547 259 567 293 q 487 225 528 225 q 421 260 446 225 q 396 351 396 296 q 432 469 396 407 q 323 515 386 515 q 224 469 260 515 q 189 356 189 424 q 360 38 189 188 q 322 14 349 14 q 251 47 294 14 q 167 133 208 81 q 96 256 125 185 q 67 396 67 328 q 126 561 67 501 q 285 621 185 621 q 475 533 385 621 q 639 611 543 611 q 765 569 708 611 l 765 672 q 749 800 765 774 l 46 800 q -74 885 -74 800 q -68 911 -74 900 l 954 911 q 1074 829 1074 911 q 1068 800 1074 811 l 846 800 q 888 664 888 771 l 882 126 q 899 -1 882 26 q 860 -8 881 -8 q 760 149 760 -8 z "},"ळ":{"ha":979,"x_min":-76,"x_max":1033,"o":"m 822 425 q 788 512 822 478 q 711 546 753 546 q 644 532 669 546 q 600 489 619 518 q 567 434 581 460 q 535 364 554 408 q 504 296 517 319 q 638 258 564 258 q 767 304 711 258 q 822 425 822 350 m 147 369 q 182 283 147 317 q 258 249 217 249 q 325 263 300 249 q 369 306 350 276 q 402 360 389 335 q 435 431 415 386 q 465 499 454 475 q 331 535 404 535 q 203 489 258 535 q 147 369 147 443 m 914 911 q 1033 829 1033 911 q 1026 800 1033 814 l 690 800 q 731 632 731 768 q 865 528 810 604 q 919 365 919 451 q 856 213 919 278 q 693 149 793 149 q 571 178 626 149 q 485 261 515 208 q 314 149 418 149 q 130 235 210 149 q 50 419 50 322 q 113 580 50 515 q 276 644 176 644 q 399 615 343 644 q 483 532 454 585 q 622 642 539 625 q 600 800 622 768 l 43 800 q -76 885 -76 800 q -71 911 -76 900 l 914 911 z "},"ऴ":{"ha":979,"x_min":-76,"x_max":1033,"o":"m 133 5 q 133 19 133 5 q 150 51 133 33 q 194 68 167 68 q 248 43 222 68 q 274 -10 274 18 q 258 -56 274 -39 q 213 -74 242 -74 q 158 -49 183 -74 q 133 5 133 -24 m 822 425 q 788 512 822 478 q 711 546 753 546 q 644 532 669 546 q 600 489 619 518 q 567 434 581 460 q 535 364 554 408 q 504 296 517 319 q 638 258 564 258 q 767 304 711 258 q 822 425 822 350 m 147 369 q 182 283 147 317 q 258 249 217 249 q 325 263 300 249 q 369 306 350 276 q 402 360 389 335 q 435 431 415 386 q 465 499 454 475 q 331 535 404 535 q 203 489 258 535 q 147 369 147 443 m 914 911 q 1033 829 1033 911 q 1026 800 1033 814 l 690 800 q 731 632 731 768 q 865 528 810 604 q 919 365 919 451 q 856 213 919 278 q 693 149 793 149 q 571 178 626 149 q 485 261 515 208 q 314 149 418 149 q 130 235 210 149 q 50 419 50 322 q 113 580 50 515 q 276 644 176 644 q 399 615 343 644 q 483 532 454 585 q 622 642 539 625 q 600 800 622 768 l 43 800 q -76 885 -76 800 q -71 911 -76 900 l 914 911 z "},"व":{"ha":760,"x_min":-76,"x_max":819,"o":"m 632 664 l 626 126 q 643 -1 626 26 q 604 -8 631 -8 q 507 124 507 -8 q 521 263 507 199 q 351 192 461 192 q 149 282 240 192 q 58 474 58 372 q 122 629 58 576 q 256 682 186 682 q 366 657 326 682 q 406 589 406 632 q 394 547 406 565 q 308 567 349 567 q 201 526 242 567 q 160 426 160 486 q 201 330 160 367 q 304 293 243 293 q 421 332 365 293 q 507 439 476 371 q 510 679 510 586 q 493 800 510 772 l 43 800 q -76 885 -76 800 q -71 911 -76 900 l 700 911 q 819 829 819 911 q 813 800 819 814 l 590 800 q 632 664 632 771 z "},"श":{"ha":989,"x_min":44,"x_max":1047,"o":"m 272 306 l 269 306 q 489 110 346 110 q 553 119 524 110 q 565 66 565 96 q 543 13 565 36 q 479 -10 521 -10 q 190 318 303 -10 q 86 379 128 338 q 44 474 44 421 q 64 525 44 504 q 121 546 83 546 q 189 506 158 546 q 235 414 219 465 q 400 478 336 417 q 464 649 464 540 q 435 763 464 714 q 363 811 406 811 q 298 784 319 811 q 276 716 276 757 q 304 635 276 675 q 374 575 332 594 q 332 551 361 551 q 220 613 276 551 q 164 747 164 674 q 204 866 164 819 q 311 913 244 913 q 493 808 417 913 q 569 583 569 704 q 484 383 569 461 q 272 306 399 306 m 732 149 l 739 672 q 730 768 739 743 q 692 813 721 793 q 650 885 650 844 q 656 911 650 900 l 929 911 q 1047 829 1047 911 q 1042 800 1047 811 l 817 800 q 861 664 861 771 l 856 126 q 872 -1 856 24 q 833 -8 856 -8 q 732 149 732 -8 z "},"ष":{"ha":786,"x_min":-76,"x_max":846,"o":"m 535 474 q 536 653 536 533 q 519 800 536 774 l 179 800 q 500 508 240 774 q 535 474 522 486 m 215 650 l 214 464 q 242 370 214 406 q 329 335 271 335 q 508 414 429 335 q 206 711 344 588 q 215 650 215 685 m 658 664 l 653 126 q 669 -1 653 26 q 631 -8 653 -8 q 532 133 532 -8 q 542 292 532 219 q 370 235 471 235 q 182 324 269 235 q 94 501 94 413 l 94 699 q 78 800 92 776 l 43 800 q -76 885 -76 800 q -72 911 -76 894 l 728 911 q 846 829 846 911 q 840 800 846 811 l 617 800 q 658 664 658 771 z "},"स":{"ha":996,"x_min":-75,"x_max":1054,"o":"m 481 558 q 464 469 481 508 q 572 456 519 456 q 744 493 669 456 q 746 661 746 549 q 729 800 746 774 l 382 800 q 481 558 481 690 m 868 664 l 863 126 q 879 -1 863 24 q 840 -8 861 -8 q 739 149 739 -8 q 742 361 739 214 q 654 353 708 353 q 425 407 533 353 q 247 329 358 329 l 236 329 q 308 169 263 228 q 438 110 353 110 q 483 118 463 110 q 494 67 494 97 q 472 13 494 36 q 408 -10 450 -10 q 158 346 249 -10 q 66 407 103 365 q 29 492 29 449 q 50 560 29 536 q 104 585 71 585 q 210 450 178 585 l 213 450 q 330 498 288 451 q 372 611 372 544 q 289 800 372 735 l 43 800 q -75 885 -75 800 q -71 911 -75 903 l 936 911 q 1054 829 1054 911 q 1049 800 1054 811 l 826 800 q 868 664 868 771 z "},"ह":{"ha":679,"x_min":-74,"x_max":744,"o":"m 289 678 l 394 676 q 441 690 425 676 q 457 725 457 704 q 407 800 457 772 l 46 800 q -74 885 -74 800 q -68 911 -74 900 l 625 911 q 744 829 744 911 q 738 800 744 814 l 499 800 q 558 674 558 743 q 523 596 558 626 q 424 565 488 565 l 307 567 q 225 540 253 567 q 197 473 197 513 q 226 396 197 433 q 360 429 283 429 q 547 357 471 429 q 624 203 624 285 q 590 110 624 149 q 511 72 556 72 q 440 93 467 72 q 410 151 413 114 q 491 182 461 156 q 521 247 521 208 q 490 310 521 286 q 399 335 460 335 q 278 285 338 335 q 218 144 218 235 q 301 -5 218 53 q 499 -62 385 -62 q 551 -58 525 -62 q 557 -89 557 -72 q 535 -119 557 -106 q 476 -133 513 -133 q 217 -39 329 -133 q 104 192 104 56 q 172 357 104 289 q 94 513 94 438 q 142 633 94 589 q 289 678 189 678 z "},"़":{"ha":0,"x_min":-456,"x_max":-315,"o":"m -376 -258 q -391 -258 -376 -258 q -431 -233 -406 -258 q -456 -180 -456 -208 q -439 -134 -456 -151 q -394 -117 -422 -117 q -341 -142 -367 -117 q -315 -195 -315 -167 q -331 -241 -315 -224 q -376 -258 -347 -258 z "},"ऽ":{"ha":747,"x_min":103,"x_max":650,"o":"m 619 801 l 425 803 q 300 732 300 803 q 424 578 300 671 q 526 498 475 540 q 614 398 578 456 q 650 278 650 340 q 590 140 650 192 q 426 89 531 89 q 212 167 321 89 q 103 307 103 246 q 131 344 103 333 q 388 199 253 199 q 490 228 453 199 q 528 308 528 257 q 491 409 528 360 q 402 499 454 458 q 297 581 350 539 q 171 775 171 681 q 260 893 171 867 q 428 913 326 913 q 577 897 529 913 q 625 831 625 881 q 619 801 625 811 z "},"ा":{"ha":382,"x_min":-81,"x_max":442,"o":"m 126 149 l 132 672 q 115 800 132 774 l 38 800 q -81 885 -81 800 q -76 911 -81 903 l 322 911 q 442 829 442 911 q 436 800 442 811 l 214 800 q 256 664 256 771 l 249 126 q 265 -1 249 26 q 226 -8 247 -8 q 126 149 126 -8 z "},"ि":{"ha":382,"x_min":-81,"x_max":918,"o":"m 126 149 l 132 679 q 126 800 132 733 l 38 800 q -81 885 -81 800 q -76 911 -81 903 l 106 911 q 94 951 103 921 q 82 994 85 982 q 72 1079 72 1039 q 144 1233 72 1176 q 323 1289 217 1289 q 540 1256 429 1289 q 732 1178 651 1222 q 865 1089 813 1133 q 918 1022 918 1044 q 897 988 918 999 q 640 1127 775 1074 q 403 1181 504 1181 q 244 1140 301 1181 q 186 1015 186 1100 q 203 911 186 964 l 322 911 q 442 829 442 911 q 436 800 442 811 l 240 800 q 256 678 256 739 l 249 126 q 265 -1 249 26 q 226 -8 247 -8 q 126 149 126 -8 z "},"ी":{"ha":382,"x_min":-301,"x_max":442,"o":"m 126 149 l 132 686 q 128 800 132 746 l 38 800 q -81 885 -81 800 q -76 911 -81 903 l 114 911 q 38 1114 90 1043 q -92 1185 -15 1185 q -165 1155 -136 1185 q -193 1079 -193 1125 q -160 994 -193 1033 q -189 983 -169 983 q -267 1029 -233 983 q -301 1139 -301 1075 q -256 1247 -301 1203 q -139 1292 -210 1292 q 78 1184 -18 1292 q 222 911 175 1076 l 322 911 q 442 829 442 911 q 436 800 442 811 l 246 800 q 256 678 256 743 l 249 126 q 265 -1 249 26 q 226 -8 247 -8 q 126 149 126 -8 z "},"ु":{"ha":0,"x_min":-578,"x_max":6,"o":"m 6 -172 q 6 -211 6 -172 q -52 -298 6 -250 q -187 -346 -110 -346 q -338 -316 -265 -346 q -462 -245 -411 -286 q -545 -162 -512 -204 q -578 -90 -578 -119 q -550 -53 -578 -61 q -405 -192 -486 -140 q -247 -244 -324 -244 q -128 -212 -171 -244 q -86 -135 -86 -181 q -105 -92 -86 -108 q -153 -75 -124 -75 q -247 -142 -222 -75 q -299 -117 -281 -139 q -318 -62 -318 -94 q -287 -4 -318 -31 q -207 22 -257 22 q -61 -36 -128 22 q 6 -172 6 -94 z "},"ू":{"ha":0,"x_min":-385,"x_max":194,"o":"m -174 -349 q -317 -286 -250 -349 q -385 -148 -385 -224 q -331 -26 -385 -72 q -199 19 -276 19 q -48 -15 -122 19 q 78 -99 26 -50 q 162 -200 129 -149 q 194 -276 194 -251 q 160 -326 194 -318 q 28 -158 111 -231 q -154 -86 -54 -86 q -251 -117 -212 -86 q -289 -190 -289 -147 q -272 -232 -289 -215 q -227 -249 -256 -249 q -174 -232 -199 -249 q -137 -190 -149 -215 q -88 -216 -106 -194 q -71 -269 -71 -237 q -101 -324 -71 -300 q -174 -349 -131 -349 z "},"ृ":{"ha":0,"x_min":-431,"x_max":25,"o":"m -177 -331 q -224 -331 -177 -331 q -351 -267 -271 -331 q -431 -114 -431 -203 q -373 27 -431 -25 q -244 79 -315 79 q -181 58 -208 79 q -154 -8 -154 36 q -278 -56 -232 -15 q -325 -144 -325 -96 q -296 -217 -325 -192 q -215 -242 -267 -242 q -117 -203 -164 -242 q -54 -106 -69 -165 q 1 -133 -22 -108 q 25 -193 25 -157 q -29 -288 25 -246 q -177 -331 -83 -331 z "},"ॄ":{"ha":0,"x_min":-403,"x_max":40,"o":"m -28 -374 q 20 -397 0 -376 q 40 -457 40 -418 q -4 -528 40 -496 q -121 -561 -49 -561 q -267 -500 -193 -561 q -340 -365 -340 -439 q -296 -249 -340 -290 q -403 -75 -403 -182 q -354 36 -403 -7 q -244 79 -306 79 q -181 58 -208 79 q -154 -8 -154 36 q -262 -44 -222 -14 q -301 -112 -301 -75 q -279 -171 -301 -150 q -224 -192 -257 -192 q -133 -153 -164 -192 q -89 -210 -89 -167 q -113 -260 -89 -239 q -167 -292 -137 -281 q -222 -328 -197 -303 q -246 -387 -246 -353 q -222 -444 -246 -422 q -154 -468 -196 -468 q -76 -442 -112 -468 q -28 -374 -39 -415 z "},"ॅ":{"ha":0,"x_min":-474,"x_max":60,"o":"m -221 1151 q -95 1181 -154 1151 q -7 1271 -36 1211 q 40 1247 19 1268 q 60 1196 60 1225 q -12 1093 60 1132 q -188 1054 -85 1054 q -383 1113 -292 1054 q -474 1225 -474 1171 q -447 1265 -474 1253 q -221 1151 -362 1151 z "},"ॆ":{"ha":0,"x_min":-696,"x_max":-126,"o":"m -610 1172 q -610 1156 -610 1172 q -589 1123 -610 1139 q -532 1107 -568 1107 q -432 1134 -496 1107 q -326 1161 -368 1161 q -186 1097 -246 1161 q -126 949 -126 1032 q -165 851 -126 892 q -262 810 -203 810 q -322 832 -297 810 q -347 888 -347 854 q -344 911 -347 894 q -253 933 -293 911 q -212 989 -212 956 q -233 1039 -212 1022 q -290 1056 -254 1056 q -391 1028 -326 1056 q -496 1000 -456 1000 q -636 1065 -576 1000 q -696 1214 -696 1131 q -658 1310 -696 1269 q -560 1351 -619 1351 q -499 1329 -525 1351 q -474 1274 -474 1307 q -478 1250 -474 1263 q -569 1228 -528 1250 q -610 1172 -610 1206 z "},"े":{"ha":0,"x_min":-600,"x_max":-165,"o":"m -450 1147 q -526 1094 -506 1147 q -581 1129 -561 1103 q -600 1190 -600 1156 q -572 1251 -600 1225 q -487 1278 -543 1278 q -367 1227 -432 1278 q -260 1110 -303 1176 q -192 987 -218 1044 q -165 908 -165 929 q -208 867 -165 867 q -286 1014 -239 943 q -450 1147 -375 1147 z "},"ै":{"ha":0,"x_min":-654,"x_max":-165,"o":"m -485 1276 q -485 1297 -485 1276 q -458 1342 -485 1317 q -384 1367 -432 1367 q -290 1322 -336 1367 q -217 1208 -243 1276 q -165 946 -165 1071 q -178 887 -165 903 q -211 867 -190 871 q -479 1058 -369 1058 q -568 985 -553 1058 q -628 1011 -601 985 q -654 1078 -654 1038 q -621 1144 -654 1118 q -539 1171 -587 1171 q -372 1111 -457 1171 q -225 972 -287 1051 q -253 1088 -236 1035 q -306 1190 -269 1142 q -383 1238 -342 1238 q -446 1210 -424 1238 q -485 1276 -485 1236 z "},"ॉ":{"ha":382,"x_min":-107,"x_max":440,"o":"m 426 1196 q 354 1093 426 1132 q 178 1054 282 1054 q -16 1113 75 1054 q -107 1225 -107 1171 q -81 1265 -107 1253 q 146 1151 4 1151 q 272 1181 213 1151 q 360 1271 331 1211 q 406 1247 386 1268 q 426 1196 426 1225 m 125 149 l 131 672 q 114 800 131 774 l 36 800 q -82 885 -82 800 q -78 911 -82 903 l 321 911 q 440 829 440 911 q 435 800 440 811 l 213 800 q 254 664 254 771 l 247 126 q 264 -1 247 26 q 225 -8 247 -8 q 125 149 125 -8 z "},"ॊ":{"ha":382,"x_min":-304,"x_max":442,"o":"m 126 149 l 132 672 q 115 800 132 774 l 38 800 q -81 885 -81 800 q -76 911 -81 903 l 47 911 q 138 933 97 911 q 178 989 178 956 q 158 1039 178 1022 q 101 1056 138 1056 q 1 1028 65 1056 q -104 1000 -64 1000 q -244 1065 -185 1000 q -304 1214 -304 1131 q -266 1310 -304 1269 q -168 1351 -228 1351 q -108 1329 -133 1351 q -83 1274 -83 1307 q -86 1250 -83 1267 q -177 1228 -136 1250 q -218 1172 -218 1207 q -143 1107 -218 1107 q -40 1134 -104 1107 q 65 1161 24 1161 q 206 1097 146 1161 q 265 949 265 1032 q 260 911 265 928 l 322 911 q 442 829 442 911 q 436 800 442 811 l 214 800 q 256 664 256 771 l 249 126 q 265 -1 249 26 q 226 -8 247 -8 q 126 149 126 -8 z "},"ो":{"ha":382,"x_min":-217,"x_max":440,"o":"m 125 149 l 131 672 q 114 800 131 774 l 36 800 q -82 885 -82 800 q -78 911 -82 903 l 154 911 q 51 1076 110 1004 q -65 1147 -7 1147 q -143 1094 -122 1147 q -197 1129 -178 1103 q -217 1190 -217 1156 q -188 1251 -217 1225 q -110 1278 -160 1278 q -9 1245 -61 1278 q 81 1165 43 1213 q 151 1064 119 1117 q 218 911 214 960 l 321 911 q 440 829 440 911 q 435 800 440 811 l 213 800 q 254 664 254 771 l 247 126 q 264 -1 247 26 q 225 -8 247 -8 q 125 149 125 -8 z "},"ौ":{"ha":382,"x_min":-261,"x_max":440,"o":"m 125 149 l 131 672 q 114 800 131 774 l 36 800 q -82 885 -82 800 q -78 911 -82 903 l 143 911 q -86 1058 8 1058 q -175 985 -160 1058 q -235 1011 -208 985 q -261 1078 -261 1038 q -228 1144 -261 1118 q -146 1171 -194 1171 q 21 1111 -64 1171 q 168 972 106 1051 q 140 1088 157 1035 q 88 1190 124 1142 q 10 1238 51 1238 q -53 1210 -31 1238 q -92 1276 -92 1236 q -65 1342 -92 1317 q 9 1367 -39 1367 q 103 1322 57 1367 q 175 1208 150 1276 q 228 946 228 1071 q 225 911 228 922 l 321 911 q 440 829 440 911 q 435 800 440 811 l 213 800 q 254 664 254 771 l 247 126 q 264 -1 247 26 q 225 -8 247 -8 q 125 149 125 -8 z "},"्":{"ha":0,"x_min":-312,"x_max":74,"o":"m -299 -172 q -312 -124 -312 -153 q -287 -73 -312 -96 q -211 -50 -262 -50 q -88 -100 -160 -50 q 28 -208 -17 -150 q 74 -292 74 -265 q 50 -325 74 -318 q -222 -156 -93 -156 q -299 -172 -261 -156 z "},"ॐ":{"ha":1311,"x_min":93,"x_max":1228,"o":"m 792 1174 q 792 1157 792 1174 q 771 1117 792 1139 q 714 1096 750 1096 q 647 1127 678 1096 q 615 1194 615 1158 q 636 1251 615 1231 q 692 1272 657 1272 q 760 1241 728 1272 q 792 1174 792 1210 m 989 1035 q 916 932 989 971 q 740 893 843 893 q 545 952 636 893 q 454 1064 454 1011 q 482 1104 454 1092 q 707 990 567 990 q 833 1020 775 990 q 921 1110 892 1050 q 969 1085 949 1107 q 989 1035 989 1064 m 957 776 q 1145 669 1063 776 q 1228 435 1228 561 q 1154 219 1228 310 q 978 128 1081 128 q 910 151 938 128 q 883 222 883 175 q 1054 306 990 224 q 1118 510 1118 388 q 1089 619 1118 568 q 1003 669 1060 669 q 889 553 933 669 q 848 458 869 506 q 787 376 826 410 q 692 342 747 342 q 644 350 667 342 q 663 261 663 308 q 606 124 663 176 q 453 71 549 71 q 335 94 393 71 q 234 153 276 118 q 158 228 192 188 q 93 357 93 307 q 131 403 93 390 q 249 247 176 311 q 411 183 322 183 q 515 218 474 183 q 557 318 557 253 q 504 425 557 383 q 402 400 454 400 q 310 424 350 400 q 271 488 271 449 q 297 547 271 528 q 369 567 324 567 q 461 542 415 567 q 535 661 535 593 q 501 733 535 708 q 417 757 468 757 q 258 700 326 757 q 218 768 218 725 q 260 837 218 811 q 363 863 303 863 q 550 790 471 863 q 629 622 629 717 q 565 467 629 528 q 643 435 607 435 q 708 470 679 435 q 758 556 738 506 q 800 656 778 606 q 862 741 822 706 q 957 776 901 776 z "},"क़":{"ha":1047,"x_min":-76,"x_max":1101,"o":"m 161 65 q 161 79 161 65 q 178 110 161 93 q 222 128 194 128 q 276 103 250 128 q 301 49 301 78 q 285 3 301 21 q 240 -14 269 -14 q 186 11 211 -14 q 161 65 161 36 m 982 911 q 1101 829 1101 911 q 1096 800 1101 811 l 543 800 q 579 701 579 771 q 574 585 579 631 q 726 651 632 651 q 903 565 819 651 q 986 371 986 479 q 932 237 986 293 q 792 181 878 181 q 717 206 747 181 q 686 268 686 232 q 689 286 686 272 q 739 283 707 283 q 847 331 807 289 q 886 428 886 372 q 849 517 886 483 q 759 550 811 550 q 660 515 707 550 q 581 417 613 479 q 578 127 578 228 q 594 -1 578 26 q 556 -8 578 -8 q 461 122 461 -8 q 474 265 461 197 q 318 193 418 193 q 135 279 218 193 q 53 474 53 365 q 107 607 53 550 q 246 664 161 664 q 322 638 292 664 q 351 575 351 613 q 349 557 351 564 q 315 560 326 560 q 195 515 238 560 q 153 415 153 471 q 190 326 153 360 q 280 293 228 293 q 378 327 332 293 q 458 419 425 361 q 461 670 461 567 q 444 800 461 774 l 43 800 q -76 885 -76 800 q -71 911 -76 900 l 982 911 z "},"ख़":{"ha":1097,"x_min":-64,"x_max":1157,"o":"m 76 1 q 76 15 76 1 q 93 47 76 29 q 138 64 110 64 q 191 39 165 64 q 217 -15 217 14 q 201 -60 217 -43 q 156 -78 185 -78 q 101 -53 126 -78 q 76 1 76 -28 m 851 668 q 831 800 851 776 l 333 800 q 424 567 424 690 q 367 417 424 478 q 214 353 310 357 q 333 218 251 267 q 518 169 415 169 q 753 252 658 169 q 849 456 849 335 q 820 551 849 510 q 740 592 792 592 q 663 556 689 592 q 636 475 636 521 q 657 392 636 429 q 713 335 678 356 q 675 317 697 317 q 569 372 619 317 q 518 504 518 428 q 569 631 518 581 q 703 682 619 682 q 851 614 786 682 l 851 668 m 971 664 l 964 126 q 982 -1 964 26 q 943 -8 964 -8 q 853 114 853 -8 q 860 208 853 165 q 731 103 813 143 q 547 64 649 64 q 296 145 413 64 q 131 368 179 226 q 58 421 86 386 q 29 492 29 456 q 47 549 29 529 q 96 569 65 569 q 188 456 165 569 q 281 508 246 464 q 315 618 315 551 q 251 800 315 722 l 56 800 q -64 885 -64 800 q -60 911 -64 903 l 1039 911 q 1157 829 1157 911 q 1151 800 1157 811 l 929 800 q 971 664 971 771 z "},"ग़":{"ha":806,"x_min":-81,"x_max":865,"o":"m 128 94 q 128 108 128 94 q 144 140 128 122 q 189 157 161 157 q 242 132 217 157 q 268 78 268 107 q 252 33 268 50 q 207 15 236 15 q 153 40 178 15 q 128 94 128 65 m 549 149 l 556 672 q 539 800 556 774 l 229 800 q 318 650 285 739 q 351 477 351 561 q 314 347 351 393 q 216 301 276 301 q 108 343 156 301 q 60 443 60 385 q 79 496 60 476 q 129 515 99 515 q 215 454 188 515 q 236 554 236 489 q 205 689 236 619 q 128 800 174 758 l 38 800 q -81 885 -81 800 q -76 911 -81 903 l 746 911 q 865 829 865 911 q 860 800 865 811 l 636 800 q 678 664 678 771 l 672 126 q 689 -1 672 24 q 650 -8 672 -8 q 549 149 549 -8 z "},"ज़":{"ha":960,"x_min":-69,"x_max":1019,"o":"m 442 -6 q 442 8 442 -6 q 458 40 442 22 q 503 57 475 57 q 556 32 531 57 q 582 -22 582 7 q 566 -67 582 -50 q 521 -85 550 -85 q 467 -60 492 -85 q 442 -6 442 -35 m 706 149 l 710 506 l 454 506 q 542 313 542 414 q 495 196 542 239 q 374 153 449 153 q 228 204 300 153 q 114 326 157 256 q 45 461 71 397 q 19 560 19 525 q 64 607 19 607 q 183 365 111 461 q 340 268 256 268 q 413 296 386 268 q 439 365 439 324 q 374 506 439 438 l 372 506 q 253 589 253 506 q 257 617 253 600 l 711 617 l 711 668 q 694 800 711 772 l 49 800 q -69 885 -69 800 q -65 911 -69 903 l 901 911 q 1019 829 1019 911 q 1014 800 1019 811 l 792 800 q 833 664 833 771 l 828 126 q 844 -1 828 26 q 806 -8 828 -8 q 706 149 706 -8 z "},"ड़":{"ha":688,"x_min":-74,"x_max":776,"o":"m 296 -138 q 296 -124 296 -138 q 313 -92 296 -110 q 357 -75 329 -75 q 410 -100 385 -75 q 436 -153 436 -125 q 420 -199 436 -182 q 375 -217 404 -217 q 321 -192 346 -217 q 296 -138 296 -167 m 278 689 l 411 688 q 476 736 476 688 q 440 800 476 772 l 46 800 q -74 885 -74 800 q -68 911 -74 900 l 657 911 q 776 829 776 911 q 771 800 776 811 l 526 800 q 579 696 579 750 q 544 609 579 642 q 433 576 510 576 l 322 578 q 228 560 269 578 q 186 503 186 542 q 279 429 186 429 l 429 438 q 592 369 525 438 q 660 218 660 300 q 597 85 660 136 q 432 35 533 35 q 157 111 281 35 q 33 250 33 188 q 60 286 33 276 q 197 183 114 221 q 367 146 279 146 q 511 174 456 146 q 567 254 567 203 q 547 305 567 286 q 488 324 526 324 l 338 315 q 172 381 247 315 q 96 539 96 447 q 144 649 96 610 q 278 689 192 689 z "},"ढ़":{"ha":681,"x_min":-85,"x_max":742,"o":"m 292 -95 q 292 -81 292 -95 q 308 -49 292 -67 q 353 -32 325 -32 q 406 -57 381 -32 q 432 -110 432 -82 q 416 -156 432 -139 q 371 -174 400 -174 q 317 -149 342 -174 q 292 -95 292 -124 m 622 911 q 742 829 742 911 q 735 800 742 814 l 481 800 q 528 703 528 756 q 488 616 528 650 q 392 559 449 582 q 278 510 335 536 q 181 439 221 485 q 142 320 142 393 q 206 194 142 247 q 353 142 271 142 q 489 184 436 142 q 542 288 542 226 q 522 340 542 321 q 474 360 503 360 q 425 339 446 360 q 399 265 399 315 q 404 232 399 246 q 367 226 393 226 q 315 253 342 226 q 289 329 289 279 q 330 414 289 379 q 429 449 371 449 q 578 389 513 449 q 644 243 644 329 q 575 103 644 157 q 412 49 506 49 q 234 90 318 49 q 92 207 150 131 q 33 359 33 283 q 62 486 33 435 q 133 567 90 538 q 227 620 176 596 q 321 660 278 644 q 392 699 364 676 q 421 747 421 721 q 392 800 421 774 l 35 800 q -85 885 -85 800 q -79 911 -85 900 l 622 911 z "},"फ़":{"ha":1075,"x_min":-76,"x_max":1138,"o":"m 128 119 q 128 133 128 119 q 144 165 128 147 q 189 182 161 182 q 242 157 217 182 q 268 103 268 132 q 252 58 268 75 q 207 40 236 40 q 153 65 178 40 q 128 119 128 90 m 481 436 l 482 672 q 465 800 482 774 l 172 800 q 213 664 213 771 l 211 476 q 240 383 211 418 q 317 347 268 347 q 408 372 365 347 q 481 436 451 396 m 90 510 l 92 639 q 90 699 92 672 q 75 800 90 778 l 43 800 q -76 885 -76 800 q -72 911 -76 894 l 1018 911 q 1138 829 1138 911 q 1132 800 1138 811 l 563 800 q 599 692 599 769 q 592 575 599 615 q 754 646 654 646 q 938 559 854 646 q 1021 361 1021 472 q 965 224 1021 281 q 821 167 910 167 q 744 192 776 167 q 711 257 711 218 q 714 276 711 269 q 756 271 740 271 q 880 317 839 271 q 921 419 921 363 q 883 511 921 476 q 790 546 844 546 q 685 510 735 546 q 601 413 635 474 q 599 125 599 226 q 615 -1 599 24 q 576 -8 597 -8 q 476 136 476 -8 q 483 281 476 222 q 374 247 433 247 q 177 333 264 247 q 90 510 90 419 z "},"य़":{"ha":821,"x_min":-54,"x_max":881,"o":"m 131 67 q 131 82 131 67 q 147 113 131 96 q 192 131 164 131 q 245 106 219 131 q 271 52 271 81 q 255 6 271 24 q 210 -11 239 -11 q 156 14 181 -11 q 131 67 131 39 m 319 800 q 367 671 367 733 q 335 566 367 608 q 267 500 304 524 q 198 452 229 476 q 167 408 167 428 q 215 344 167 374 q 331 314 264 314 q 463 341 397 314 q 567 421 528 368 q 569 673 569 576 q 549 800 569 769 l 319 800 m 692 664 l 686 126 q 703 -1 686 26 q 664 -8 686 -8 q 569 128 569 -8 q 582 271 569 196 q 380 207 497 207 q 156 298 263 207 q 50 474 50 389 q 157 581 50 519 q 231 641 197 603 q 264 724 264 679 q 233 800 264 769 l 65 800 q -54 885 -54 800 q -49 911 -54 900 l 761 911 q 881 829 881 911 q 875 800 881 811 l 650 800 q 692 664 692 771 z "},"ॠ":{"ha":1079,"x_min":-81,"x_max":1139,"o":"m 1019 911 q 1139 829 1139 911 q 1133 800 1139 811 l 508 800 q 550 664 550 771 q 547 446 550 593 q 585 443 572 443 q 753 493 696 443 q 710 596 710 556 q 733 660 710 636 q 794 685 756 685 q 866 646 832 685 q 900 553 900 607 q 863 446 900 499 q 929 324 929 375 q 877 223 929 274 q 825 141 825 172 q 844 94 825 110 q 901 78 863 78 q 978 114 939 78 q 1032 203 1018 150 q 1081 176 1063 197 q 1100 125 1100 156 q 1052 36 1100 72 q 929 0 1004 0 q 790 50 854 0 q 725 172 725 100 q 753 242 725 210 q 808 301 781 274 q 835 350 835 328 q 815 401 835 372 q 632 344 740 344 q 546 354 592 344 q 543 115 543 204 q 561 -1 543 26 q 522 -8 544 -8 q 424 132 424 -8 q 440 324 424 236 q 121 185 233 185 q 51 206 79 185 q 22 278 22 228 q 382 428 150 278 q 208 526 263 511 q 162 532 189 532 q 109 515 135 532 q 74 465 83 497 q 31 496 47 474 q 14 555 14 518 q 47 618 14 592 q 132 644 79 644 q 232 621 185 644 q 338 552 279 597 q 426 489 396 507 q 428 660 428 546 q 411 800 428 774 l 38 800 q -81 885 -81 800 q -76 911 -81 903 l 1019 911 z "},"ॡ":{"ha":994,"x_min":-81,"x_max":1058,"o":"m 721 664 q 719 592 721 618 q 842 497 793 561 q 890 370 890 432 q 865 263 890 308 q 808 192 839 218 q 728 71 728 117 q 746 27 728 44 q 792 10 764 10 q 886 75 858 10 q 949 1 949 54 q 924 -55 949 -31 q 870 -93 900 -79 q 816 -133 840 -107 q 792 -189 792 -158 q 811 -238 792 -219 q 867 -257 831 -257 q 940 -226 904 -257 q 988 -149 976 -194 q 1037 -173 1015 -151 q 1058 -234 1058 -194 q 1015 -308 1058 -274 q 898 -343 972 -343 q 760 -290 824 -343 q 696 -165 696 -237 q 742 -50 696 -93 q 663 19 694 -26 q 631 111 631 65 q 654 193 631 157 q 706 254 678 229 q 757 319 733 279 q 781 403 781 358 q 749 480 781 449 q 668 511 718 511 q 532 421 582 511 q 547 340 547 379 q 528 269 547 301 q 469 238 508 238 q 406 271 429 238 q 382 356 382 304 q 415 469 382 408 q 306 515 369 515 q 208 469 243 515 q 174 353 174 424 q 307 38 174 192 q 267 14 296 14 q 185 72 238 14 q 92 224 133 131 q 50 413 50 318 q 110 563 50 508 q 257 618 169 618 q 457 532 367 618 q 599 611 517 600 l 599 672 q 581 800 599 772 l 38 800 q -81 885 -81 800 q -76 911 -81 903 l 935 911 q 1054 829 1054 911 q 1049 800 1054 811 l 679 800 q 721 664 721 771 z "},"।":{"ha":671,"x_min":321,"x_max":469,"o":"m 331 149 l 338 783 q 321 911 338 885 q 360 918 338 918 q 460 760 460 918 l 451 126 q 469 -1 451 26 q 431 -8 453 -8 q 331 149 331 -8 z "},"॥":{"ha":946,"x_min":321,"x_max":799,"o":"m 331 149 l 338 783 q 321 911 338 885 q 360 918 338 918 q 460 760 460 918 l 451 126 q 469 -1 451 26 q 431 -8 453 -8 q 331 149 331 -8 m 789 760 l 782 126 q 799 -1 782 24 q 760 -8 781 -8 q 660 149 660 -8 q 664 408 660 215 q 668 742 668 600 q 650 911 668 883 q 689 918 668 918 q 789 760 789 918 z "},"०":{"ha":657,"x_min":75,"x_max":586,"o":"m 321 749 q 379 750 321 749 q 512 664 438 750 q 586 455 586 578 q 523 253 586 332 q 343 174 460 174 q 151 259 226 174 q 75 465 75 344 q 140 667 75 586 q 321 749 204 749 m 311 253 q 425 325 379 254 q 471 489 471 396 q 353 669 471 669 q 240 599 286 669 q 193 436 193 528 q 311 253 193 253 z "},"१":{"ha":608,"x_min":88,"x_max":532,"o":"m 532 639 q 483 510 532 568 q 377 424 435 453 q 271 367 319 394 q 222 321 222 340 q 325 200 222 285 q 394 126 363 169 q 426 39 426 82 q 399 -26 426 -4 q 342 -47 372 -47 q 264 0 288 -47 q 300 69 300 29 q 267 150 300 108 q 194 223 233 192 q 121 293 154 254 q 88 366 88 332 q 123 429 88 400 q 210 482 158 458 q 313 531 261 506 q 399 599 364 557 q 435 690 435 642 q 406 774 435 738 q 326 810 378 810 q 242 775 274 810 q 210 681 210 740 q 276 569 210 621 q 243 560 265 560 q 142 612 188 560 q 97 735 97 664 q 150 858 97 807 q 290 910 203 910 q 454 830 376 910 q 532 639 532 750 z "},"२":{"ha":657,"x_min":63,"x_max":588,"o":"m 519 46 q 565 54 544 46 q 576 3 576 33 q 554 -51 576 -28 q 484 -74 532 -74 q 390 -40 436 -74 q 308 53 343 -6 q 213 283 249 153 q 106 344 150 300 q 63 447 63 388 q 83 504 63 481 q 136 528 103 528 q 257 396 222 528 q 424 467 356 406 q 493 613 493 529 q 444 748 493 697 q 324 799 394 799 q 160 735 228 799 q 115 810 115 757 q 165 892 115 863 q 274 921 214 921 q 492 813 397 921 q 588 576 588 706 q 500 365 588 447 q 290 276 413 283 q 373 106 324 167 q 519 46 422 46 z "},"३":{"ha":649,"x_min":67,"x_max":575,"o":"m 481 529 q 575 333 575 432 q 506 177 575 235 q 329 119 436 119 q 268 124 300 119 q 324 29 292 64 q 415 -6 357 -6 q 468 10 449 -6 q 490 -50 490 -17 q 466 -106 490 -83 q 392 -129 442 -129 q 297 -82 343 -129 q 230 22 251 -35 q 197 142 208 79 q 67 283 67 189 q 87 333 67 313 q 139 354 107 354 q 247 225 222 354 q 289 222 272 222 q 416 261 363 222 q 469 371 469 300 q 424 483 469 442 q 321 458 374 458 q 229 483 268 458 q 190 547 190 507 q 216 606 190 586 q 288 626 242 626 q 381 601 333 626 q 450 709 450 654 q 417 788 450 764 q 332 813 383 813 q 154 747 228 813 q 113 817 113 774 q 160 890 113 861 q 278 918 208 918 q 465 845 386 918 q 543 668 543 772 q 481 529 543 592 z "},"४":{"ha":686,"x_min":29,"x_max":632,"o":"m 206 278 q 206 253 206 278 q 240 192 206 228 q 328 157 275 157 q 417 193 381 157 q 453 282 453 229 q 344 469 453 374 q 242 372 278 415 q 206 278 206 328 m 576 267 q 515 126 576 183 q 372 69 454 69 q 176 149 258 69 q 94 315 94 228 q 133 436 94 381 q 243 550 172 492 q 103 662 147 621 q 44 735 60 703 q 29 810 29 768 q 58 878 29 851 q 124 906 88 906 q 186 883 161 906 q 211 825 211 860 q 177 806 193 821 q 161 759 161 790 q 197 689 161 728 q 303 596 232 650 q 465 726 431 690 q 526 851 526 790 q 521 886 526 869 l 540 889 q 607 861 582 889 q 632 788 632 833 q 594 690 632 743 q 518 603 557 636 q 407 517 479 571 q 576 267 576 379 z "},"५":{"ha":736,"x_min":47,"x_max":743,"o":"m 729 76 q 743 22 743 54 q 722 -33 743 -10 q 658 -56 700 -56 q 443 233 518 -56 q 378 226 406 226 q 144 314 242 226 q 47 522 47 401 q 106 707 47 614 q 243 855 165 800 q 374 910 321 910 q 447 885 426 910 q 468 838 468 860 q 258 697 354 803 q 161 474 161 590 q 201 363 161 407 q 309 319 242 319 q 417 338 376 319 q 404 422 404 381 q 432 490 404 463 q 500 518 460 518 q 571 485 540 518 q 601 393 601 451 q 510 257 601 303 q 573 119 533 169 q 685 69 613 69 q 729 76 706 69 z "},"६":{"ha":682,"x_min":58,"x_max":653,"o":"m 653 -1 q 624 -85 653 -51 q 556 -119 596 -119 q 492 -99 517 -119 q 463 -46 467 -78 q 529 -12 507 -37 q 551 51 551 13 q 524 142 551 90 q 392 114 465 114 q 176 203 268 114 q 83 383 83 292 q 138 533 83 475 q 58 707 58 608 q 131 860 58 806 q 293 914 204 914 q 442 881 382 914 q 501 793 501 847 q 479 750 501 765 q 335 808 417 808 q 208 767 254 808 q 161 672 161 726 q 193 578 161 618 q 303 610 249 610 q 392 588 358 610 q 425 529 425 565 q 394 474 425 493 q 323 456 364 456 q 244 468 282 456 q 188 355 188 424 q 231 247 188 286 q 338 207 274 207 q 460 238 401 207 q 438 306 438 271 q 461 363 438 340 q 522 385 485 385 q 590 350 560 385 q 619 266 619 315 q 575 176 619 217 q 653 -1 653 82 z "},"७":{"ha":833,"x_min":1,"x_max":782,"o":"m 468 210 q 629 292 575 210 q 683 486 683 375 q 641 665 683 597 q 532 733 599 733 q 460 704 490 733 q 431 620 431 675 q 473 524 431 565 q 583 467 515 482 q 622 458 590 465 q 550 406 614 406 q 382 477 458 406 q 306 650 306 549 q 358 777 306 726 q 488 828 411 828 q 695 719 608 828 q 782 450 782 610 q 703 193 782 290 q 490 96 624 96 q 323 140 400 96 q 194 254 246 183 q 103 409 143 325 q 43 581 64 493 q 1 854 1 756 q 63 917 1 917 q 205 400 100 590 q 468 210 310 210 z "},"८":{"ha":632,"x_min":43,"x_max":599,"o":"m 531 332 q 599 242 599 307 q 535 120 599 176 q 353 64 471 64 q 139 148 235 64 q 43 349 43 232 q 140 581 43 467 l 450 938 q 511 861 511 922 q 446 736 511 813 q 367 647 421 707 q 279 544 314 586 q 153 303 153 390 q 193 202 153 239 q 299 165 233 165 q 429 206 365 165 q 531 332 493 247 z "},"९":{"ha":585,"x_min":29,"x_max":535,"o":"m 296 807 q 269 807 296 807 q 198 759 242 807 q 154 645 154 711 q 193 514 154 579 q 287 396 232 449 q 397 292 342 343 q 529 71 529 168 q 500 -14 529 17 q 429 -44 471 -44 q 340 17 369 -44 q 407 101 407 40 q 274 308 407 178 q 163 422 218 363 q 68 553 107 481 q 29 705 29 625 q 92 847 29 785 q 265 910 156 910 q 454 828 374 910 q 535 657 535 746 q 486 515 535 568 q 372 463 438 463 q 288 524 307 463 q 417 692 417 574 q 383 774 417 742 q 296 807 350 807 z "},"॰":{"ha":551,"x_min":72,"x_max":496,"o":"m 496 442 q 496 400 496 442 q 439 294 496 358 q 283 229 382 229 q 128 288 183 229 q 72 432 72 347 q 129 581 72 517 q 285 646 186 646 q 440 586 385 646 q 496 442 496 526 m 397 437 q 397 464 397 437 q 369 530 397 490 q 286 569 340 569 q 202 532 232 569 q 172 441 172 494 q 201 347 172 388 q 284 307 231 307 q 367 345 338 307 q 397 437 397 383 z "},"ॲ":{"ha":1022,"x_min":22,"x_max":1082,"o":"m 1063 1196 q 990 1093 1063 1132 q 815 1054 918 1054 q 620 1113 711 1054 q 529 1225 529 1171 q 556 1265 529 1253 q 782 1151 640 1151 q 908 1181 849 1151 q 996 1271 967 1211 q 1042 1247 1022 1268 q 1063 1196 1063 1225 m 890 664 l 883 126 q 900 -1 883 26 q 861 -8 882 -8 q 761 144 761 -8 q 772 383 761 264 q 681 374 731 374 q 575 400 632 374 q 592 317 592 358 q 535 179 592 232 q 382 126 478 126 q 264 150 322 126 q 163 208 206 174 q 89 283 121 243 q 22 413 22 363 q 60 458 22 444 q 178 303 106 367 q 342 239 251 239 q 446 274 404 239 q 488 376 488 308 q 433 481 488 443 q 331 456 383 456 q 240 480 279 456 q 201 544 201 504 q 228 603 201 583 q 300 622 254 622 q 389 597 346 622 q 465 717 465 650 q 432 788 465 764 q 347 813 399 813 q 189 756 256 813 q 147 824 147 782 q 190 892 147 867 q 293 918 233 918 q 480 845 401 918 q 558 678 558 772 q 490 525 558 585 q 639 472 563 472 q 767 507 715 472 l 767 672 q 749 800 767 772 l 738 800 q 618 885 618 800 q 622 911 618 903 l 963 911 q 1082 829 1082 911 q 1076 800 1082 811 l 847 800 q 890 664 890 769 z "},"ॽ":{"ha":797,"x_min":165,"x_max":663,"o":"m 404 281 l 401 110 q 417 1 401 28 q 379 -6 401 -6 q 293 149 293 -6 l 293 281 q 304 415 293 374 q 333 485 315 456 q 367 531 351 515 q 407 570 383 547 q 457 618 431 593 q 497 657 483 643 q 528 693 510 671 q 560 778 560 735 q 527 850 560 821 q 438 879 494 879 q 218 788 314 879 q 165 869 165 817 q 226 954 165 921 q 358 988 286 988 q 573 911 483 988 q 663 726 663 835 q 633 630 663 669 q 592 576 604 590 q 547 528 581 563 l 507 489 q 440 415 456 435 q 404 281 404 369 z "},"​":{"ha":0,"x_min":0,"x_max":0,"o":""},"‌":{"ha":7,"x_min":-33,"x_max":53,"o":"m -26 -418 l -28 1017 q 31 1101 -28 1101 q 53 1096 43 1101 q 46 1039 46 1083 l 47 -396 q -11 -481 47 -481 q -33 -475 -24 -481 q -26 -418 -26 -462 z "},"‍":{"ha":0,"x_min":-207,"x_max":185,"o":"m 25 849 l 26 -396 q -32 -481 26 -481 q -54 -475 -44 -481 q -47 -377 -47 -462 q -48 197 -47 -292 q -49 847 -49 686 l -103 797 q -166 764 -136 764 q -207 799 -196 764 l -64 932 l -207 1067 q -163 1100 -193 1100 q -101 1068 -133 1100 l -11 983 l 79 1068 q 141 1100 111 1100 q 185 1067 171 1100 l 42 932 l 185 799 q 144 764 174 764 q 81 797 114 764 l 25 849 z "},"–":{"ha":965,"x_min":83,"x_max":882,"o":"m 217 542 l 876 542 q 882 513 882 528 q 750 418 882 418 l 92 418 q 83 451 83 432 q 217 542 83 542 z "},"—":{"ha":1476,"x_min":83,"x_max":1393,"o":"m 217 542 l 1386 542 q 1393 513 1393 531 q 1260 418 1393 418 l 92 418 q 83 451 83 432 q 217 542 83 542 z "},"‘":{"ha":363,"x_min":69,"x_max":292,"o":"m 199 1069 q 224 981 199 1021 q 292 929 249 942 q 260 872 288 896 q 185 847 233 847 q 103 892 138 847 q 69 1001 69 938 q 126 1181 69 1104 q 239 1257 182 1257 q 276 1226 271 1257 q 199 1069 199 1169 z "},"’":{"ha":363,"x_min":69,"x_max":292,"o":"m 164 1049 q 139 1138 164 1099 q 69 1189 114 1176 q 101 1247 74 1222 q 176 1271 129 1271 q 258 1226 224 1271 q 292 1118 292 1182 q 235 938 292 1014 q 124 861 179 861 q 86 892 92 861 q 164 1049 164 949 z "},"‚":{"ha":1000,"x_min":101,"x_max":328,"o":"m 196 -53 q 171 40 196 0 q 101 96 146 79 q 135 158 107 132 q 203 185 164 185 q 294 135 260 185 q 328 13 328 85 q 271 -176 328 -94 q 153 -257 214 -257 q 111 -222 119 -257 q 196 -53 196 -162 z "},"“":{"ha":657,"x_min":197,"x_max":460,"o":"m 365 1069 q 390 981 365 1021 q 460 929 415 942 q 426 872 454 896 q 358 847 399 847 q 339 849 346 847 q 321 847 333 847 q 231 893 265 847 q 197 1001 197 939 q 254 1181 197 1104 q 367 1257 311 1257 q 383 1254 372 1257 q 406 1257 397 1257 q 443 1226 438 1257 q 365 1069 365 1171 z "},"”":{"ha":657,"x_min":69,"x_max":588,"o":"m 164 1036 q 139 1124 164 1085 q 69 1176 114 1164 q 101 1233 74 1210 q 177 1257 129 1257 q 258 1212 225 1257 q 292 1103 292 1167 q 235 924 292 1000 q 124 847 179 847 q 86 879 92 847 q 164 1036 164 935 m 458 1036 q 433 1124 458 1085 q 364 1176 408 1164 q 397 1233 369 1210 q 472 1257 424 1257 q 554 1212 521 1257 q 588 1103 588 1167 q 531 924 588 1000 q 419 847 475 847 q 381 879 386 847 q 458 1036 458 936 z "},"„":{"ha":1000,"x_min":101,"x_max":328,"o":"m 196 -53 q 171 40 196 0 q 101 96 146 79 q 135 158 107 132 q 203 185 164 185 q 294 135 260 185 q 328 13 328 85 q 271 -176 328 -94 q 153 -257 214 -257 q 111 -222 119 -257 q 196 -53 196 -162 z "},"†":{"ha":913,"x_min":56,"x_max":842,"o":"m 388 -81 l 385 544 q 392 740 385 678 q 63 735 217 735 q 56 767 56 749 q 189 857 56 857 l 390 853 q 383 1042 385 978 q 479 1182 383 1182 q 517 1174 500 1182 q 506 1013 506 1147 q 504 850 506 878 q 836 857 614 857 q 842 826 842 843 q 708 735 842 735 q 501 739 689 735 q 510 503 507 696 l 513 -192 q 413 -333 513 -333 q 372 -329 388 -333 q 387 -228 386 -303 q 388 -81 388 -153 z "},"‡":{"ha":893,"x_min":56,"x_max":844,"o":"m 479 1182 q 517 1174 500 1182 q 506 1013 506 1147 q 504 850 506 878 q 836 857 614 857 q 842 826 842 843 q 708 735 842 735 q 501 739 689 735 q 509 437 508 692 q 506 103 510 182 q 838 108 675 108 q 844 79 844 94 q 708 -12 844 -14 q 506 -8 572 -11 q 513 -194 511 -136 q 417 -333 513 -333 q 378 -326 393 -333 q 390 -179 390 -301 q 394 -7 390 -57 q 64 -14 283 -14 q 58 19 58 0 q 190 108 58 108 q 392 104 300 108 q 386 426 386 179 q 392 740 386 674 q 63 735 219 735 q 56 767 56 749 q 189 857 56 857 l 390 853 q 383 1042 385 978 q 479 1182 383 1182 z "},"•":{"ha":596,"x_min":124,"x_max":465,"o":"m 317 733 q 351 733 317 733 q 426 693 386 733 q 465 583 465 653 q 405 453 465 514 q 274 393 344 393 q 164 434 204 393 q 124 544 124 475 q 185 674 124 614 q 317 733 247 733 z "},"…":{"ha":1268,"x_min":135,"x_max":1133,"o":"m 250 199 q 271 199 250 199 q 315 174 292 199 q 339 108 339 150 q 303 30 339 67 q 224 -7 267 -7 q 158 18 182 -7 q 135 84 135 43 q 172 162 135 125 q 250 199 208 199 m 647 199 q 668 199 647 199 q 713 174 689 199 q 736 108 736 150 q 700 30 736 67 q 622 -7 664 -7 q 556 18 579 -7 q 532 84 532 43 q 569 162 532 125 q 647 199 606 199 m 1044 199 q 1065 199 1044 199 q 1110 174 1086 199 q 1133 108 1133 150 q 1097 30 1133 67 q 1019 -7 1061 -7 q 953 18 976 -7 q 929 84 929 43 q 966 162 929 125 q 1044 199 1003 199 z "},"‰":{"ha":1718,"x_min":104,"x_max":1613,"o":"m 1613 281 q 1613 225 1613 281 q 1546 78 1613 168 q 1381 -12 1479 -12 q 1231 63 1283 -12 q 1178 250 1178 138 q 1242 454 1178 363 q 1406 546 1307 546 q 1558 470 1504 546 q 1613 281 1613 394 m 1497 263 q 1497 301 1497 263 q 1470 391 1497 339 q 1397 443 1443 443 q 1319 392 1350 443 q 1289 266 1289 340 q 1318 140 1289 192 q 1393 88 1347 88 q 1468 138 1439 88 q 1497 263 1497 188 m 539 751 q 539 695 539 751 q 472 549 539 639 q 307 458 404 458 q 157 533 210 458 q 104 722 104 608 q 168 925 104 835 q 331 1015 232 1015 q 484 940 429 1015 q 539 751 539 864 m 397 862 q 383 888 397 862 q 322 914 369 914 q 245 863 275 914 q 215 737 215 811 q 244 610 215 663 q 318 558 272 558 q 394 610 364 558 q 424 735 424 661 q 397 862 424 810 m 874 958 q 956 1015 918 1015 q 1017 981 993 1015 q 967 926 1001 975 l 346 46 q 264 -14 303 -14 q 204 22 225 -14 q 254 78 226 36 l 874 958 m 1114 281 q 1114 225 1114 281 q 1047 78 1114 168 q 883 -12 981 -12 q 732 63 785 -12 q 679 250 679 138 q 744 454 679 363 q 907 546 808 546 q 1060 470 1006 546 q 1114 281 1114 394 m 999 263 q 999 301 999 263 q 972 391 999 339 q 898 443 944 443 q 821 392 851 443 q 790 266 790 340 q 819 140 790 192 q 894 88 849 88 q 969 138 940 88 q 999 263 999 188 z "},"‹":{"ha":522,"x_min":92,"x_max":432,"o":"m 432 882 q 293 694 333 764 q 253 562 253 624 q 294 428 253 500 q 432 243 335 357 q 387 214 419 214 q 283 278 354 214 q 151 428 211 343 q 92 562 92 513 q 151 697 92 611 q 283 847 211 782 q 387 911 354 911 q 432 882 419 911 z "},"›":{"ha":522,"x_min":92,"x_max":432,"o":"m 240 847 q 276 814 240 847 q 372 697 313 782 q 432 562 432 611 q 372 428 432 513 q 240 278 313 343 q 133 214 168 214 q 106 224 118 214 q 92 243 94 233 q 228 428 188 357 q 269 562 269 500 q 229 694 269 624 q 92 882 189 764 q 106 901 94 892 q 133 911 118 911 q 240 847 168 911 z "},"⁄":{"ha":907,"x_min":46,"x_max":860,"o":"m 717 958 q 797 1015 756 1015 q 860 981 839 1015 q 810 926 846 975 l 189 46 q 107 -14 146 -14 q 46 22 68 -14 q 96 78 67 33 l 717 958 z "},"€":{"ha":996,"x_min":57,"x_max":944,"o":"m 581 351 l 344 351 q 448 174 374 233 q 619 115 522 115 q 790 152 715 115 q 910 239 864 189 q 943 182 943 229 q 841 54 943 121 q 589 -12 739 -12 q 328 84 439 -12 q 186 351 218 181 l 63 351 q 57 376 57 363 q 167 446 57 446 l 176 446 q 175 482 175 458 q 178 553 175 506 l 63 553 q 57 578 57 564 q 167 647 57 647 l 193 647 q 355 917 235 819 q 642 1015 475 1015 q 857 967 769 1015 q 944 847 944 918 q 915 785 944 807 q 847 763 886 763 q 778 778 807 763 q 779 797 779 788 q 742 880 779 843 q 617 917 706 917 q 451 847 528 917 q 343 647 374 776 l 683 647 q 689 625 689 639 q 581 553 689 553 l 329 553 q 328 510 328 538 q 331 446 328 482 l 683 446 q 689 424 689 438 q 581 351 689 351 z "},"₹":{"ha":658,"x_min":24,"x_max":696,"o":"m 696 676 q 594 604 696 604 l 550 604 q 553 565 553 579 q 492 383 553 457 q 328 294 431 308 q 528 83 389 83 q 571 88 549 83 q 571 78 571 82 q 548 21 571 49 q 471 -7 525 -7 q 206 306 292 -7 q 100 425 100 343 q 121 476 100 456 q 175 497 142 497 q 308 371 267 497 q 408 438 372 388 q 444 561 444 489 q 442 604 444 576 l 28 604 q 24 631 24 621 q 125 700 24 700 l 411 700 q 329 817 379 772 l 28 817 q 24 842 24 829 q 125 911 24 911 l 692 911 q 696 888 696 904 q 594 817 696 817 l 457 817 q 528 700 503 764 l 692 700 q 696 676 696 694 z "},"™":{"ha":1354,"x_min":32,"x_max":1271,"o":"m 121 1011 l 433 1011 q 494 960 494 1011 q 476 917 494 932 q 407 932 446 932 l 317 932 l 317 481 q 339 439 317 449 q 275 411 322 411 q 211 481 211 411 l 211 932 l 92 932 q 32 981 32 932 q 49 1025 32 1006 q 121 1011 72 1011 m 1271 425 q 1215 411 1240 411 q 1169 427 1190 411 q 1147 476 1149 443 l 1119 901 l 940 449 q 901 424 929 424 q 865 450 874 424 l 696 883 l 668 479 q 613 411 664 411 q 553 432 574 411 q 572 482 569 446 l 608 944 q 608 965 608 950 q 596 996 608 979 q 676 1018 632 1018 q 741 999 721 1018 q 776 938 761 981 l 915 593 l 1047 926 q 1094 999 1068 981 q 1163 1018 1119 1018 q 1233 1001 1207 1018 q 1222 970 1222 988 q 1222 947 1222 953 l 1254 485 q 1271 425 1257 440 z "},"−":{"ha":875,"x_min":40,"x_max":835,"o":"m 172 626 l 831 626 q 835 599 835 618 q 703 504 835 504 l 47 504 q 40 536 40 522 q 172 626 40 626 z "},"◌":{"ha":1046,"x_min":157,"x_max":904,"o":"m 164 378 l 303 407 q 326 339 311 369 l 207 269 q 164 378 175 321 m 299 457 l 157 457 q 174 571 157 517 l 310 526 q 299 457 299 490 m 254 206 l 356 297 q 413 250 378 274 l 347 135 q 254 206 288 167 m 281 732 l 374 629 q 328 572 347 607 l 207 643 q 281 732 238 694 m 531 221 l 531 90 q 418 106 475 90 l 458 231 q 531 221 492 221 m 761 457 l 904 457 q 886 342 904 399 l 751 385 q 761 457 761 424 m 454 814 l 483 682 q 414 658 439 672 l 347 776 q 454 814 392 803 m 607 97 l 579 225 q 649 251 621 236 l 714 135 q 607 97 663 107 m 531 686 l 531 821 q 643 804 592 821 l 600 676 q 531 686 564 686 m 781 181 l 688 282 q 732 339 714 304 l 853 269 q 781 181 824 218 m 807 706 l 703 611 q 647 657 682 636 l 715 776 q 807 706 769 746 m 854 642 q 894 533 886 589 l 756 504 q 732 572 750 532 l 854 642 z "},"ﬁ":{"ha":840,"x_min":43,"x_max":760,"o":"m 722 594 l 722 103 q 760 36 722 53 q 672 -12 725 -12 q 578 104 578 -12 l 578 611 l 313 610 l 313 -161 q 272 -305 313 -257 q 167 -353 231 -353 q 43 -265 78 -353 q 140 -235 113 -265 q 167 -132 167 -204 l 167 611 q 44 671 44 621 q 67 717 44 700 q 158 711 111 711 l 167 711 l 167 797 q 251 999 167 933 q 458 1065 336 1065 q 654 1024 581 1065 q 728 924 728 983 q 686 860 728 882 q 639 847 664 847 q 590 854 614 847 q 454 963 551 963 q 313 803 313 963 l 313 711 l 633 711 q 722 594 722 711 z "},"ﬂ":{"ha":872,"x_min":43,"x_max":760,"o":"m 722 917 l 722 103 q 760 36 722 53 q 672 -12 725 -12 q 578 104 578 -12 l 578 946 q 463 968 529 968 q 354 933 396 968 q 313 826 313 897 l 313 654 l 464 654 q 472 622 472 646 q 431 575 472 599 q 315 551 390 551 l 313 551 l 313 -161 q 272 -305 313 -257 q 167 -353 231 -353 q 43 -265 78 -353 q 140 -235 113 -265 q 167 -132 167 -204 l 167 553 q 44 613 44 560 q 67 660 44 640 q 158 654 111 654 l 167 654 l 167 825 q 242 1003 167 942 q 447 1065 318 1065 q 649 1025 575 1065 q 722 917 722 985 z "}," ":{"ha":381,"x_min":0,"x_max":0,"o":""}}}
